<?xml version="1.0" encoding="UTF-8" standalone="no"?>
<!-- Created with Inkscape (http://www.inkscape.org/) -->

<svg
   width="210mm"
   height="148mm"
   viewBox="0 0 210 148"
   version="1.1"
   id="svg3"
   sodipodi:docname="24eme.svg"
   inkscape:version="1.1.2 (0a00cf5339, 2022-02-04)"
   xmlns:inkscape="http://www.inkscape.org/namespaces/inkscape"
   xmlns:sodipodi="http://sodipodi.sourceforge.net/DTD/sodipodi-0.dtd"
   xmlns="http://www.w3.org/2000/svg"
   xmlns:svg="http://www.w3.org/2000/svg">
  <defs
     id="defs7" />
  <sodipodi:namedview
     id="namedview5"
     pagecolor="#ffffff"
     bordercolor="#666666"
     borderopacity="1.0"
     inkscape:pageshadow="2"
     inkscape:pageopacity="0.0"
     inkscape:pagecheckerboard="0"
     inkscape:document-units="mm"
     showgrid="false"
     inkscape:zoom="1.3318553"
     inkscape:cx="396.81488"
     inkscape:cy="279.30962"
     inkscape:window-width="1920"
     inkscape:window-height="1011"
     inkscape:window-x="0"
     inkscape:window-y="0"
     inkscape:window-maximized="1"
     inkscape:current-layer="svg3" />
  <path
     id="path2"
     style="fill:#000000;stroke-width:0.1304"
     d="M 101.19367,95.422522 C 89.282288,93.777899 79.689478,85.217603 77.087125,73.910671 c -0.631322,-2.743033 -0.87839,-6.958506 -0.538187,-9.182526 0.671558,-4.390106 1.662232,-7.373456 3.489113,-10.507221 1.574636,-2.701075 4.025945,-5.600833 6.410799,-7.583608 3.712764,-3.0868 8.594248,-5.337528 13.375615,-6.167155 4.872805,-0.845489 9.262045,-0.558812 14.181195,0.926225 0.48422,0.146179 0.90622,0.307557 0.93777,0.35862 0.0316,0.05106 -0.24725,0.431581 -0.61958,0.845597 l -0.67698,0.752758 -1.37445,-0.387927 c -4.62798,-1.306202 -9.48606,-1.328331 -14.338752,-0.06531 -6.122996,1.593643 -11.770529,5.621261 -15.313556,10.921078 -2.796941,4.183789 -4.238192,8.953451 -4.238192,14.025862 0,6.386368 2.219742,12.089888 6.628567,17.03178 1.217225,1.364397 1.229056,1.37555 2.990588,2.819183 3.605699,2.954979 7.7388,4.773222 12.996995,5.717686 1.21139,0.217571 5.30753,0.302298 6.78571,0.140338 10.20979,-1.118694 18.71019,-7.531513 22.28961,-16.815626 2.01089,-5.215726 2.1491,-11.430298 0.37234,-16.74238 l -0.37308,-1.115418 0.72706,-0.810355 0.72705,-0.810354 0.35418,0.902728 c 0.53291,1.358308 1.1005,3.433301 1.41791,5.183617 0.38223,2.107775 0.41076,6.445815 0.0566,8.606406 -0.97509,5.948647 -3.58794,11.039379 -7.83148,15.258414 -3.76719,3.745439 -8.47575,6.409746 -13.3767,7.569125 -0.46618,0.110277 -0.96496,0.229587 -1.1084,0.265117 -2.05399,0.508777 -7.4017,0.712587 -9.8452,0.375197 z M 97.477266,80.661108 c -0.215163,-0.03106 -1.203546,-0.25551 -2.196411,-0.498742 -1.133275,-0.277624 -2.298173,-0.470337 -3.129598,-0.517737 -1.295952,-0.07388 -1.348109,-0.06567 -2.428431,0.381373 -0.607221,0.251279 -1.135341,0.425371 -1.173602,0.386867 -0.154531,-0.155499 -0.02316,-2.263623 0.186271,-2.988523 0.430773,-1.491224 1.732739,-3.548508 3.27399,-5.173353 0.353639,-0.372819 1.347313,-1.415064 2.208155,-2.316109 3.81898,-3.997277 5.097615,-6.1529 5.551378,-9.358968 0.261282,-1.846013 -0.11758,-3.06581 -1.173142,-3.777153 -0.777412,-0.523898 -2.296338,-0.359185 -3.038996,0.32955 -0.952076,0.882941 -0.933916,3.071235 0.03395,4.088653 0.54353,0.57137 0.516849,0.631452 -0.518106,1.166777 -0.843979,0.436543 -1.929716,0.486878 -2.582943,0.119743 -1.001957,-0.563129 -1.487658,-1.858044 -1.281068,-3.415405 0.257128,-1.9383 1.845903,-3.465981 4.274308,-4.10994 1.014453,-0.269006 4.136819,-0.31057 5.174699,-0.06888 2.87319,0.669078 4.18852,2.557516 4.01597,5.765805 -0.19672,3.65762 -1.94151,6.129822 -7.430018,10.527586 -0.874226,0.700495 -2.082925,1.743062 -2.686001,2.316826 -1.059155,1.007675 -2.15888,2.267373 -2.063073,2.363187 0.02559,0.0256 0.570401,0.103163 1.210626,0.172329 0.640232,0.06917 1.868216,0.215992 2.728854,0.326274 3.526321,0.451888 4.690012,0.206406 6.585612,-1.389219 l 0.9124,-0.76801 -0.007,1.27772 c -0.0163,3.036896 -0.67825,4.523561 -2.2471,5.046812 -0.59923,0.199866 -3.127272,0.267584 -4.20085,0.11254 z m 13.814494,-0.403777 c 0.0376,-0.119823 0.21587,-0.922014 0.39627,-1.782653 0.18039,-0.860645 0.44845,-2.122265 0.59569,-2.8036 0.14725,-0.681348 0.41102,-1.922248 0.58617,-2.757561 0.17515,-0.83532 0.35455,-1.612831 0.39867,-1.727805 0.0726,-0.189153 -0.32378,-0.209043 -4.1659,-0.209043 h -4.2461 l 0.30813,-0.814996 c 0.16948,-0.448255 0.84798,-1.959265 1.50779,-3.357808 1.84575,-3.912329 2.52156,-5.652839 2.94486,-7.584376 0.22252,-1.015381 0.30244,-3.733466 0.12553,-4.269383 -0.10253,-0.310602 -0.0974,-0.312636 0.58838,-0.23142 0.3805,0.04507 1.00393,0.23464 1.38541,0.421275 1.74237,0.852464 2.17274,2.747643 1.25695,5.535102 -0.46727,1.422282 -1.03317,2.402034 -3.4221,5.924739 -0.58049,0.855987 -1.05544,1.633498 -1.05544,1.727804 0,0.136102 0.55077,0.171461 2.67072,0.171461 2.66387,0 2.67088,-6.58e-4 2.73426,-0.293402 0.0349,-0.161368 0.27386,-1.290958 0.53092,-2.510198 0.25706,-1.219242 0.63749,-3.008982 0.84541,-3.977203 0.20792,-0.968221 0.59573,-2.787303 0.8618,-4.042402 0.26608,-1.255102 0.49772,-2.30052 0.51476,-2.323156 0.0228,-0.03026 4.76085,-0.67272 4.98243,-0.675591 0.036,-5.03e-4 -0.025,0.32218 -0.234,1.238346 -0.0655,0.286878 -0.27055,1.255099 -0.45578,2.1516 -0.18524,0.896502 -0.38957,1.864721 -0.45408,2.151601 -0.785,3.491319 -1.69483,7.799757 -1.69483,8.025836 0,0.231277 0.0954,0.254569 1.0432,0.254569 0.57376,0 1.04197,0.01467 1.04046,0.03257 -10e-4,0.0179 -0.14068,0.560716 -0.30927,1.206198 l -0.30652,1.173602 -1.05023,0.0377 -1.05022,0.0377 -0.14806,0.679479 c -0.0814,0.373721 -0.28956,1.354308 -0.46251,2.179087 -0.17295,0.82478 -0.55051,2.614525 -0.83903,3.977202 -0.28852,1.362684 -0.52486,2.523693 -0.5252,2.580028 -5e-4,0.05632 -1.11802,0.09569 -2.48373,0.08745 -2.25627,-0.01362 -2.47686,-0.03487 -2.41481,-0.232823 z m 6.53571,-28.072787 c -0.34026,-0.404386 -0.36052,-0.494059 -0.30508,-1.350321 0.1309,-2.021539 1.16782,-3.158798 2.62999,-2.884494 0.52343,0.0982 0.80541,0.617676 0.66999,1.234263 -0.11304,0.51467 -0.95985,1.26887 -1.6261,1.448274 -0.44127,0.118819 -0.52899,0.197092 -0.52899,0.471989 0,0.797912 0.59963,1.125246 1.38157,0.75419 0.85588,-0.406139 1.24793,-1.237886 1.57581,-3.34319 l 0.0762,-0.489001 h 0.69594 c 0.56504,0 0.68182,0.03679 0.62088,0.1956 -0.0944,0.246035 0.0731,0.244304 0.40156,-0.0041 0.37077,-0.280435 1.11169,-0.241039 1.45036,0.07712 l 0.28587,0.268568 0.43973,-0.268083 c 0.59517,-0.362848 1.29724,-0.352404 1.63637,0.02434 0.42657,0.473903 0.44161,0.685741 0.1461,2.058886 -0.30479,1.416401 -0.25306,1.658142 0.32392,1.513331 0.29055,-0.07292 0.32257,-0.159064 0.38987,-1.04895 0.13208,-1.746426 0.86257,-2.803931 2.01237,-2.913248 0.50299,-0.04782 0.69573,-0.004 0.9841,0.223621 0.89522,0.706711 0.0321,2.163074 -1.4996,2.530344 -0.29178,0.06996 -0.3586,0.158426 -0.3586,0.474702 0,0.562461 0.43996,0.959244 0.95043,0.857151 0.22091,-0.04418 0.49815,-0.167655 0.61608,-0.274383 0.52042,-0.470967 0.52787,-0.05157 0.008,0.467978 -0.33659,0.336592 -0.47268,0.38117 -1.16359,0.38117 -0.63527,0 -0.85227,-0.05876 -1.15372,-0.31241 l -0.37127,-0.312409 -0.3632,0.312409 c -0.46707,0.401757 -1.27721,0.427055 -1.65266,0.05161 -0.30645,-0.306457 -0.32021,-0.693452 -0.0626,-1.760401 0.35571,-1.473181 0.192,-2.157141 -0.45874,-1.916421 -0.23038,0.08522 -0.30633,0.234082 -0.35029,0.686618 -0.0309,0.317789 -0.18568,1.164601 -0.34402,1.881801 l -0.28788,1.304003 -0.66179,0.0387 -0.6618,0.03869 0.16133,-0.755891 c 0.65085,-3.049486 0.62143,-2.793002 0.35125,-3.063185 -0.1934,-0.193397 -0.31641,-0.22033 -0.56855,-0.12447 -0.2888,0.109802 -0.35875,0.293991 -0.68315,1.798644 -0.19877,0.921975 -0.39118,1.779008 -0.42758,1.904518 -0.0513,0.177033 -0.20855,0.228199 -0.70118,0.228199 h -0.63502 l 0.0778,-0.479232 0.0778,-0.479235 -0.54858,0.440848 c -0.46441,0.373211 -0.67413,0.448846 -1.36684,0.492954 -0.79312,0.0505 -0.82945,0.03879 -1.18273,-0.381047 z m 1.59639,-1.993337 c 0.51938,-0.26858 0.81021,-0.641751 0.89175,-1.144227 0.0892,-0.549912 -0.1855,-0.854104 -0.58049,-0.642713 -0.25536,0.136665 -0.72291,1.001778 -0.88028,1.628799 -0.0984,0.39215 0.0414,0.431001 0.56902,0.158141 z m 10.58319,-0.01075 c 0.53798,-0.2782 0.91784,-0.820462 0.91784,-1.310241 0,-0.441462 -0.22954,-0.637017 -0.5868,-0.499925 -0.19035,0.07305 -0.978,1.570064 -0.978,1.858803 0,0.196486 0.20236,0.181273 0.64696,-0.04864 z m -11.32658,-4.266289 -1.09521,-0.658966 0.50841,-0.43518 c 0.27962,-0.239351 0.53882,-0.437387 0.576,-0.44008 0.0372,-0.0027 0.35992,0.23689 0.7172,0.532406 0.35729,0.295518 0.79089,0.648645 0.96355,0.784727 l 0.31395,0.247427 -0.30408,0.323672 c -0.16723,0.178021 -0.36719,0.319463 -0.44434,0.314316 -0.0771,-0.0051 -0.63311,-0.305891 -1.23548,-0.668322 z" />
</svg>
