<?xml version="1.0" encoding="UTF-8" standalone="no"?>
<!-- Created with Inkscape (http://www.inkscape.org/) -->

<svg
   width="210mm"
   height="148mm"
   viewBox="0 0 210 148"
   version="1.1"
   id="svg3"
   sodipodi:docname="24eme.svg"
   inkscape:version="1.1.2 (0a00cf5339, 2022-02-04)"
   xmlns:inkscape="http://www.inkscape.org/namespaces/inkscape"
   xmlns:sodipodi="http://sodipodi.sourceforge.net/DTD/sodipodi-0.dtd"
   xmlns="http://www.w3.org/2000/svg"
   xmlns:svg="http://www.w3.org/2000/svg">
  <sodipodi:namedview
     id="namedview5"
     pagecolor="#ffffff"
     bordercolor="#666666"
     borderopacity="1.0"
     inkscape:showpageshadow="2"
     inkscape:pageopacity="0.0"
     inkscape:pagecheckerboard="0"
     inkscape:deskcolor="#d1d1d1"
     inkscape:document-units="mm"
     showgrid="false"
     inkscape:zoom="1.0427422"
     inkscape:cx="390.7965"
     inkscape:cy="331.81739"
     inkscape:window-width="1366"
     inkscape:window-height="693"
     inkscape:window-x="0"
     inkscape:window-y="0"
     inkscape:window-maximized="1"
     inkscape:current-layer="svg3"
     inkscape:pageshadow="2" />
  <defs
     id="defs7" />
  <path
     id="path2"
     style="fill:#000000;stroke-width:0.091173"
     d="M 102.3386,91.809621 C 94.010202,90.659706 87.302953,84.67437 85.483397,76.76858 85.04196,74.850661 84.869223,71.903226 85.107086,70.348183 c 0.469547,-3.069549 1.16223,-5.155503 2.439575,-7.346607 1.100995,-1.888598 2.814935,-3.9161 4.482415,-5.302446 2.595952,-2.158281 6.009076,-3.731982 9.352214,-4.312063 3.4071,-0.591165 6.476,-0.390711 9.91547,0.647615 0.33849,0.102225 0.63353,0.215051 0.65573,0.250752 0.0214,0.03562 -0.17304,0.301765 -0.43335,0.591234 l -0.47316,0.526324 -0.96107,-0.271242 c -3.23591,-0.913279 -6.63266,-0.928762 -10.02567,-0.0457 -4.281182,1.114264 -8.229927,3.930368 -10.707196,7.63599 -1.955616,2.925285 -2.96334,6.260212 -2.96334,9.806843 0,4.465322 1.552031,8.453213 4.634686,11.908563 0.851079,0.953986 0.85934,0.961797 2.091001,1.971169 2.521094,2.066119 5.410961,3.337432 9.087499,3.997796 0.84697,0.152119 3.71103,0.211357 4.74446,0.09813 7.13872,-0.78218 13.08223,-5.266013 15.58484,-11.757442 1.4061,-3.646826 1.5028,-7.992035 0.26029,-11.706218 l -0.26081,-0.779907 0.50834,-0.566591 0.50834,-0.566605 0.24765,0.631185 c 0.37259,0.949726 0.76959,2.400561 0.99143,3.624376 0.26736,1.473745 0.28731,4.506896 0.0394,6.017574 -0.68176,4.159276 -2.50866,7.71871 -5.47588,10.668649 -2.63387,2.618801 -5.92613,4.481679 -9.35282,5.292301 -0.32604,0.07714 -0.67481,0.160537 -0.77511,0.185384 -1.43611,0.355721 -5.17521,0.498224 -6.88367,0.262329 z M 99.740125,81.48848 c -0.150435,-0.02181 -0.841523,-0.178659 -1.535733,-0.348734 -0.792382,-0.194103 -1.606875,-0.328842 -2.188196,-0.362 -0.906127,-0.05157 -0.942605,-0.04592 -1.697968,0.266669 -0.424558,0.175698 -0.793817,0.29741 -0.820565,0.270502 -0.108052,-0.108742 -0.01624,-1.582739 0.130233,-2.089585 0.301194,-1.042661 1.211517,-2.481104 2.289162,-3.617197 0.247261,-0.26067 0.942041,-0.9894 1.543944,-1.61941 2.670218,-2.79489 3.564248,-4.302091 3.881468,-6.543772 0.18272,-1.29072 -0.0822,-2.143608 -0.82023,-2.640959 -0.543565,-0.366311 -1.605588,-0.251147 -2.124838,0.230416 -0.665699,0.617337 -0.653005,2.147393 0.02369,2.858777 0.380035,0.399489 0.361392,0.441496 -0.362261,0.815795 -0.590107,0.305235 -1.349243,0.340429 -1.805974,0.08367 -0.700578,-0.393733 -1.040176,-1.299128 -0.895733,-2.388036 0.179798,-1.355259 1.290662,-2.423397 2.988591,-2.873665 0.709298,-0.188072 2.892425,-0.217146 3.618135,-0.04821 2.00897,0.467813 2.92868,1.788202 2.80795,4.031432 -0.13759,2.55741 -1.35748,4.285953 -5.195055,7.36086 -0.611251,0.489793 -1.456365,1.218745 -1.878038,1.619918 -0.740551,0.70457 -1.509474,1.585353 -1.442492,1.652342 0.01798,0.01796 0.398825,0.07216 0.846472,0.120483 0.447647,0.04845 1.306258,0.151038 1.908003,0.228138 2.46561,0.315958 3.27927,0.144312 4.60465,-0.971346 l 0.63804,-0.536975 -0.006,0.893362 c -0.012,2.123397 -0.47423,3.162865 -1.5712,3.528728 -0.41899,0.139741 -2.18658,0.187098 -2.937221,0.07864 z m 9.658995,-0.282334 c 0.0256,-0.08372 0.15088,-0.644673 0.27719,-1.246416 0.126,-0.601754 0.31359,-1.483892 0.41646,-1.960277 0.10286,-0.476393 0.2874,-1.344025 0.40976,-1.92808 0.12253,-0.584041 0.24792,-1.127675 0.27888,-1.208062 0.0511,-0.132271 -0.22643,-0.146169 -2.91279,-0.146169 h -2.96899 l 0.21545,-0.569838 c 0.11862,-0.313431 0.59297,-1.369927 1.05436,-2.347779 1.29047,-2.735489 1.76308,-3.952454 2.05908,-5.302984 0.15549,-0.709946 0.21133,-2.610406 0.088,-2.985133 -0.071,-0.217175 -0.0679,-0.218586 0.41131,-0.161803 0.26614,0.03145 0.70207,0.164063 0.96878,0.294542 1.21818,0.596044 1.51903,1.921162 0.87872,3.870128 -0.32657,0.994468 -0.72232,1.6795 -2.3927,4.142574 -0.40573,0.59849 -0.73781,1.142127 -0.73781,1.208082 0,0.09511 0.3851,0.119881 1.86722,0.119881 1.86255,0 1.86747,-4.61e-4 1.91179,-0.205147 0.0236,-0.112832 0.19143,-0.902636 0.37122,-1.755131 0.17976,-0.852485 0.44587,-2.10387 0.59121,-2.780841 0.14525,-0.676988 0.41643,-1.948874 0.60261,-2.826439 0.18592,-0.877563 0.348,-1.608521 0.35989,-1.624335 0.0165,-0.02119 3.32871,-0.470384 3.48364,-0.472384 0.0244,-3.56e-4 -0.0183,0.225263 -0.16352,0.865854 -0.0464,0.200571 -0.18933,0.877561 -0.31869,1.504393 -0.12956,0.626831 -0.2724,1.303795 -0.31753,1.504396 -0.54899,2.441103 -1.18514,5.453564 -1.18514,5.611641 0,0.161712 0.0661,0.177993 0.72948,0.177993 0.40122,0 0.72856,0.01012 0.72751,0.02274 -8.1e-4,0.01257 -0.0983,0.392049 -0.2163,0.843366 l -0.21423,0.820572 -0.73444,0.02629 -0.73424,0.02634 -0.10346,0.475098 c -0.0576,0.261297 -0.20259,0.946921 -0.32353,1.523611 -0.12085,0.57668 -0.38484,1.828064 -0.58666,2.780843 -0.20158,0.95279 -0.36682,1.764556 -0.36708,1.803955 -4.5e-4,0.03933 -0.7818,0.06689 -1.73672,0.06116 -1.57753,-0.01002 -1.73183,-0.02446 -1.68846,-0.162788 z M 113.969,61.577735 c -0.238,-0.282752 -0.25208,-0.345452 -0.21349,-0.944132 0.0917,-1.413469 0.81668,-2.208636 1.83895,-2.01683 0.36607,0.06871 0.56323,0.431863 0.46848,0.862977 -0.0788,0.359872 -0.67118,0.887186 -1.13694,1.012646 -0.30848,0.08304 -0.36986,0.137791 -0.36986,0.330009 0,0.557887 0.41916,0.786776 0.96586,0.527329 0.59859,-0.283986 0.87258,-0.865537 1.10189,-2.337557 l 0.0537,-0.34191 h 0.48655 c 0.39502,0 0.47676,0.02581 0.43408,0.136767 -0.0653,0.172025 0.0512,0.170812 0.28071,-0.0036 0.2593,-0.196077 0.77743,-0.168534 1.01422,0.05396 l 0.19984,0.187776 0.30753,-0.187439 c 0.41617,-0.25371 0.90692,-0.246399 1.14417,0.01703 0.29809,0.331355 0.30871,0.479477 0.102,1.439572 -0.21297,0.990345 -0.17686,1.159367 0.22658,1.058113 0.20319,-0.05096 0.22544,-0.111219 0.27258,-0.733414 0.0926,-1.2211 0.60311,-1.960507 1.40706,-2.036941 0.35174,-0.0335 0.48633,-0.0035 0.68805,0.156353 0.62585,0.494136 0.0213,1.512415 -1.04846,1.769209 -0.204,0.049 -0.25072,0.110769 -0.25072,0.33191 0,0.393271 0.30757,0.670703 0.66442,0.599322 0.15456,-0.03085 0.34827,-0.117228 0.43081,-0.191845 0.36391,-0.329302 0.36904,-0.03607 0.008,0.327211 -0.23527,0.235332 -0.33056,0.266506 -0.81361,0.266506 -0.44417,0 -0.59591,-0.04112 -0.80666,-0.218432 l -0.25956,-0.218437 -0.25396,0.218437 c -0.32657,0.2809 -0.893,0.298592 -1.15559,0.03611 -0.21417,-0.21427 -0.2239,-0.484862 -0.0446,-1.230871 0.24883,-1.030037 0.13445,-1.508263 -0.32066,-1.339957 -0.16098,0.05949 -0.21421,0.163672 -0.24483,0.480085 -0.0218,0.222205 -0.12991,0.814285 -0.24059,1.315759 l -0.2013,0.911744 -0.46271,0.02703 -0.46277,0.02702 0.11274,-0.528513 c 0.45514,-2.132193 0.43466,-1.95286 0.24572,-2.141769 -0.13518,-0.135225 -0.22135,-0.154054 -0.39767,-0.08701 -0.20178,0.07682 -0.25076,0.205561 -0.47747,1.257606 -0.13908,0.644647 -0.27359,1.243886 -0.29904,1.331632 -0.0351,0.123786 -0.14581,0.159559 -0.4903,0.159559 h -0.444 l 0.0551,-0.335081 0.0549,-0.335074 -0.38363,0.308233 c -0.32467,0.260955 -0.47136,0.313838 -0.95571,0.344677 -0.55451,0.03527 -0.57996,0.0271 -0.82693,-0.266427 z m 1.11612,-1.393732 c 0.36322,-0.187795 0.5664,-0.448708 0.62357,-0.800037 0.0613,-0.384504 -0.12978,-0.597184 -0.40598,-0.449393 -0.17845,0.09553 -0.50537,0.700441 -0.6155,1.138856 -0.0684,0.274199 0.0288,0.301361 0.39791,0.110574 z m 7.39981,-0.0079 c 0.37607,-0.194519 0.6416,-0.573664 0.6416,-0.916119 0,-0.308668 -0.16053,-0.445402 -0.41013,-0.349544 -0.13322,0.05105 -0.68384,1.097781 -0.68384,1.29967 0,0.137377 0.14144,0.126744 0.45237,-0.03397 z m -7.91953,-2.982983 -0.76593,-0.460746 0.35553,-0.304273 c 0.19549,-0.167359 0.37674,-0.305826 0.40289,-0.307705 0.0253,-0.0024 0.25164,0.165636 0.50132,0.372254 0.24985,0.206632 0.55309,0.453532 0.67379,0.548684 l 0.21953,0.172995 -0.2127,0.226312 c -0.1169,0.124471 -0.25678,0.223368 -0.31062,0.219771 -0.0546,-0.0044 -0.44275,-0.213877 -0.86381,-0.467292 z" />
</svg>
