<?xml version="1.0" encoding="UTF-8" standalone="no"?>
<!-- Created with Inkscape (http://www.inkscape.org/) -->

<svg
   width="210mm"
   height="148mm"
   viewBox="0 0 210 148"
   version="1.1"
   id="svg3"
   xmlns="http://www.w3.org/2000/svg"
   xmlns:svg="http://www.w3.org/2000/svg">
  <defs
     id="defs7" />
  <path
     id="path2"
     style="fill:#000000;stroke-width:0.111322"
     d="M 101.75055,95.446771 C 91.581851,94.042763 83.392506,86.734872 81.170887,77.082187 80.631929,74.74047 80.421008,71.141737 80.711438,69.2431 c 0.573307,-3.747817 1.419041,-6.294691 2.978642,-8.969975 1.344263,-2.305897 3.436934,-4.781409 5.472876,-6.474096 3.169572,-2.63519 7.336869,-4.556628 11.418704,-5.264878 4.1599,-0.72179 7.90697,-0.477055 12.10644,0.790715 0.41337,0.124792 0.77363,0.262561 0.80056,0.306153 0.0269,0.04358 -0.21107,0.368439 -0.52893,0.721883 l -0.57793,0.642626 -1.17336,-0.331172 c -3.9509,-1.115099 -8.09822,-1.13399 -12.240945,-0.05575 -5.227172,1.360487 -10.048449,4.798848 -13.073119,9.323282 -2.387737,3.571685 -3.618127,7.643527 -3.618127,11.973826 0,5.452017 1.894985,10.32109 5.658781,14.539965 1.039142,1.16478 1.049241,1.174301 2.553054,2.406725 3.078172,2.522654 6.606591,4.074882 11.095476,4.881168 1.03416,0.185739 4.53102,0.25807 5.79294,0.119805 8.71607,-0.955025 15.97282,-6.429624 19.02855,-14.355436 1.71669,-4.452645 1.83468,-9.758001 0.31787,-14.292905 l -0.3185,-0.952228 0.62069,-0.691798 0.62067,-0.691796 0.30237,0.770656 c 0.45494,1.159583 0.93949,2.930996 1.21047,4.425234 0.3263,1.7994 0.35066,5.502767 0.0483,7.347255 -0.83243,5.078338 -3.06302,9.424277 -6.68571,13.026051 -3.21604,3.197466 -7.23572,5.471975 -11.41964,6.461732 -0.39797,0.09414 -0.82378,0.195998 -0.94623,0.22633 -1.75349,0.434341 -6.31881,0.608333 -8.40481,0.320304 z M 98.577875,82.845009 c -0.18368,-0.02651 -1.02746,-0.218128 -1.87507,-0.425774 -0.967478,-0.237006 -1.961937,-0.401525 -2.67173,-0.44199 -1.106346,-0.06307 -1.150872,-0.05606 -2.073139,0.325577 -0.518382,0.214516 -0.969236,0.363137 -1.001899,0.330267 -0.131923,-0.132748 -0.01977,-1.932447 0.159018,-2.551292 0.367749,-1.273052 1.479233,-3.029347 2.794998,-4.41647 0.301894,-0.318274 1.150194,-1.208036 1.885092,-1.977254 3.26024,-3.41246 4.351815,-5.252707 4.739175,-7.989715 0.22306,-1.575935 -0.10036,-2.617271 -1.001495,-3.224541 -0.66368,-0.44725 -1.96037,-0.306635 -2.59438,0.281335 -0.81278,0.753763 -0.79728,2.621902 0.029,3.490467 0.46402,0.487777 0.44124,0.539069 -0.44231,0.996074 -0.720492,0.372674 -1.647383,0.415645 -2.205037,0.102227 -0.855373,-0.480742 -1.270011,-1.586206 -1.093646,-2.915719 0.21951,-1.65472 1.575843,-2.958896 3.648953,-3.50864 0.86604,-0.229649 3.531595,-0.265133 4.417625,-0.05881 2.45282,0.571189 3.57572,2.183341 3.42842,4.922245 -0.16795,3.122497 -1.65746,5.233006 -6.342985,8.987361 -0.74632,0.598009 -1.77818,1.488046 -2.29302,1.977865 -0.9042,0.860249 -1.843026,1.935647 -1.761236,2.017444 0.0219,0.02185 0.486952,0.08807 1.033508,0.147116 0.546568,0.05906 1.594888,0.184391 2.329608,0.278539 3.010405,0.385775 4.003835,0.176208 5.622105,-1.185971 l 0.77892,-0.655647 -0.006,1.090784 c -0.014,2.592587 -0.57901,3.861747 -1.91833,4.308444 -0.51157,0.170626 -2.669735,0.228436 -3.586245,0.09608 z m 11.793375,-0.344702 c 0.0321,-0.102291 0.18428,-0.787121 0.3383,-1.521845 0.15399,-0.734729 0.38283,-1.811769 0.50852,-2.393423 0.12572,-0.581663 0.3509,-1.641015 0.50043,-2.354119 0.14952,-0.713109 0.30268,-1.376867 0.34034,-1.47502 0.0619,-0.16148 -0.27641,-0.178459 -3.55642,-0.178459 h -3.62488 l 0.26305,-0.695759 c 0.14469,-0.382673 0.72392,-1.672617 1.2872,-2.866549 1.57571,-3.339939 2.15264,-4.825806 2.51402,-6.474752 0.18996,-0.866827 0.25818,-3.187245 0.10712,-3.644755 -0.0875,-0.26516 -0.0832,-0.266897 0.5023,-0.197563 0.32483,0.03848 0.85705,0.200312 1.18273,0.359641 1.48744,0.727745 1.85485,2.345653 1.07305,4.725295 -0.39892,1.214197 -0.88203,2.050607 -2.92144,5.057928 -0.49557,0.730752 -0.90102,1.39451 -0.90102,1.475018 0,0.11619 0.47019,0.146377 2.27998,0.146377 2.27413,0 2.28012,-5.63e-4 2.33422,-0.250477 0.0298,-0.137759 0.2338,-1.102086 0.45325,-2.142946 0.21946,-1.040862 0.54423,-2.568757 0.72173,-3.395323 0.17749,-0.826567 0.50857,-2.37951 0.73571,-3.450983 0.22715,-1.071476 0.4249,-1.963946 0.43945,-1.983269 0.0194,-0.02584 4.06432,-0.574299 4.25347,-0.57675 0.0307,-4.29e-4 -0.0214,0.275044 -0.19975,1.05717 -0.0559,0.244907 -0.23098,1.071474 -0.3891,1.836814 -0.15814,0.76534 -0.33257,1.591905 -0.38765,1.836813 -0.67014,2.980525 -1.44687,6.658622 -1.44687,6.851626 0,0.197439 0.0814,0.217325 0.89058,0.217325 0.48981,0 0.88952,0.01253 0.88823,0.0278 -8.5e-4,0.01528 -0.12009,0.47868 -0.26402,1.029727 l -0.26167,1.001899 -0.89658,0.03219 -0.89657,0.03218 -0.1264,0.58007 c -0.0694,0.319043 -0.24719,1.156166 -0.39484,1.860278 -0.14765,0.704111 -0.46997,2.232009 -0.71628,3.395322 -0.2463,1.163318 -0.44808,2.154467 -0.44835,2.20256 -4.4e-4,0.04808 -0.95446,0.08168 -2.12036,0.07466 -1.92617,-0.01162 -2.11449,-0.02976 -2.06152,-0.198761 z m 5.57951,-23.965631 c -0.29048,-0.345223 -0.30777,-0.421777 -0.26045,-1.152765 0.11175,-1.725779 0.99697,-2.696654 2.24522,-2.462481 0.44684,0.08384 0.68756,0.527308 0.57196,1.053686 -0.0965,0.439372 -0.81943,1.083229 -1.38819,1.236386 -0.37672,0.101433 -0.45161,0.168256 -0.45161,0.402935 0,0.681175 0.51191,0.960618 1.17946,0.64385 0.73065,-0.34672 1.06534,-1.056779 1.34526,-2.854069 l 0.065,-0.417458 h 0.59413 c 0.48237,0 0.58206,0.03141 0.53003,0.166982 -0.0806,0.210039 0.0624,0.208561 0.34281,-0.0035 0.31653,-0.239406 0.94905,-0.205774 1.23818,0.06583 l 0.24404,0.229275 0.3754,-0.228861 c 0.5081,-0.309763 1.10744,-0.300846 1.39697,0.02078 0.36416,0.40457 0.37699,0.585415 0.12471,1.757664 -0.26019,1.209177 -0.21603,1.415549 0.27654,1.291925 0.24805,-0.06226 0.27537,-0.135793 0.33282,-0.895485 0.11277,-1.490916 0.73638,-2.393705 1.71796,-2.487028 0.4294,-0.04082 0.59393,-0.0034 0.84012,0.190905 0.76424,0.603316 0.0274,1.846607 -1.28021,2.160144 -0.24908,0.05973 -0.30612,0.135248 -0.30612,0.405252 0,0.48017 0.37558,0.818902 0.81137,0.731746 0.18859,-0.03772 0.42527,-0.143127 0.52594,-0.23424 0.44429,-0.402063 0.45065,-0.04402 0.008,0.399511 -0.28735,0.287348 -0.40353,0.325404 -0.99336,0.325404 -0.54232,0 -0.72758,-0.05017 -0.98493,-0.266703 l -0.31694,-0.266703 -0.31006,0.266703 c -0.39875,0.342977 -1.09036,0.364574 -1.41087,0.04406 -0.26162,-0.261622 -0.27337,-0.591998 -0.0535,-1.502848 0.30368,-1.257649 0.16392,-1.841543 -0.39161,-1.636042 -0.19669,0.07275 -0.26153,0.199836 -0.29905,0.586164 -0.0264,0.271296 -0.15852,0.994216 -0.2937,1.606486 l -0.24575,1.113223 -0.56498,0.03304 -0.56496,0.03303 0.13772,-0.645301 c 0.55564,-2.603334 0.53052,-2.384376 0.29987,-2.615029 -0.16512,-0.165102 -0.27013,-0.188095 -0.48538,-0.106263 -0.24655,0.09375 -0.30626,0.25098 -0.5832,1.535494 -0.16969,0.787088 -0.33394,1.518734 -0.36502,1.625881 -0.0438,0.151132 -0.17805,0.194813 -0.5986,0.194813 h -0.54211 l 0.0664,-0.40912 0.0664,-0.40912 -0.46832,0.376351 c -0.39647,0.318608 -0.57549,0.383177 -1.16686,0.420833 -0.67709,0.04311 -0.7081,0.03312 -1.00969,-0.325299 z m 1.36283,-1.701705 c 0.4434,-0.229285 0.69167,-0.54786 0.76128,-0.976823 0.0761,-0.469457 -0.15836,-0.729144 -0.49556,-0.54868 -0.21799,0.116669 -0.61714,0.855213 -0.75149,1.390499 -0.0839,0.334777 0.0353,0.367944 0.48577,0.135004 z m 9.03483,-0.0091 c 0.45927,-0.237497 0.78356,-0.700425 0.78356,-1.118547 0,-0.376876 -0.19597,-0.543819 -0.50095,-0.426785 -0.1625,0.06236 -0.83492,1.340358 -0.83492,1.586854 0,0.167739 0.17275,0.154752 0.55231,-0.04153 z m -9.66945,-3.642114 -0.93498,-0.562557 0.43403,-0.371512 c 0.23871,-0.204333 0.45999,-0.373396 0.49172,-0.375694 0.0318,-0.0023 0.30727,0.202232 0.61228,0.454512 0.30501,0.252284 0.67517,0.553747 0.82257,0.66992 l 0.26802,0.211227 -0.25959,0.276317 c -0.14277,0.151976 -0.31347,0.272724 -0.37933,0.268331 -0.0658,-0.0044 -0.54048,-0.261138 -1.05472,-0.570544 z" />
</svg>
