<?xml version="1.0" encoding="UTF-8" standalone="no"?>
<svg
   width="210mm"
   height="148mm"
   viewBox="0 0 210 148"
   version="1.1"
   id="svg3"
   inkscape:version="1.1.2 (0a00cf5339, 2022-02-04)"
   xmlns="http://www.w3.org/2000/svg"
   xmlns:svg="http://www.w3.org/2000/svg">
  <path
     id="path2"
     style="fill:#000000;stroke-width:0.0797779"
     d="M 102.67122,87.907408 C 95.383932,86.901226 89.515098,81.664056 87.922978,74.746485 c -0.386263,-1.678179 -0.5374,-4.257187 -0.329287,-5.617854 0.410854,-2.685857 1.016979,-4.511069 2.134643,-6.42828 0.963376,-1.652531 2.463075,-3.426588 3.922116,-4.639648 2.271456,-1.888485 5.257949,-3.265485 8.18328,-3.773066 2.98116,-0.517265 5.66653,-0.341861 8.67602,0.566665 0.29602,0.08947 0.55424,0.188174 0.57373,0.219402 0.0187,0.03112 -0.15152,0.264065 -0.37929,0.517334 l -0.41396,0.460541 -0.84083,-0.237339 c -2.83141,-0.7991 -5.80365,-0.812676 -8.77256,-0.04008 -3.746023,0.974972 -7.201185,3.439071 -9.368791,6.681492 -1.711167,2.559626 -2.59294,5.477686 -2.59294,8.580995 0,3.907157 1.358033,7.396566 4.055361,10.419996 0.744702,0.834738 0.751933,0.841574 1.829638,1.724773 2.20595,1.807862 4.734591,2.920262 7.951572,3.49808 0.74117,0.133099 3.24723,0.184929 4.15136,0.08581 6.24651,-0.684406 11.44703,-4.607762 13.63676,-10.287768 1.23039,-3.190973 1.31493,-6.993037 0.22775,-10.242948 l -0.22819,-0.682421 0.4448,-0.495767 0.44479,-0.495779 0.2167,0.552287 c 0.32599,0.831011 0.67343,2.100493 0.86748,3.171333 0.23394,1.289527 0.25141,3.943536 0.0344,5.26538 -0.59654,3.639368 -2.19501,6.753876 -4.79139,9.335076 -2.30465,2.291455 -5.18541,3.921474 -8.1836,4.630767 -0.28546,0.06764 -0.5906,0.140469 -0.67836,0.162214 -1.25656,0.311248 -4.52836,0.435943 -6.02323,0.229534 z m -2.2736,-9.031006 c -0.13163,-0.01917 -0.736328,-0.15633 -1.343766,-0.305145 -0.693333,-0.16984 -1.406015,-0.287734 -1.91467,-0.31675 -0.792859,-0.04507 -0.824778,-0.04022 -1.485729,0.233338 -0.37148,0.153736 -0.694579,0.26023 -0.717987,0.23669 -0.09454,-0.09518 -0.01424,-1.384902 0.113953,-1.828393 0.263543,-0.912325 1.060072,-2.170964 2.003015,-3.165049 0.216353,-0.228083 0.824286,-0.865724 1.350954,-1.416982 2.33643,-2.445531 3.11878,-3.764332 3.39625,-5.725806 0.16,-1.129381 -0.072,-1.875659 -0.71768,-2.31084 -0.47561,-0.320523 -1.404875,-0.219753 -1.859219,0.201615 -0.582485,0.540168 -0.571383,1.878968 0.02069,2.50143 0.332527,0.349553 0.316214,0.386309 -0.316983,0.713821 -0.516342,0.267082 -1.180589,0.297876 -1.580224,0.07317 -0.613011,-0.344516 -0.91016,-1.136739 -0.783773,-2.089532 0.15733,-1.185856 1.129334,-2.120474 2.615024,-2.514464 0.620635,-0.164559 2.530875,-0.190002 3.165875,-0.04221 1.75796,0.409333 2.56267,1.564676 2.45695,3.527504 -0.12039,2.237735 -1.18779,3.750214 -4.54568,6.440758 -0.534839,0.42857 -1.274316,1.066401 -1.643276,1.417428 -0.647984,0.616502 -1.320793,1.387187 -1.262187,1.445803 0.01573,0.01573 0.348973,0.06316 0.740667,0.105417 0.391689,0.04245 1.142976,0.132162 1.669503,0.199627 2.157453,0.276462 2.869393,0.126271 4.029013,-0.849934 l 0.55851,-0.469849 -0.006,0.781686 c -0.012,1.857981 -0.41475,2.767513 -1.37471,3.087646 -0.3665,0.122272 -1.91324,0.163711 -2.57008,0.06864 z m 8.45154,-0.247045 c 0.0207,-0.07322 0.13207,-0.564087 0.24264,-1.090615 0.11021,-0.526533 0.27438,-1.298405 0.36446,-1.715241 0.0888,-0.416844 0.2514,-1.176023 0.35845,-1.687072 0.10734,-0.511037 0.21693,-0.986717 0.24413,-1.057055 0.0461,-0.115737 -0.19827,-0.127898 -2.54873,-0.127898 h -2.59798 l 0.18846,-0.49861 c 0.10397,-0.274253 0.51896,-1.198688 0.92278,-2.054308 1.12904,-2.393554 1.54264,-3.458401 1.80164,-4.640114 0.136,-0.621203 0.18484,-2.28411 0.078,-2.611996 -0.061,-0.190027 -0.0579,-0.191258 0.35983,-0.141573 0.23282,0.02745 0.61427,0.143553 0.84774,0.257719 1.06573,0.521541 1.32907,1.681023 0.76877,3.386368 -0.28564,0.870161 -0.63195,1.469562 -2.0937,3.624757 -0.35484,0.523673 -0.6454,0.999358 -0.6454,1.057069 0,0.08311 0.33687,0.104898 1.63379,0.104898 1.62961,0 1.63399,-4.03e-4 1.67279,-0.179503 0.0192,-0.09874 0.16745,-0.78981 0.32474,-1.535747 0.15726,-0.74592 0.39025,-1.840882 0.51734,-2.433231 0.12712,-0.592367 0.36433,-1.705267 0.52736,-2.473137 0.16255,-0.76787 0.3045,-1.407456 0.31492,-1.421297 0.0157,-0.01869 2.91253,-0.411589 3.0482,-0.413339 0.0194,-3.1e-4 -0.0173,0.197108 -0.14312,0.75763 -0.0414,0.175495 -0.16571,0.767865 -0.27888,1.316341 -0.1133,0.548479 -0.23836,1.140823 -0.27778,1.316346 -0.48043,2.135971 -1.03708,4.771876 -1.03708,4.910193 0,0.141496 0.0561,0.155744 0.63834,0.155744 0.35104,0 0.63744,0.01 0.63662,0.01974 -7.8e-4,0.01107 -0.0874,0.34304 -0.18929,0.737944 l -0.18751,0.718002 -0.64264,0.02293 -0.64247,0.02293 -0.0894,0.415711 c -0.051,0.228636 -0.17724,0.82856 -0.28307,1.33316 -0.10576,0.504595 -0.33676,1.599559 -0.51331,2.433242 -0.17643,0.833691 -0.32093,1.543986 -0.32119,1.57846 -3.9e-4,0.03433 -0.68414,0.05839 -1.51962,0.05366 -1.38038,-0.01 -1.51536,-0.02146 -1.47741,-0.14244 z m 3.99883,-17.17488 c -0.20837,-0.247402 -0.22058,-0.302258 -0.18697,-0.826106 0.0817,-1.236796 0.71466,-1.932563 1.60913,-1.764727 0.32037,0.06021 0.49287,0.37788 0.40993,0.755097 -0.0688,0.314893 -0.58732,0.776287 -0.99485,0.886074 -0.26984,0.07254 -0.3236,0.120563 -0.3236,0.288758 0,0.488155 0.36671,0.68843 0.8451,0.461403 0.52385,-0.248486 0.76354,-0.75734 0.96416,-2.045359 l 0.0487,-0.299163 h 0.42577 c 0.3456,0 0.41713,0.02258 0.37978,0.119668 -0.0553,0.150524 0.0462,0.149462 0.2456,-0.0036 0.22691,-0.171566 0.68031,-0.147468 0.88745,0.04726 l 0.17487,0.1643 0.26913,-0.164007 c 0.36414,-0.221996 0.79354,-0.215599 1.00114,0.01503 0.26077,0.289941 0.27011,0.419544 0.0888,1.259627 -0.18635,0.866553 -0.15474,1.014452 0.19824,0.925852 0.17785,-0.04446 0.19728,-0.0973 0.23854,-0.641739 0.0826,-1.068465 0.52771,-1.715441 1.23118,-1.782323 0.30779,-0.0295 0.42551,-0.0035 0.60203,0.136809 0.54762,0.432368 0.0186,1.323364 -0.91737,1.548058 -0.1785,0.043 -0.21941,0.09689 -0.21941,0.290418 0,0.344115 0.26911,0.586867 0.58138,0.524412 0.13526,-0.02685 0.30474,-0.102575 0.37692,-0.167866 0.31844,-0.288134 0.32296,-0.03157 0.008,0.286311 -0.20588,0.205913 -0.28923,0.233188 -0.7119,0.233188 -0.38864,0 -0.52143,-0.03612 -0.70584,-0.191127 l -0.22712,-0.191131 -0.22219,0.191131 c -0.28576,0.245789 -0.78138,0.261276 -1.01115,0.03161 -0.18741,-0.18748 -0.1959,-0.424257 -0.0396,-1.077014 0.21779,-0.901283 0.11768,-1.319727 -0.28056,-1.172461 -0.14084,0.05199 -0.18742,0.143215 -0.21421,0.420078 -0.0185,0.194423 -0.11364,0.712496 -0.21055,1.151285 l -0.17607,0.797775 -0.40494,0.02353 -0.40492,0.02352 0.0986,-0.462449 c 0.39825,-1.865672 0.38035,-1.708754 0.21506,-1.874049 -0.11831,-0.118322 -0.19371,-0.134796 -0.34802,-0.07601 -0.17654,0.06732 -0.21937,0.179868 -0.41775,1.100409 -0.12172,0.564067 -0.23936,1.088401 -0.26169,1.165175 -0.0301,0.108319 -0.12753,0.139616 -0.42897,0.139616 h -0.3885 l 0.0498,-0.293197 0.0498,-0.293185 -0.33569,0.2697 c -0.28404,0.22834 -0.4124,0.274609 -0.83623,0.301594 -0.48516,0.03077 -0.50746,0.0236 -0.72357,-0.233124 z m 0.9766,-1.219507 c 0.31774,-0.164323 0.49544,-0.392626 0.54559,-0.700031 0.0532,-0.33644 -0.11363,-0.522538 -0.35529,-0.393225 -0.15614,0.08353 -0.44213,0.612889 -0.53861,0.996504 -0.0584,0.239922 0.0238,0.263692 0.34831,0.09671 z m 6.47482,-0.0079 c 0.32904,-0.170207 0.56132,-0.501958 0.56132,-0.801606 0,-0.270083 -0.1405,-0.389725 -0.35884,-0.305849 -0.1166,0.04455 -0.59834,0.960558 -0.59834,1.137212 0,0.120205 0.12368,0.110899 0.39586,-0.02969 z m -6.9296,-2.610113 -0.67033,-0.403154 0.31114,-0.266238 c 0.17106,-0.146441 0.32962,-0.267597 0.35255,-0.269243 0.0204,-0.0024 0.22023,0.144932 0.43861,0.325725 0.21876,0.180802 0.48401,0.39684 0.5897,0.480098 l 0.19204,0.151369 -0.18619,0.198026 c -0.10226,0.108912 -0.22466,0.195445 -0.27167,0.192297 -0.0495,-0.0044 -0.38751,-0.187142 -0.75585,-0.40888 z" />
</svg>
