<?xml version="1.0" encoding="UTF-8" standalone="no"?>
<!-- Created with Inkscape (http://www.inkscape.org/) -->

<svg
   width="210mm"
   height="148mm"
   viewBox="0 0 210 148"
   version="1.1"
   id="svg5"
   inkscape:version="1.2.2 (b0a8486541, 2022-12-01)"
   sodipodi:docname="reperes_transparent.svg"
   xmlns:inkscape="http://www.inkscape.org/namespaces/inkscape"
   xmlns:sodipodi="http://sodipodi.sourceforge.net/DTD/sodipodi-0.dtd"
   xmlns="http://www.w3.org/2000/svg"
   xmlns:svg="http://www.w3.org/2000/svg">
  <defs
     id="defs1324" />
  <sodipodi:namedview
     id="namedview1322"
     pagecolor="#ffffff"
     bordercolor="#666666"
     borderopacity="1.0"
     inkscape:showpageshadow="2"
     inkscape:pageopacity="0.0"
     inkscape:pagecheckerboard="0"
     inkscape:deskcolor="#d1d1d1"
     inkscape:document-units="mm"
     showgrid="false"
     inkscape:zoom="4.0462822"
     inkscape:cx="698.04819"
     inkscape:cy="66.60435"
     inkscape:window-width="1920"
     inkscape:window-height="1046"
     inkscape:window-x="0"
     inkscape:window-y="0"
     inkscape:window-maximized="1"
     inkscape:current-layer="svg5" />
  <path
     id="path599-6"
     style="fill:#d6c200;fill-opacity:1;fill-rule:evenodd;stroke:none;stroke-width:0;stroke-dasharray:none"
     d="m 6.196525,0.467672 v 2.71818 c -1.27861,0.141229 -2.29809,1.16134 -2.43861,2.440161 h -2.71767 v 0.605131 h 2.71767 c 0.14052,1.27882 1.16,2.298932 2.43861,2.440161 v 2.71818 h 0.6072 v -2.71818 c 1.27932,-0.140582 2.29958,-1.160838 2.44016,-2.440161 h 2.71611 V 5.626013 H 9.243885 C 9.103305,4.34669 8.083045,3.326434 6.803725,3.185852 v -2.71818 z m 0.6072,3.329512 c 0.94907,0.132528 1.69577,0.879757 1.82831,1.828829 H 7.145305 A 0.71262825,0.71262825 0 0 0 6.803725,5.283915 Z m -0.6072,5.17e-4 v 1.486214 a 0.71262825,0.71262825 0 0 0 -0.34158,0.342098 h -1.48518 c 0.13247,-0.948541 0.87844,-1.695172 1.82676,-1.828312 z m -1.82676,2.433443 h 1.48569 a 0.71262825,0.71262825 0 0 0 0.34107,0.342098 V 8.059456 C 5.248205,7.926316 4.502235,7.179685 4.369765,6.231144 Z m 2.77502,0 h 1.48725 C 8.499495,7.180216 7.752795,7.927445 6.803725,8.059973 V 6.573242 a 0.71262825,0.71262825 0 0 0 0.34106,-0.342098 z"
     inkscape:label="cible haut gauche" />
  <path
     id="path599-6-5"
     style="fill:#d6c200;fill-opacity:1;fill-rule:evenodd;stroke:none;stroke-width:0;stroke-dasharray:none"
     d="m 6.1965255,136.61051 v 2.71818 c -1.27861,0.14123 -2.29809,1.16134 -2.43861,2.44016 h -2.71767 v 0.60514 h 2.71767 c 0.14052,1.27882 1.16,2.29893 2.43861,2.44016 v 2.71818 h 0.6072 v -2.71818 c 1.27932,-0.14059 2.29958,-1.16084 2.44016,-2.44016 h 2.7161105 v -0.60514 H 9.2438855 c -0.14058,-1.27932 -1.16084,-2.29957 -2.44016,-2.44016 v -2.71818 z m 0.6072,3.32952 c 0.94907,0.13252 1.69577,0.87975 1.82831,1.82882 h -1.48673 a 0.71262825,0.71262825 0 0 0 -0.34158,-0.34209 z m -0.6072,5.1e-4 v 1.48622 a 0.71262825,0.71262825 0 0 0 -0.34158,0.34209 h -1.48518 c 0.13247,-0.94854 0.87844,-1.69517 1.82676,-1.82831 z m -1.82676,2.43345 h 1.48569 a 0.71262825,0.71262825 0 0 0 0.34107,0.34209 v 1.48622 c -0.94832,-0.13314 -1.69429,-0.87977 -1.82676,-1.82831 z m 2.77502,0 h 1.48725 c -0.13254,0.94907 -0.87924,1.6963 -1.82831,1.82882 v -1.48673 a 0.71262825,0.71262825 0 0 0 0.34106,-0.34209 z"
     inkscape:label="cible bas gauche" />
  <path
     id="path599-6-5-6"
     style="fill:#d6c200;fill-opacity:1;fill-rule:evenodd;stroke:none;stroke-width:0;stroke-dasharray:none"
     d="m 203.19628,136.61051 v 2.71818 c -1.27861,0.14123 -2.29809,1.16134 -2.43861,2.44016 H 198.04 v 0.60514 h 2.71767 c 0.14052,1.27882 1.16,2.29893 2.43861,2.44016 v 2.71818 h 0.6072 v -2.71818 c 1.27932,-0.14059 2.29958,-1.16084 2.44016,-2.44016 h 2.71612 v -0.60514 h -2.71612 c -0.14058,-1.27932 -1.16084,-2.29957 -2.44016,-2.44016 v -2.71818 z m 0.6072,3.32952 c 0.94907,0.13252 1.69577,0.87975 1.82831,1.82882 h -1.48673 a 0.71262825,0.71262825 0 0 0 -0.34158,-0.34209 z m -0.6072,5.1e-4 v 1.48622 a 0.71262825,0.71262825 0 0 0 -0.34158,0.34209 h -1.48518 c 0.13247,-0.94854 0.87844,-1.69517 1.82676,-1.82831 z m -1.82676,2.43345 h 1.48569 a 0.71262825,0.71262825 0 0 0 0.34107,0.34209 v 1.48622 c -0.94832,-0.13314 -1.69429,-0.87977 -1.82676,-1.82831 z m 2.77502,0 h 1.48725 c -0.13254,0.94907 -0.87924,1.6963 -1.82831,1.82882 v -1.48673 a 0.71262825,0.71262825 0 0 0 0.34106,-0.34209 z"
     inkscape:label="cible bas droite" />
  <path
     id="path599-6-5-6-2"
     style="fill:#d6c200;fill-opacity:1;fill-rule:evenodd;stroke:none;stroke-width:0;stroke-dasharray:none"
     d="m 203.19628,0.4676715 v 2.71818 c -1.27861,0.14123 -2.29809,1.16134 -2.43861,2.44016 H 198.04 v 0.60514 h 2.71767 c 0.14052,1.27882 1.16,2.29893 2.43861,2.44016 v 2.7181775 h 0.6072 V 8.6713115 c 1.27932,-0.14059 2.29958,-1.16084 2.44016,-2.44016 h 2.71612 v -0.60514 h -2.71612 c -0.14058,-1.27932 -1.16084,-2.29957 -2.44016,-2.44016 v -2.71818 z m 0.6072,3.32952 c 0.94907,0.13252 1.69577,0.87975 1.82831,1.82882 h -1.48673 a 0.71262825,0.71262825 0 0 0 -0.34158,-0.34209 z m -0.6072,5.1e-4 v 1.48622 a 0.71262825,0.71262825 0 0 0 -0.34158,0.34209 h -1.48518 c 0.13247,-0.94854 0.87844,-1.69517 1.82676,-1.82831 z m -1.82676,2.43345 h 1.48569 a 0.71262825,0.71262825 0 0 0 0.34107,0.34209 v 1.48622 c -0.94832,-0.13314 -1.69429,-0.87977 -1.82676,-1.82831 z m 2.77502,0 h 1.48725 c -0.13254,0.94907 -0.87924,1.6963 -1.82831,1.82882 v -1.48673 a 0.71262825,0.71262825 0 0 0 0.34106,-0.34209 z"
     inkscape:label="cible haut droite" />
</svg>
