<?xml version="1.0" encoding="UTF-8" standalone="no"?>
<!-- Created with Inkscape (http://www.inkscape.org/) -->

<svg
   width="210mm"
   height="148mm"
   viewBox="0 0 210 148"
   version="1.1"
   id="svg5"
   inkscape:version="1.2.2 (b0a8486541, 2022-12-01)"
   sodipodi:docname="reperes_feuille.svg"
   xmlns:inkscape="http://www.inkscape.org/namespaces/inkscape"
   xmlns:sodipodi="http://sodipodi.sourceforge.net/DTD/sodipodi-0.dtd"
   xmlns="http://www.w3.org/2000/svg"
   xmlns:svg="http://www.w3.org/2000/svg">
  <defs
     id="defs7" />
  <sodipodi:namedview
     id="namedview5"
     pagecolor="#ffffff"
     bordercolor="#666666"
     borderopacity="1.0"
     inkscape:showpageshadow="2"
     inkscape:pageopacity="0.0"
     inkscape:pagecheckerboard="0"
     inkscape:deskcolor="#d1d1d1"
     inkscape:document-units="mm"
     showgrid="false"
     inkscape:zoom="1.2669391"
     inkscape:cx="573.03466"
     inkscape:cy="174.83082"
     inkscape:window-width="1920"
     inkscape:window-height="1046"
     inkscape:window-x="0"
     inkscape:window-y="0"
     inkscape:window-maximized="1"
     inkscape:current-layer="layer1" />
  <g
     inkscape:label="Calque 1"
     inkscape:groupmode="layer"
     id="layer1">
    <path
       id="rect898"
       style="fill:#000000;fill-opacity:1;fill-rule:evenodd;stroke-width:0;stroke:none"
       inkscape:label="Bordure droite"
       d="M 196.5,8.6578695 V 11.44788 13.618807 136.52758 H 210 V 11.44788 H 198.35398 V 8.6578695 Z" />
    <path
       id="rect898-3"
       style="fill:#000000;fill-opacity:1;fill-rule:evenodd;stroke:none;stroke-width:0"
       inkscape:label="Bordure haute"
       d="M 201.97116,0 H 197.84118 194.62763 12.688858 V 13.5 H 197.84118 V 1.85398 h 4.12998 z" />
    <path
       id="rect898-3-6"
       style="fill:#000000;fill-opacity:1;fill-rule:evenodd;stroke:none;stroke-width:0"
       inkscape:label="Bordure basse"
       d="M 8.0007471,148 H 12.132354 15.34717 197.35761 V 134.5 H 12.132354 v 11.64602 H 8.0007471 Z" />
    <rect
       style="fill:#000000;fill-opacity:1;fill-rule:evenodd;stroke-width:0"
       id="rect1370"
       width="13.5"
       height="124.96883"
       x="0"
       y="11.554948"
       inkscape:label="Bordure gauche" />
    <path
       id="path10095"
       style="color:#000000;display:inline;fill:#d6c200;fill-opacity:1;stroke-width:0;stroke-dasharray:none;stroke:none"
       inkscape:label="cible inversée haut gauche"
       d="M 0 0 L 0 11.857157 L 13.00024 11.857157 L 13.00024 0 L 0 0 z M 6.196521 0.46767171 L 6.8037191 0.46767171 L 6.8037191 3.1858521 C 8.0830408 3.3264339 9.1032973 4.3466915 9.2438802 5.6260132 L 11.959993 5.6260132 L 11.959993 6.2311442 L 9.2438802 6.2311442 C 9.1032973 7.5104659 8.0830408 8.5307235 6.8037191 8.6713053 L 6.8037191 11.389486 L 6.196521 11.389486 L 6.196521 8.6713053 C 4.9179113 8.5300765 3.898429 7.5099629 3.7579102 6.2311442 L 1.0402466 6.2311442 L 1.0402466 5.6260132 L 3.7579102 5.6260132 C 3.898429 4.3471935 4.9179113 3.3270809 6.196521 3.1858521 L 6.196521 0.46767171 z M 6.8037191 3.7971842 L 6.8037191 5.2839152 A 0.71262825 0.71262825 0 0 1 7.1453003 5.6260132 L 8.6320312 5.6260132 C 8.4994884 4.6769421 7.7527941 3.9297121 6.8037191 3.7971842 z M 6.196521 3.797701 C 5.2482019 3.9308409 4.502228 4.6774731 4.3697591 5.6260132 L 5.8549398 5.6260132 A 0.71262825 0.71262825 0 0 1 6.196521 5.2839152 L 6.196521 3.797701 z M 4.3697591 6.2311442 C 4.502228 7.1796843 5.2482019 7.9263165 6.196521 8.0594564 L 6.196521 6.5732422 A 0.71262825 0.71262825 0 0 1 5.8554565 6.2311442 L 4.3697591 6.2311442 z M 7.1447835 6.2311442 A 0.71262825 0.71262825 0 0 1 6.8037191 6.5732422 L 6.8037191 8.0599731 C 7.7527941 7.9274453 8.4994884 7.1802153 8.6320312 6.2311442 L 7.1447835 6.2311442 z " />
    <path
       id="path10095-7"
       style="color:#000000;display:inline;fill:#d6c200;fill-opacity:1;stroke:none;stroke-width:0;stroke-dasharray:none"
       inkscape:label="cible inversée bas gauche"
       d="M 0,136.14284 V 148 h 13.00024 v -11.85716 z m 6.19652,0.46767 h 0.6072 v 2.71818 c 1.27932,0.14059 2.29958,1.16084 2.44016,2.44017 h 2.71611 v 0.60513 H 9.24388 c -0.14058,1.27932 -1.16084,2.29958 -2.44016,2.44016 v 2.71818 h -0.6072 v -2.71818 C 4.91791,144.67292 3.89843,143.65281 3.75791,142.37399 H 1.04025 v -0.60513 h 2.71766 c 0.14052,-1.27882 1.16,-2.29894 2.43861,-2.44017 z m 0.6072,3.32952 v 1.48673 a 0.71262825,0.71262825 0 0 1 0.34158,0.3421 h 1.48673 c -0.13254,-0.94908 -0.87924,-1.69631 -1.82831,-1.82883 z m -0.6072,5.1e-4 c -0.94832,0.13314 -1.69429,0.87978 -1.82676,1.82832 h 1.48518 a 0.71262825,0.71262825 0 0 1 0.34158,-0.3421 z m -1.82676,2.43345 c 0.13247,0.94854 0.87844,1.69517 1.82676,1.82831 v -1.48622 a 0.71262825,0.71262825 0 0 1 -0.34106,-0.34209 z m 2.77502,0 a 0.71262825,0.71262825 0 0 1 -0.34106,0.34209 v 1.48674 c 0.94907,-0.13253 1.69577,-0.87976 1.82831,-1.82883 z" />
    <path
       id="path10095-7-5"
       style="color:#000000;display:inline;fill:#d6c200;fill-opacity:1;stroke:none;stroke-width:0;stroke-dasharray:none"
       inkscape:label="cible inversée bas droite"
       d="M 196.99976,136.14284 V 148 H 210 v -11.85716 z m 6.19652,0.46767 h 0.6072 v 2.71818 c 1.27932,0.14059 2.29958,1.16084 2.44016,2.44017 h 2.71611 v 0.60513 h -2.71611 c -0.14058,1.27932 -1.16084,2.29958 -2.44016,2.44016 v 2.71818 h -0.6072 v -2.71818 c -1.27861,-0.14123 -2.29809,-1.16134 -2.43861,-2.44016 h -2.71766 v -0.60513 h 2.71766 c 0.14052,-1.27882 1.16,-2.29894 2.43861,-2.44017 z m 0.6072,3.32952 v 1.48673 a 0.71262825,0.71262825 0 0 1 0.34158,0.3421 h 1.48673 c -0.13254,-0.94908 -0.87924,-1.69631 -1.82831,-1.82883 z m -0.6072,5.1e-4 c -0.94832,0.13314 -1.69429,0.87978 -1.82676,1.82832 h 1.48518 a 0.71262825,0.71262825 0 0 1 0.34158,-0.3421 z m -1.82676,2.43345 c 0.13247,0.94854 0.87844,1.69517 1.82676,1.82831 v -1.48622 a 0.71262825,0.71262825 0 0 1 -0.34106,-0.34209 z m 2.77502,0 a 0.71262825,0.71262825 0 0 1 -0.34106,0.34209 v 1.48674 c 0.94907,-0.13253 1.69577,-0.87976 1.82831,-1.82883 z" />
    <path
       id="path10095-7-5-3"
       style="color:#000000;display:inline;fill:#d6c200;fill-opacity:1;stroke:none;stroke-width:0;stroke-dasharray:none"
       inkscape:label="cible inversée haut droite"
       d="M 196.99976,0 V 11.85716 H 210 V 0 Z m 6.19652,0.46767 h 0.6072 v 2.71818 c 1.27932,0.14059 2.29958,1.16084 2.44016,2.44017 h 2.71611 v 0.60513 h -2.71611 c -0.14058,1.27932 -1.16084,2.29958 -2.44016,2.44016 v 2.71818 h -0.6072 V 8.67131 c -1.27861,-0.14123 -2.29809,-1.16134 -2.43861,-2.44016 h -2.71766 V 5.62602 h 2.71766 c 0.14052,-1.27882 1.16,-2.29894 2.43861,-2.44017 z m 0.6072,3.32952 v 1.48673 a 0.71262825,0.71262825 0 0 1 0.34158,0.3421 h 1.48673 c -0.13254,-0.94908 -0.87924,-1.69631 -1.82831,-1.82883 z m -0.6072,5.1e-4 c -0.94832,0.13314 -1.69429,0.87978 -1.82676,1.82832 h 1.48518 a 0.71262825,0.71262825 0 0 1 0.34158,-0.3421 z m -1.82676,2.43345 c 0.13247,0.94854 0.87844,1.69517 1.82676,1.82831 V 6.57324 a 0.71262825,0.71262825 0 0 1 -0.34106,-0.34209 z m 2.77502,0 a 0.71262825,0.71262825 0 0 1 -0.34106,0.34209 v 1.48674 c 0.94907,-0.13253 1.69577,-0.87976 1.82831,-1.82883 z" />
    <rect
       style="opacity:1;fill:#ffffff;stroke:none;stroke-width:0.264999;paint-order:stroke markers fill"
       id="rect839"
       width="242.75838"
       height="5.0097919"
       x="-30.317984"
       y="145.75661"
       ry="0" />
  </g>
</svg>
