<?xml version="1.0" encoding="UTF-8" standalone="no"?>
<!-- Created with Inkscape (http://www.inkscape.org/) -->

<svg
   width="210mm"
   height="148mm"
   viewBox="0 0 210 148"
   version="1.1"
   id="svg5"
   inkscape:version="1.2.2 (b0a8486541, 2022-12-01)"
   sodipodi:docname="reperes_transparent.svg"
   xmlns:inkscape="http://www.inkscape.org/namespaces/inkscape"
   xmlns:sodipodi="http://sodipodi.sourceforge.net/DTD/sodipodi-0.dtd"
   xmlns="http://www.w3.org/2000/svg"
   xmlns:svg="http://www.w3.org/2000/svg">
  <defs
     id="defs1324" />
  <sodipodi:namedview
     id="namedview1322"
     pagecolor="#ffffff"
     bordercolor="#666666"
     borderopacity="1.0"
     inkscape:showpageshadow="2"
     inkscape:pageopacity="0.0"
     inkscape:pagecheckerboard="0"
     inkscape:deskcolor="#d1d1d1"
     inkscape:document-units="mm"
     showgrid="false"
     inkscape:zoom="0.76177608"
     inkscape:cx="513.93055"
     inkscape:cy="423.35275"
     inkscape:window-width="1920"
     inkscape:window-height="1046"
     inkscape:window-x="0"
     inkscape:window-y="0"
     inkscape:window-maximized="1"
     inkscape:current-layer="svg5" />
  <path
     style="color:#000000;fill:#d6c200;fill-opacity:1;stroke:none;stroke-width:0;stroke-dasharray:none;stroke-opacity:1"
     d="m 203.37558,1.60079 v 1.40619 c -1.52133,0.0671 -2.72946,1.27525 -2.79658,2.7966 h -2.03622 v 0.2488399 h 2.03622 c 0.0671,1.5214001 1.27516,2.7305402 2.79658,2.7975702 V 10.25521 h 0.24885 V 8.84999 c 1.52142,-0.067 2.73045,-1.27617 2.79758,-2.7975701 h 2.03521 v -0.24884 h -2.03521 c -0.0671,-1.52135 -1.27625,-2.72947 -2.79758,-2.7966 v -1.40619 z m 0,1.65406 v 2.1636001 c -0.19612,0.051 -0.33305,0.1890199 -0.38414,0.38513 h -2.16459 C 200.89325,4.417 201.989,3.3212601 203.37558,3.25485 Z m 0.24885,0 c 1.38658,0.0664 2.48232,1.16216 2.54872,2.54873 h -2.1636 c -0.051,-0.19616 -0.18895,-0.33409 -0.38512,-0.38513 z m -0.24885,2.48651 v 0.0622 h -0.0622 c 0.0188,-0.0257 0.0365,-0.0434 0.0622,-0.0622 z m 0.24885,0 c 0.0259,0.0189 0.0443,0.0362 0.0632,0.0622 h -0.0632 z m -2.79758,0.3110599 h 2.16459 c 0.0511,0.1961001 0.18802,0.33409 0.38414,0.38512 V 8.60115 c -1.38657,-0.0664 -2.48233,-1.1621601 -2.54873,-2.5487301 z m 2.48652,0 h 0.0622 v 0.0632 c -0.0259,-0.0189 -0.0433,-0.0373 -0.0622,-0.0632 z m 0.31106,0 h 0.0632 c -0.019,0.0261 -0.0371,0.0442 -0.0632,0.0632 z m 0.38512,0 h 2.1636 c -0.0664,1.38657 -1.16215,2.4823202 -2.54872,2.5487301 V 6.4375399 c 0.19617,-0.051 0.33408,-0.18896 0.38512,-0.38512 z"
     id="path7967-36"
     inkscape:label="cible haut droite" />
  <path
     style="color:#000000;fill:#d6c200;fill-opacity:1;stroke:none;stroke-width:0;stroke-dasharray:none;stroke-opacity:1"
     d="M 6.37558,1.60079 V 3.00698 C 4.85425,3.07408 3.64612,4.28223 3.579,5.80358 H 1.54278 V 6.05242 H 3.579 c 0.0671,1.5214 1.27516,2.73054 2.79658,2.79757 v 1.40522 H 6.62443 V 8.84999 c 1.52142,-0.067 2.73045,-1.2761701 2.79758,-2.7975701 h 2.03521 v -0.24884 H 9.42201 c -0.0671,-1.52135 -1.2762501,-2.72947 -2.79758,-2.7966 v -1.40619 z m 0,1.65406 V 5.4184499 C 6.17946,5.46945 6.04253,5.60747 5.99144,5.80358 H 3.82685 C 3.89325,4.4169999 4.989,3.32126 6.37558,3.25485 Z m 0.24885,0 c 1.38658,0.0664 2.48232,1.16216 2.54872,2.54873 H 7.00955 C 6.95855,5.60742 6.8206,5.46949 6.62443,5.4184499 Z M 6.37558,5.74136 v 0.0622 h -0.0622 c 0.0188,-0.0257 0.0365,-0.0434 0.0622,-0.0622 z m 0.24885,0 c 0.0259,0.0189 0.0443,0.0362 0.0632,0.0622 H 6.62443 Z M 3.82685,6.05242 h 2.16459 c 0.0511,0.1961 0.18802,0.33409 0.38414,0.38512 V 8.60115 C 4.98901,8.53475 3.89325,7.43899 3.82685,6.05242 Z m 2.48652,0 h 0.0622 v 0.0632 c -0.0259,-0.0189 -0.0433,-0.0373 -0.0622,-0.0632 z m 0.31106,0 h 0.0632 c -0.019,0.0261 -0.0371,0.0442 -0.0632,0.0632 z m 0.38512,0 h 2.1636 C 9.10675,7.43899 8.011,8.53474 6.62443,8.60115 V 6.43754 C 6.8206,6.38654 6.95851,6.24858 7.00955,6.05242 Z"
     id="path7967-36-7"
     inkscape:label="cible haut gauche" />
  <path
     style="color:#000000;fill:#d6c200;fill-opacity:1;stroke:none;stroke-width:0;stroke-dasharray:none;stroke-opacity:1"
     d="m 6.37558,137.74479 v 1.40619 c -1.52133,0.0671 -2.72946,1.27525 -2.79658,2.7966 H 1.54278 v 0.24884 H 3.579 c 0.0671,1.5214 1.27516,2.73054 2.79658,2.79757 v 1.40522 h 0.24885 v -1.40522 c 1.52142,-0.067 2.73045,-1.27617 2.79758,-2.79757 h 2.03521 v -0.24884 H 9.42201 c -0.0671,-1.52135 -1.2762501,-2.72947 -2.79758,-2.7966 v -1.40619 z m 0,1.65406 v 2.1636 c -0.19612,0.051 -0.33305,0.18902 -0.38414,0.38513 H 3.82685 c 0.0664,-1.38658 1.16215,-2.48232 2.54873,-2.54873 z m 0.24885,0 c 1.38658,0.0664 2.48232,1.16216 2.54872,2.54873 h -2.1636 c -0.051,-0.19616 -0.18895,-0.33409 -0.38512,-0.38513 z m -0.24885,2.48651 v 0.0622 h -0.0622 c 0.0188,-0.0257 0.0365,-0.0434 0.0622,-0.0622 z m 0.24885,0 c 0.0259,0.0189 0.0443,0.0362 0.0632,0.0622 h -0.0632 z m -2.79758,0.31106 h 2.16459 c 0.0511,0.1961 0.18802,0.33409 0.38414,0.38512 v 2.16361 c -1.38657,-0.0664 -2.48233,-1.16216 -2.54873,-2.54873 z m 2.48652,0 h 0.0622 v 0.0632 c -0.0259,-0.0189 -0.0433,-0.0373 -0.0622,-0.0632 z m 0.31106,0 h 0.0632 c -0.019,0.0261 -0.0371,0.0442 -0.0632,0.0632 z m 0.38512,0 h 2.1636 c -0.0664,1.38657 -1.16215,2.48232 -2.54872,2.54873 v -2.16361 c 0.19617,-0.051 0.33408,-0.18896 0.38512,-0.38512 z"
     id="path7967-36-5"
     inkscape:label="cible bas gauche" />
  <path
     style="color:#000000;fill:#d6c200;fill-opacity:1;stroke:none;stroke-width:0;stroke-dasharray:none;stroke-opacity:1"
     d="m 203.37558,137.74479 v 1.40619 c -1.52133,0.0671 -2.72946,1.27525 -2.79658,2.7966 h -2.03622 v 0.24884 h 2.03622 c 0.0671,1.5214 1.27516,2.73054 2.79658,2.79757 v 1.40522 h 0.24885 v -1.40522 c 1.52142,-0.067 2.73045,-1.27617 2.79758,-2.79757 h 2.03521 v -0.24884 h -2.03521 c -0.0671,-1.52135 -1.27625,-2.72947 -2.79758,-2.7966 v -1.40619 z m 0,1.65406 v 2.1636 c -0.19612,0.051 -0.33305,0.18902 -0.38414,0.38513 h -2.16459 c 0.0664,-1.38658 1.16215,-2.48232 2.54873,-2.54873 z m 0.24885,0 c 1.38658,0.0664 2.48232,1.16216 2.54872,2.54873 h -2.1636 c -0.051,-0.19616 -0.18895,-0.33409 -0.38512,-0.38513 z m -0.24885,2.48651 v 0.0622 h -0.0622 c 0.0188,-0.0257 0.0365,-0.0434 0.0622,-0.0622 z m 0.24885,0 c 0.0259,0.0189 0.0443,0.0362 0.0632,0.0622 h -0.0632 z m -2.79758,0.31106 h 2.16459 c 0.0511,0.1961 0.18802,0.33409 0.38414,0.38512 v 2.16361 c -1.38657,-0.0664 -2.48233,-1.16216 -2.54873,-2.54873 z m 2.48652,0 h 0.0622 v 0.0632 c -0.0259,-0.0189 -0.0433,-0.0373 -0.0622,-0.0632 z m 0.31106,0 h 0.0632 c -0.019,0.0261 -0.0371,0.0442 -0.0632,0.0632 z m 0.38512,0 h 2.1636 c -0.0664,1.38657 -1.16215,2.48232 -2.54872,2.54873 v -2.16361 c 0.19617,-0.051 0.33408,-0.18896 0.38512,-0.38512 z"
     id="path7967-36-3"
     inkscape:label="cible bas droite" />
</svg>
