<?xml version="1.0" encoding="UTF-8" standalone="no"?>
<!-- Created with Inkscape (http://www.inkscape.org/) -->

<svg
   width="210mm"
   height="148mm"
   viewBox="0 0 210 148"
   version="1.1"
   id="svg5"
   inkscape:version="1.2.2 (b0a8486541, 2022-12-01)"
   sodipodi:docname="reperes_feuille.svg"
   xmlns:inkscape="http://www.inkscape.org/namespaces/inkscape"
   xmlns:sodipodi="http://sodipodi.sourceforge.net/DTD/sodipodi-0.dtd"
   xmlns="http://www.w3.org/2000/svg"
   xmlns:svg="http://www.w3.org/2000/svg">
  <defs
     id="defs7" />
  <sodipodi:namedview
     id="namedview5"
     pagecolor="#ffffff"
     bordercolor="#666666"
     borderopacity="1.0"
     inkscape:showpageshadow="2"
     inkscape:pageopacity="0.0"
     inkscape:pagecheckerboard="0"
     inkscape:deskcolor="#d1d1d1"
     inkscape:document-units="mm"
     showgrid="false"
     inkscape:zoom="0.44783954"
     inkscape:cx="137.32597"
     inkscape:cy="41.309439"
     inkscape:window-width="1920"
     inkscape:window-height="1046"
     inkscape:window-x="0"
     inkscape:window-y="0"
     inkscape:window-maximized="1"
     inkscape:current-layer="layer1" />
  <g
     inkscape:label="Calque 1"
     inkscape:groupmode="layer"
     id="layer1">
    <rect
       style="fill:#000000;fill-opacity:1;fill-rule:evenodd;stroke-width:0"
       id="rect898"
       width="16.322866"
       height="126.71129"
       x="196.51927"
       y="10.490512"
       inkscape:label="Bordure droite" />
    <rect
       style="fill:#000000;fill-opacity:1;fill-rule:evenodd;stroke-width:0"
       id="rect1370"
       width="17.725388"
       height="126.33942"
       x="-4.2254367"
       y="11.087961"
       inkscape:label="Bordure gauche" />
    <path
       id="rect1367"
       style="fill:#000000;fill-opacity:1;fill-rule:evenodd;stroke-width:0"
       inkscape:label="Bordure haute"
       d="M 12.184786 -4.1708049 L 12.184786 9.0046183 L 11.838037 9.0046183 L 11.838037 12.176518 L 13.499951 12.176518 L 13.499951 9.4805583 L 196.51927 9.4805583 L 196.51927 10.961605 L 197.61068 10.961605 L 197.61068 9.4805583 L 197.9843 9.4805583 L 197.9843 -4.1708049 L 12.184786 -4.1708049 z " />
    <path
       id="rect1379"
       style="fill:#000000;fill-opacity:1;fill-rule:evenodd;stroke-width:0"
       inkscape:label="Bordure basse"
       d="M 12.276253 136.94668 L 12.276253 138.53418 L 11.600842 138.53418 L 11.600842 152.77931 L 198.08403 152.77931 L 198.08403 138.53418 L 197.95949 138.53418 L 197.95949 137.08362 L 196.51927 137.08362 L 196.51927 138.53418 L 13.499951 138.53418 L 13.499951 136.94668 L 12.276253 136.94668 z " />
    <path
       id="path10095"
       style="color:#000000;display:inline;fill:#d6c200;fill-opacity:1;stroke-width:0;stroke-dasharray:none;stroke:none"
       d="M 0,0 V 11.856929 H 13 V 0 Z M 6.3758952,1.601092 H 6.6246245 V 3.007276 C 8.1459724,3.074406 9.3542049,4.282363 9.4213041,5.8037 H 11.45744 V 6.052698 H 9.4213041 C 9.3542431,7.574099 8.146047,8.783125 6.6246245,8.850178 v 1.405127 H 6.3758952 V 8.850178 C 4.8544145,8.783128 3.6451996,7.574172 3.5781634,6.052698 H 1.5430908 V 5.8037 H 3.5781634 C 3.6452004,4.282285 4.8544994,3.074404 6.3758952,3.007276 Z m 0,1.653871 C 4.989322,3.321363 3.8935712,4.417136 3.8271587,5.8037 H 5.9905093 C 6.0415743,5.607542 6.1797332,5.46963 6.3758952,5.418589 Z m 0.2487293,0 v 2.163626 c 0.1961628,0.05105 0.3340806,0.188953 0.3851227,0.385112 H 9.1733785 C 9.1069555,4.417121 8.0112015,3.32136 6.6246245,3.254963 Z M 6.3758952,5.741518 c -0.025935,0.01898 -0.04437,0.03622 -0.063246,0.0622 h 0.063246 z m 0.2487293,0 v 0.0622 h 0.062192 c -0.018886,-0.02578 -0.036471,-0.0434 -0.062192,-0.0622 z m -2.7974658,0.31118 c 0.0664,1.386563 1.1621726,2.482331 2.5487365,2.548733 V 6.437813 C 6.1797332,6.386773 6.0415574,6.24886 5.9905093,6.052698 Z m 2.4855027,0 c 0.019,0.02618 0.037105,0.04426 0.063235,0.06324 v -0.06324 z m 0.3119631,0 v 0.06324 c 0.025926,-0.01888 0.043284,-0.03731 0.062194,-0.06324 z m 0.3851227,0 C 6.9586872,6.24886 6.8207915,6.38677 6.6246245,6.437813 V 8.601431 C 8.0111908,8.535031 9.106955,7.439273 9.1733785,6.052698 Z"
       inkscape:label="cible inversée haut gauche" />
    <path
       id="path10095-3"
       style="color:#000000;display:inline;fill:#d6c200;fill-opacity:1;stroke-width:0;stroke:none;stroke-dasharray:none"
       d="M 197,136.14307 V 148 h 13 v -11.85693 z m 6.3759,1.60109 h 0.24872 v 1.40619 c 1.52135,0.0671 2.72958,1.27508 2.79668,2.79642 h 2.03614 v 0.249 h -2.03614 c -0.0671,1.5214 -1.27525,2.73043 -2.79668,2.79748 v 1.40513 h -0.24872 v -1.40513 c -1.52149,-0.067 -2.7307,-1.27601 -2.79774,-2.79748 h -2.03507 v -0.249 h 2.03507 c 0.067,-1.52141 1.27634,-2.72929 2.79774,-2.79642 z m 0,1.65387 c -1.38658,0.0664 -2.48233,1.16218 -2.54874,2.54874 h 2.16335 c 0.0511,-0.19616 0.18922,-0.33407 0.38539,-0.38511 z m 0.24872,0 v 2.16363 c 0.19617,0.0511 0.33409,0.18895 0.38513,0.38511 h 2.16363 c -0.0664,-1.38658 -1.16218,-2.48234 -2.54876,-2.54874 z m -0.24872,2.48656 c -0.0259,0.019 -0.0444,0.0362 -0.0633,0.0622 h 0.0633 z m 0.24872,0 v 0.0622 h 0.0622 c -0.0189,-0.0258 -0.0365,-0.0434 -0.0622,-0.0622 z m -2.79746,0.31118 c 0.0664,1.38656 1.16217,2.48233 2.54874,2.54873 v -2.16362 c -0.19617,-0.051 -0.33434,-0.18895 -0.38539,-0.38511 z m 2.4855,0 c 0.019,0.0262 0.0371,0.0443 0.0632,0.0632 v -0.0632 z m 0.31196,0 v 0.0632 c 0.0259,-0.0189 0.0433,-0.0373 0.0622,-0.0632 z m 0.38513,0 c -0.0511,0.19616 -0.18896,0.33407 -0.38513,0.38511 v 2.16362 c 1.38657,-0.0664 2.48233,-1.16216 2.54876,-2.54873 z"
       inkscape:label="cible inversée bas droite" />
    <path
       id="path10095-3-6"
       style="color:#000000;display:inline;fill:#d6c200;fill-opacity:1;stroke-width:0;stroke:none;stroke-dasharray:none"
       d="m 197,0 v 11.85693 h 13 V 0 Z m 6.3759,1.60109 h 0.24872 v 1.40619 c 1.52135,0.0671 2.72958,1.27508 2.79668,2.79642 h 2.03614 v 0.249 h -2.03614 c -0.0671,1.5214 -1.27525,2.73043 -2.79668,2.79748 v 1.40513 H 203.3759 V 8.85018 c -1.52149,-0.067 -2.7307,-1.27601 -2.79774,-2.79748 h -2.03507 v -0.249 h 2.03507 c 0.067,-1.52141 1.27634,-2.72929 2.79774,-2.79642 z m 0,1.65387 c -1.38658,0.0664 -2.48233,1.16218 -2.54874,2.54874 h 2.16335 c 0.0511,-0.19616 0.18922,-0.33407 0.38539,-0.38511 z m 0.24872,0 v 2.16363 c 0.19617,0.0511 0.33409,0.18895 0.38513,0.38511 h 2.16363 c -0.0664,-1.38658 -1.16218,-2.48234 -2.54876,-2.54874 z m -0.24872,2.48656 c -0.0259,0.019 -0.0444,0.0362 -0.0633,0.0622 h 0.0633 z m 0.24872,0 v 0.0622 h 0.0622 c -0.0189,-0.0258 -0.0365,-0.0434 -0.0622,-0.0622 z m -2.79746,0.31118 c 0.0664,1.38656 1.16217,2.48233 2.54874,2.54873 V 6.43781 c -0.19617,-0.051 -0.33434,-0.18895 -0.38539,-0.38511 z m 2.4855,0 c 0.019,0.0262 0.0371,0.0443 0.0632,0.0632 V 6.0527 Z m 0.31196,0 v 0.0632 c 0.0259,-0.0189 0.0433,-0.0373 0.0622,-0.0632 z m 0.38513,0 c -0.0511,0.19616 -0.18896,0.33407 -0.38513,0.38511 v 2.16362 c 1.38657,-0.0664 2.48233,-1.16216 2.54876,-2.54873 z"
       inkscape:label="cible inversée haut droite" />
    <path
       id="path10095-3-6-7"
       style="color:#000000;display:inline;fill:#d6c200;fill-opacity:1;stroke-width:0;stroke-dasharray:none;stroke:none"
       d="M 0,136.14307 V 148 h 13 v -11.85693 z m 6.3759,1.60109 h 0.24872 v 1.40619 c 1.52135,0.0671 2.72958,1.27508 2.79668,2.79642 h 2.03614 v 0.249 H 9.4213 c -0.0671,1.5214 -1.27525,2.73043 -2.79668,2.79748 v 1.40513 H 6.3759 v -1.40513 c -1.52149,-0.067 -2.7307,-1.27601 -2.79774,-2.79748 H 1.54309 v -0.249 h 2.03507 c 0.067,-1.52141 1.27634,-2.72929 2.79774,-2.79642 z m 0,1.65387 c -1.38658,0.0664 -2.48233,1.16218 -2.54874,2.54874 h 2.16335 c 0.0511,-0.19616 0.18922,-0.33407 0.38539,-0.38511 z m 0.24872,0 v 2.16363 c 0.19617,0.0511 0.33409,0.18895 0.38513,0.38511 h 2.16363 c -0.0664,-1.38658 -1.16218,-2.48234 -2.54876,-2.54874 z m -0.24872,2.48656 c -0.0259,0.019 -0.0444,0.0362 -0.0633,0.0622 h 0.0633 z m 0.24872,0 v 0.0622 h 0.0622 c -0.0189,-0.0258 -0.0365,-0.0434 -0.0622,-0.0622 z m -2.79746,0.31118 c 0.0664,1.38656 1.16217,2.48233 2.54874,2.54873 v -2.16362 c -0.19617,-0.051 -0.33434,-0.18895 -0.38539,-0.38511 z m 2.4855,0 c 0.019,0.0262 0.0371,0.0443 0.0632,0.0632 v -0.0632 z m 0.31196,0 v 0.0632 c 0.0259,-0.0189 0.0433,-0.0373 0.0622,-0.0632 z m 0.38513,0 c -0.0511,0.19616 -0.18896,0.33407 -0.38513,0.38511 v 2.16362 c 1.38657,-0.0664 2.48233,-1.16216 2.54876,-2.54873 z"
       inkscape:label="cible inversée bas gauche" />
  </g>
</svg>
