<?xml version="1.0" encoding="UTF-8" standalone="no"?>
<!-- Created with Inkscape (http://www.inkscape.org/) -->

<svg
   width="210mm"
   height="148mm"
   viewBox="0 0 210 148"
   version="1.1"
   id="svg5"
   inkscape:version="1.2.2 (b0a8486541, 2022-12-01)"
   sodipodi:docname="team.svg"
   xmlns:inkscape="http://www.inkscape.org/namespaces/inkscape"
   xmlns:sodipodi="http://sodipodi.sourceforge.net/DTD/sodipodi-0.dtd"
   xmlns="http://www.w3.org/2000/svg"
   xmlns:svg="http://www.w3.org/2000/svg">
  <sodipodi:namedview
     id="namedview7"
     pagecolor="#ffffff"
     bordercolor="#666666"
     borderopacity="1.0"
     inkscape:pageshadow="2"
     inkscape:pageopacity="0.0"
     inkscape:pagecheckerboard="0"
     inkscape:document-units="mm"
     showgrid="false"
     inkscape:zoom="0.95935203"
     inkscape:cx="428.93535"
     inkscape:cy="207.95286"
     inkscape:window-width="1920"
     inkscape:window-height="1046"
     inkscape:window-x="0"
     inkscape:window-y="0"
     inkscape:window-maximized="1"
     inkscape:current-layer="layer1"
     inkscape:showpageshadow="2"
     inkscape:deskcolor="#d1d1d1" />
  <defs
     id="defs2" />
  <g
     inkscape:label="Calque 1"
     inkscape:groupmode="layer"
     id="layer1">
    <path
       id="path838"
       style="display:inline;fill:#000000;fill-opacity:1;stroke-width:0.110389"
       d="m 61.308198,84.651159 c -0.268812,9.71e-4 -0.505076,0.03698 -0.505076,0.107492 0,0.06074 -0.07405,0.11019 -0.164611,0.11019 -0.09056,0 -0.220602,0.08987 -0.289193,0.199692 -0.08738,0.139905 -0.219904,0.186074 -0.44256,0.153367 -0.282469,-0.04146 -0.317978,-0.01392 -0.317978,0.248265 0,0.183175 -0.143529,0.449454 -0.378695,0.70252 -0.208281,0.224126 -0.536408,0.593585 -0.729055,0.821255 -0.192645,0.22768 -0.408195,0.41423 -0.47944,0.41423 -0.194005,0 -0.841044,0.62558 -0.841044,0.81316 -0.823699,1.99123 -1.50213,2.29707 -1.279557,4.6235 0.044,1.04727 0.07321,2.6582 0.06477,3.58005 -0.01628,1.77684 0.01655,1.92878 0.543306,2.51864 0.319087,0.35732 0.497751,0.81786 0.621113,1.59933 0.107003,0.67783 0.34859,1.33044 0.591429,1.59888 0.111408,0.12317 0.234729,0.35958 0.273902,0.52532 0.03918,0.16574 0.219442,0.4532 0.400733,0.63866 0.181293,0.18545 0.329671,0.40976 0.329671,0.49877 0.05062,0.1235 0.140551,0.15025 0.22083,0.2721 0,0.0608 -0.08257,0.11065 -0.18305,0.11065 -0.164354,0 -0.165853,0.0192 -0.01484,0.19294 0.09233,0.10625 0.200509,0.33002 0.24017,0.49698 0.385658,0.77689 0.791671,1.43957 1.219739,2.15254 0.282175,0.52113 2.500927,-0.54568 1.387048,-1.18692 0,-0.0607 0.08715,-0.11626 0.193396,-0.12323 0.996762,-0.13837 2.811388,-0.24935 3.228801,-1.27371 0,-0.083 0.116375,-0.14842 0.264006,-0.14842 0.145289,0 0.29292,-0.0744 0.327873,-0.16551 0.08605,-0.22434 0.263743,-0.20935 0.325623,0.0274 0.03486,0.13329 0.05543,0.10775 0.06701,-0.0828 0.0092,-0.15178 0.134444,-0.42032 0.278399,-0.59637 l 0.261758,-0.31978 -0.03913,1.14778 c -0.09141,2.65925 -0.09934,2.52851 0.155616,2.70708 0.129339,0.0906 0.236993,0.24846 0.238821,0.35126 v 4.5e-4 c 0.0029,0.16365 0.01811,0.16108 0.123683,-0.0207 0.06935,-0.1194 0.118909,-0.75344 0.116037,-1.4905 -0.004,-1.0228 -0.04891,-1.38309 -0.22128,-1.77924 -0.3673,-0.84418 -0.376668,-1.02583 -0.06926,-1.35736 0.152278,-0.16422 0.237788,-0.29936 0.189798,-0.29999 -0.048,-9.3e-4 -0.01281,-0.0499 0.07826,-0.10884 0.09949,-0.0643 0.113173,-0.10797 0.03418,-0.10884 -0.07231,-9.3e-4 -0.162163,0.0482 -0.199692,0.10884 -0.03752,0.0607 -0.187874,0.11064 -0.334169,0.11064 -0.190415,0 -0.248071,0.0467 -0.20284,0.16462 0.07335,0.19117 -0.254628,0.35748 -0.40613,0.20599 -0.114478,-0.11449 0.09946,-0.9229 0.244218,-0.9229 0.05053,0 0.09175,-0.18218 0.09175,-0.40479 0,-0.22262 -0.03302,-0.37177 -0.07331,-0.33147 -0.111314,0.11132 -0.47854,1.19867 -0.47854,1.41673 0,0.10557 -0.08715,0.24261 -0.193396,0.30449 -0.107207,0.0623 -0.13145,0.11385 -0.05487,0.11559 0.07589,0.002 0.137626,0.0682 0.137626,0.14707 0,0.21496 -0.778934,0.0972 -1.060076,-0.16012 -0.224754,-0.20564 -0.243786,-0.2062 -0.585133,-0.0153 -0.341719,0.19105 -0.357381,0.19077 -0.511373,-0.0153 -0.08743,-0.117 -0.192242,-0.17926 -0.232974,-0.13852 -0.04073,0.0407 0.0038,0.16098 0.09895,0.2676 0.144921,0.1624 0.148491,0.21641 0.02339,0.33102 -0.214401,0.1964 -0.492483,0.0501 -0.492483,-0.25906 0,-0.30556 -0.369011,-0.37405 -0.523966,-0.0971 -0.08061,0.14402 -0.126615,0.13622 -0.334619,-0.0576 -0.224548,-0.20921 -1.068369,-0.45494 -1.66095,-0.48349 -0.190215,-0.009 -0.273046,-0.0947 -0.320227,-0.33058 -0.03603,-0.18016 -0.151467,-0.34146 -0.266255,-0.37149 -0.137783,-0.0846 -0.121786,-0.16846 -0.261308,-0.28875 -0.229318,-0.088 -0.206141,-0.54708 0.04318,-0.85498 0.154682,-0.19101 0.24695,-0.22761 0.358906,-0.14258 0.233918,0.17759 1.623815,0.19575 1.828259,0.0238 0.09515,-0.08 0.601222,-0.20107 1.124391,-0.26896 0.676944,-0.0878 0.813697,-0.12735 0.474943,-0.13762 -0.484597,-0.0148 -1.617178,-0.3316 -1.522875,-0.42592 0.0285,-0.0285 0.527209,-0.0498 1.108199,-0.0454 0.718534,0.004 1.056477,-0.0335 1.056477,-0.11874 0,-0.0689 0.111664,-0.0214 0.248266,0.10615 0.136606,0.1275 0.385666,0.26602 0.5532,0.30762 0.544714,0.13521 0.494585,0.31306 -0.06656,0.23612 -0.31027,-0.0425 -0.514071,-0.0276 -0.514071,0.0378 0,0.0858 0.88095,0.17407 1.235031,0.12368 0.04184,-0.006 0.110088,0.096 0.151568,0.22668 0.07516,0.2368 0.07586,0.23686 0.223529,-0.0297 0.178,-0.32128 0.195876,-0.47082 0.04543,-0.3778 -0.06072,0.0375 -0.11019,-0.0354 -0.11019,-0.16236 0,-0.12693 -0.06962,-0.25746 -0.154716,-0.29009 -0.08509,-0.0327 -0.179773,-0.15553 -0.210487,-0.27301 -0.0371,-0.14124 -0.115266,-0.19098 -0.232974,-0.14572 -0.09746,0.0373 -0.24923,0.008 -0.336867,-0.0643 -0.137631,-0.06 -0.295804,-0.0137 -0.389489,-0.11153 0,-0.16022 -0.198064,-0.39909 -0.698921,-0.84285 -0.285294,-0.25273 -0.578989,-0.26802 -0.820806,-0.0427 -0.1307,0.12178 -0.28371,0.22172 -0.340465,0.22172 -0.198727,0 -0.241027,-0.36488 -0.07196,-0.62291 0.108974,-0.1663 0.125925,-0.2604 0.04632,-0.2604 -0.06855,0 -0.222545,-0.12408 -0.341815,-0.27571 -0.175994,-0.22375 -0.256659,-0.25398 -0.429517,-0.16146 -0.283841,0.2839 -0.528368,0.699 -0.81271,0.98902 -0.08698,0 -0.1884,0.0955 -0.225328,0.21183 -0.03693,0.11634 -0.201619,0.25857 -0.366101,0.31618 -0.164482,0.0576 -0.515202,0.28525 -0.778979,0.50598 -0.263774,0.22071 -0.549278,0.40118 -0.634605,0.40118 -0.08533,0 -0.155167,0.0977 -0.155167,0.21723 0,0.16102 -0.04984,0.19852 -0.192945,0.14482 -0.280651,-0.10531 -0.410423,-0.29892 -0.97867,-1.46576 -0.502107,-1.03102 -0.509434,-1.06238 -0.44301,-1.85613 0.03716,-0.44407 0.132874,-0.87278 0.212735,-0.95259 0.112695,-0.11272 0.210986,-0.80245 1.276859,-0.7457 1.40241,0.0747 1.891225,0.80654 1.891225,1.06413 0.459576,0.77309 0.85827,0.94884 1.405038,-0.0162 0.104845,-0.16001 0.196894,-0.49353 0.204639,-0.74119 0.0078,-0.24767 0.05174,-0.63626 0.0976,-0.86354 0.13856,-0.68675 0.01666,-0.93587 -0.500129,-1.02319 -0.319179,-0.0539 -0.482576,-0.14982 -0.565344,-0.33147 -0.181302,-0.39793 -0.927249,-0.52504 -1.240877,-0.21139 -0.215676,0.21568 -0.226599,0.42233 -0.01799,0.34226 0.212012,-0.0814 0.924949,0.14797 0.990363,0.31843 0.07661,0.20006 -1.988407,0.38758 -2.2137,0.20059 -0.158393,-0.23282 0.132991,-0.4841 -0.146171,-0.68902 7.01e-4,-0.3064 0.414305,-0.87799 0.767285,-1.06053 0.184822,-0.0956 0.336417,-0.22236 0.336417,-0.28155 0,-0.0591 0.05797,-0.10749 0.12908,-0.10749 0.17966,0 0.532961,-0.33574 0.532961,-0.50642 0,-0.0776 -0.0994,-0.17287 -0.22083,-0.21139 -0.471096,-0.14951 -0.1603,-0.84563 0.538808,-1.20714 0.220674,-0.11408 0.346114,-0.12662 0.429518,-0.0432 0.0834,0.0834 0.158028,0.0526 0.25636,-0.1048 0.118708,-0.19011 0.161221,-0.19993 0.292792,-0.0684 0.113657,0.11368 0.209588,0.12381 0.367001,0.0396 0.117211,-0.0627 0.213185,-0.15769 0.213185,-0.21138 0,-0.0536 0.170743,-0.20329 0.379594,-0.33237 0.273508,-0.16903 0.639543,-0.25278 1.308791,-0.29999 0.900671,-0.0636 0.954314,-0.0537 1.748652,0.32832 0.450707,0.21678 0.964562,0.5287 1.141932,0.69308 0.387585,0.3592 0.8298,1.27173 0.8298,1.71222 0,0.35346 0.36045,3.41863 0.563544,4.79305 0.137408,0.92988 0.452905,1.08616 0.452905,1.08616 0,0 0.307674,0.30836 0.398484,0.45875 l 0.07736,-0.41287 0.441211,-1.37401 c 0.1736,-0.41549 0.3099,-1.1984 0.563544,-3.23554 0.03757,-0.30172 -0.0097,-0.77855 -0.120984,-1.21435 -0.100775,-0.39463 -0.208899,-0.86624 -0.24017,-1.04838 -0.05918,-0.34478 -0.303424,-0.98398 -0.485287,-1.26966 -0.05797,-0.0911 -0.153674,-0.27717 -0.212735,-0.41378 -0.05907,-0.13661 -0.170867,-0.24848 -0.248266,-0.24871 -0.0774,-1.7e-4 -0.238674,-0.14685 -0.358455,-0.32562 -0.11978,-0.17879 -0.327678,-0.35271 -0.4619,-0.38635 -0.134223,-0.0337 -0.350297,-0.20975 -0.47989,-0.39173 -0.129593,-0.182 -0.297268,-0.33102 -0.372848,-0.33102 -0.07558,0 -0.280202,-0.14934 -0.454704,-0.33147 -0.179339,-0.187194 -0.431863,-0.331025 -0.581085,-0.331025 -0.158376,0 -0.440628,-0.17285 -0.705218,-0.432216 -0.357524,-0.350465 -0.54919,-0.446603 -1.012401,-0.507326 -0.314268,-0.04121 -0.695556,-0.155637 -0.847341,-0.254111 -0.151783,-0.09847 -0.519,-0.194995 -0.815858,-0.214534 -0.296856,-0.01957 -0.628634,-0.08335 -0.7376,-0.141674 -0.13087,-0.07004 -0.432355,-0.103964 -0.701171,-0.102994 z M 182.14827,89.73521 c -0.061,0.0164 -0.0875,0.0981 -0.0553,0.26625 0.0608,0.31802 -0.12655,0.36987 -0.29864,0.0828 -0.11004,-0.18319 -0.12322,-0.18297 -0.26851,0.004 -0.15197,0.19566 -0.21162,0.20292 -1.54536,0.18575 -0.39581,-0.005 -0.60227,0.0524 -0.77673,0.21633 -0.22465,0.21105 -1.43033,0.66142 -1.81701,0.67869 -0.28418,0.0127 -1.59949,1.0239 -1.75855,1.35196 -0.0795,0.16391 -0.32445,0.47247 -0.5442,0.68588 -0.21974,0.21343 -0.47758,0.5054 -0.57299,0.64856 -0.0954,0.14315 -0.37312,0.55136 -0.61752,0.90761 -0.2444,0.35625 -0.51039,0.87142 -0.59098,1.14462 -0.0806,0.27321 -0.19276,0.55355 -0.24916,0.62291 -0.0564,0.0693 -0.15225,0.56126 -0.21274,1.09336 -0.0863,0.75953 -0.0769,1.07663 0.0432,1.47475 0.084,0.27891 0.14818,0.76788 0.14122,1.08662 -0.007,0.31874 0.0228,0.57927 0.0657,0.57928 0.0428,0 0.11092,0.18654 0.15156,0.41423 0.0406,0.22766 0.17179,0.5216 0.29144,0.65304 0.15213,0.16717 0.19456,0.31627 0.14168,0.49653 -0.0929,0.31579 -0.0752,0.25333 0.10119,0.0162 0.27737,-0.37783 0.31637,-1.04361 0.1853,-3.16404 l -0.12188,-1.96992 0.35935,-0.67869 c 0.26682,-0.50399 0.47433,-0.74164 0.80731,-0.92424 0.24655,-0.13521 0.73407,-0.49566 1.08302,-0.80102 0.34895,-0.30536 0.70584,-0.55501 0.79337,-0.55501 0.19489,0 0.213,0.40367 0.0211,0.47226 -0.0759,0.0271 -0.10517,0.0846 -0.0652,0.12773 0.0399,0.0431 0.21373,0.007 0.38634,-0.0796 0.1726,-0.0869 0.8355,-0.31445 1.47295,-0.50553 0.6375,-0.19107 1.30793,-0.40105 1.49004,-0.46684 1.1759,-0.42468 1.76666,-0.41467 2.82762,0.0486 0.93384,0.40773 1.72795,1.01525 2.1377,1.63441 0.22114,0.33418 0.29786,0.66576 0.42187,1.82377 0.15118,1.4111 0.1564,2.10678 0.0198,2.74666 -0.052,0.24344 -0.0218,0.37902 0.10839,0.48708 0.26115,0.21672 0.86182,-0.095 1.19366,-0.61931 0.23952,-0.3784 0.25013,-0.45968 0.14437,-1.07987 -0.0629,-0.36889 -0.11514,-1.11767 -0.11514,-1.6641 -5.2e-4,-0.54642 -0.0288,-1.01845 -0.063,-1.04882 -0.0343,-0.0304 -0.29331,-0.35834 -0.57569,-0.72906 -0.5163,-0.67783 -0.98902,-1.58737 -1.14193,-2.19662 -0.0919,-0.36614 -0.4177,-0.66395 -1.08571,-0.99306 -0.50381,-0.24821 -0.88619,-0.75498 -1.07627,-1.42527 -0.15858,-0.55923 -0.65276,-1.09806 -0.83565,-1.04884 z M 27.371834,89.97628 c -0.759911,-0.0167 -1.633949,0.13902 -2.831215,0.46279 -0.54642,0.14776 -1.515044,0.39524 -2.152534,0.55006 -1.280178,0.31087 -2.731589,0.95343 -3.319202,1.46935 -0.209611,0.18404 -0.571883,0.61177 -0.805064,0.95034 -0.468704,0.68054 -0.44756,0.53897 -0.579286,3.84362 -0.05585,1.40123 -0.04243,1.54909 0.186199,2.04233 0.184906,0.39891 0.243265,0.71783 0.233424,1.27687 -0.0073,0.4128 0.03425,0.74525 0.0931,0.74525 0.05842,0 0.107054,-0.11212 0.107941,-0.24873 0.0025,-0.37015 0.12032,-0.48321 0.577937,-0.55544 0.358368,-0.0566 0.413776,-0.0367 0.413776,0.14841 0,0.14713 0.07778,0.21463 0.248715,0.21724 0.209663,0.003 0.220312,0.0199 0.06881,0.10839 -0.09871,0.0577 -0.29178,0.38181 -0.429067,0.72006 -0.202906,0.49992 -0.22633,0.66547 -0.126382,0.88512 0.15808,0.34672 0.374897,0.34961 0.329672,0.004 -0.03468,-0.26468 0.281616,-0.72816 0.49698,-0.72816 0.06206,0 0.248314,0.16159 0.413776,0.35891 0.16546,0.19732 0.328081,0.33172 0.361604,0.29908 0.03352,-0.0327 0.01198,-0.40485 -0.04812,-0.82754 -0.111502,-0.78405 0.02526,-1.81747 0.24062,-1.81747 0.05466,0 0.0994,-0.0705 0.0994,-0.15652 0,-0.39433 0.606078,-0.22693 0.773581,0.21364 0.151938,0.39963 1.162438,0.93462 1.768442,0.93549 0.274881,5.7e-4 0.602625,0.0732 0.728605,0.16146 0.151007,0.10568 0.394634,0.14277 0.714664,0.10839 0.266986,-0.0287 0.587554,-0.0573 0.712413,-0.0634 0.181339,-0.009 0.251182,-0.12495 0.347212,-0.57749 0.06612,-0.31159 0.205899,-0.8767 0.310781,-1.25617 0.186174,-0.67355 0.199554,-0.68993 0.565794,-0.68993 0.286862,0 0.398034,0.0584 0.471795,0.24827 0.05305,0.13661 0.213242,0.56354 0.356207,0.94899 0.177798,0.47936 0.364909,0.77357 0.591429,0.93054 l 0.331021,0.22938 -0.228027,-0.26806 c -0.441559,-0.51849 -0.613069,-0.88693 -0.577038,-1.23949 l 0.03598,-0.3526 0.219031,0.43356 c 0.258862,0.51274 0.670905,0.76565 1.493191,0.91661 0.203875,0.038 1.080897,0.41224 0.893666,0.10704 -0.128588,-0.15814 -0.124745,-0.19481 0.02744,-0.25321 0.228955,-0.0879 0.225625,-0.31093 -0.0094,-0.66969 l -0.187099,-0.2856 0.469546,0.045 0.469996,0.0445 -0.418724,-0.36161 C 30.520854,98.77702 30.200766,98.62985 29.7511,98.54142 l -0.643601,-0.12682 0.40388,-0.41333 0.403882,-0.41333 0.610319,0.14167 c 1.065939,0.24779 1.494591,0.73145 1.441919,1.62723 -0.01694,0.28842 -0.01609,0.52443 0.0022,0.52441 0.01834,-5e-5 0.08538,-0.14887 0.148869,-0.33103 0.0635,-0.18209 0.150076,-0.33101 0.192496,-0.33101 0.09204,0 0.343168,1.39721 0.343164,1.91011 0,0.19854 0.0994,0.55609 0.220831,0.79427 l 0.22038,0.43311 v -0.33236 c 0,-0.18284 -0.05078,-0.38366 -0.112889,-0.44571 -0.07697,-0.077 -0.05993,-0.2394 0.05352,-0.51092 0.194099,-0.46456 0.361067,-0.59782 0.532961,-0.42593 0.159817,0.16018 0.409728,0.15829 0.409728,-0.003 0,-0.0692 -0.0723,-0.1809 -0.160563,-0.24827 -0.138281,-0.10559 -0.139107,-0.1513 -0.0054,-0.32967 0.206234,-0.27512 0.496981,-0.15227 0.496981,0.21004 0,0.49487 0.189275,0.19482 0.38769,-0.61482 0.116405,-0.47491 0.164106,-0.94636 0.122334,-1.20759 -0.03769,-0.23574 -0.01919,-0.55896 0.04138,-0.71826 0.082,-0.21569 0.06815,-0.37153 -0.05487,-0.60943 -0.09087,-0.17571 -0.165061,-0.40273 -0.165061,-0.50462 0,-0.10191 -0.167646,-0.37064 -0.372398,-0.59728 -0.214472,-0.2374 -0.474209,-0.7181 -0.612568,-1.13383 -0.220585,-0.66286 -0.366487,-0.85297 -1.788681,-2.33154 -1.330784,-1.38353 -1.660869,-1.66534 -2.349078,-2.00546 -0.741097,-0.36628 -1.386775,-0.55543 -2.146687,-0.57209 z m 72.144064,0.85048 c -0.428664,-0.009 -0.944675,0.1712 -1.73381,0.56625 -1.25859,0.63007 -2.068184,1.3457 -2.876192,2.54247 -0.260944,0.38652 -0.617979,0.88287 -0.79337,1.10325 -0.175394,0.22039 -0.330078,0.47893 -0.344064,0.57434 -0.014,0.0954 -0.108337,0.26462 -0.209137,0.376 -0.320487,0.3541 -0.487592,0.94296 -0.507775,1.78733 -0.01078,0.45112 -0.09329,1.03675 -0.183051,1.30115 -0.199102,0.58625 -0.198396,1.69667 0.0014,2.2942 l 0.147969,0.44166 -0.06117,-0.6346 c -0.06459,-0.67321 0.01545,-0.81901 0.192945,-0.35217 l 0.107042,0.28245 0.271203,-0.31033 0.271204,-0.30988 -0.06207,0.44166 c -0.03444,0.24546 -0.162325,0.52926 -0.288294,0.63911 -0.256416,0.22358 -0.177661,0.35612 0.27795,0.46864 0.30084,0.0743 0.446467,-0.10139 0.16551,-0.19969 -0.103625,-0.0362 -0.09422,-0.10011 0.03823,-0.25726 0.09702,-0.11511 0.207424,-0.29628 0.245118,-0.40253 0.119159,-0.336 0.445058,-0.16506 0.473143,0.24826 0.0062,0.0911 0.02049,0.28988 0.03193,0.44167 l 0.02069,0.27569 0.18395,-0.33102 c 0.201331,-0.36239 0.194768,-0.57457 -0.02564,-0.828 -0.170739,-0.19634 -0.07248,-1.64505 0.12818,-1.89078 0.06795,-0.0832 0.187552,-0.37488 0.266256,-0.64809 0.07872,-0.27321 0.219144,-0.61624 0.311681,-0.76234 0.09255,-0.14611 0.225582,-0.74727 0.29594,-1.33578 0.205458,-1.71833 0.71622,-2.62178 1.811169,-3.20496 0.156386,-0.0833 0.547464,-0.13682 0.902661,-0.12368 0.344744,0.0128 0.991398,-0.0524 1.436974,-0.14437 0.85724,-0.17708 1.0745,-0.13658 2.35177,0.43986 0.18214,0.0822 0.673,0.30174 1.09066,0.48753 0.77763,0.34596 1.01451,0.54658 1.44417,1.22199 0.48828,0.76757 0.65132,1.50632 0.66969,3.0354 0.01,0.78929 0.0574,2.18248 0.10614,3.09568 0.065,1.21597 0.0537,1.72525 -0.0418,1.90382 -0.16889,0.31904 0.31017,0.15198 0.55455,0.38184 h 4.5e-4 c 0.008,0.0759 0.0358,0.0142 0.0612,-0.13763 0.073,-0.43588 0.38312,-1.36609 0.50823,-1.52377 0.22847,-0.28793 0.37577,-2.03621 0.29953,-3.55443 -0.09,-1.79292 -0.42307,-2.89717 -1.27821,-4.2349 -0.29922,-0.46812 -0.6481,-1.0253 -0.77537,-1.23818 -0.12727,-0.21287 -0.39454,-0.55508 -0.59368,-0.76054 -0.33699,-0.34763 -0.4203,-0.37681 -1.20355,-0.42142 -1.31113,-0.0747 -2.57253,-0.30003 -2.97289,-0.53071 -0.234458,-0.13509 -0.460164,-0.20801 -0.717363,-0.21319 z m 29.622752,0.50373 c -0.09,-0.005 -0.17594,-0.005 -0.25592,9e-4 -0.21326,0.0151 -0.38401,0.0691 -0.47494,0.16956 -0.1251,0.13821 -0.33783,0.21183 -0.61212,0.21183 -0.23119,0 -0.66383,0.0963 -0.96157,0.21364 -0.36909,0.14544 -0.57737,0.17734 -0.6544,0.10029 -0.077,-0.077 -0.17701,-0.004 -0.31438,0.22803 -0.16577,0.28065 -0.27162,0.34137 -0.59818,0.34137 -0.41897,0 -0.88016,0.32016 -0.88016,0.61122 0,0.17623 -0.38232,0.60312 -0.54017,0.60312 -0.0541,0 -0.12974,0.12552 -0.16821,0.27884 -0.0385,0.15333 -0.15573,0.36533 -0.2604,0.47135 -0.40351,0.40853 -0.9171,1.85789 -1.14239,3.22386 -0.13171,0.79863 -0.29836,3.21819 -0.23386,3.39431 0.0278,0.0759 0.11359,0.13808 0.19114,0.13808 0.0775,0 0.16543,0.0927 0.1952,0.20643 0.0428,0.16377 0.007,0.19471 -0.17136,0.14797 -0.18606,-0.0486 -0.21116,-0.0221 -0.14257,0.15201 0.0457,0.11603 0.16259,0.53366 0.2595,0.9283 0.0969,0.39464 0.29193,0.90391 0.43357,1.13159 0.30384,0.48846 0.50677,0.54793 0.33731,0.099 -0.0654,-0.17319 -0.0847,-0.40353 -0.0432,-0.51183 0.0704,-0.18346 0.0893,-0.18429 0.27705,-0.0144 0.19407,0.17556 0.20445,0.11566 0.2766,-1.61329 0.0818,-1.95978 0.22217,-3.28498 0.46415,-4.37792 0.13517,-0.61052 0.23017,-0.77675 0.70117,-1.22828 0.55001,-0.52734 1.13109,-0.85828 1.93979,-1.10416 0.24286,-0.0738 0.60435,-0.20268 0.80372,-0.28649 0.45019,-0.18911 0.65007,-0.19255 0.76368,-0.0126 0.0532,0.0843 0.35156,0.14665 0.75065,0.15562 1.14057,0.0268 1.29223,0.0552 2.0212,0.38229 0.61364,0.27532 1.6767,1.14399 1.6767,1.36996 0,0.039 0.0919,0.2027 0.20418,0.36386 0.11231,0.16116 0.26085,0.66542 0.33013,1.12078 0.23802,1.64506 0.19113,3.33917 0.33416,4.96757 0.061,0.15177 0.11394,0.21077 0.11829,0.13087 0.005,-0.0944 0.0843,-0.12107 0.22757,-0.0755 0.17291,0.0549 0.22084,0.02 0.22084,-0.16147 0.0828,-0.32234 0.46986,-0.57092 0.50868,-0.98002 0.23253,-0.77424 0.26724,-3.41915 0.0517,-3.93626 -0.0759,-0.18214 -0.1802,-0.55479 -0.23207,-0.828 -0.0519,-0.27321 -0.16678,-0.87513 -0.25501,-1.33758 -0.16439,-0.86188 -0.33859,-1.31194 -0.50823,-1.31194 -0.12318,0 -0.72273,-1.06692 -0.81765,-1.45497 -0.0431,-0.17606 -0.1732,-0.32486 -0.32068,-0.36654 -0.35631,-0.10072 -1.01449,-0.42666 -1.05783,-0.52397 -0.0203,-0.0456 -0.12422,-0.0828 -0.23117,-0.0828 -0.10696,0 -0.28912,-0.10489 -0.40478,-0.23297 -0.34925,-0.3868 -1.17594,-0.66776 -1.80577,-0.70162 z m -64.889945,2.26992 c -0.01613,-0.003 -0.0329,-0.002 -0.05037,0.005 -0.0699,0.025 -0.15064,0.12511 -0.24107,0.29999 -0.173169,0.33487 -0.129853,0.44529 0.396685,1.0133 0.165373,0.21829 0.245374,0.33177 0.615717,0.29504 0.288652,0.002 0.413206,-0.0182 0.2766,-0.045 -0.136605,-0.0268 -0.248265,-0.0951 -0.248265,-0.15157 0,-0.0952 0.719155,-0.15827 1.668146,-0.14617 l 0.398934,0.005 -0.273452,-0.25366 c -0.361489,-0.33502 -1.360471,-0.70162 -1.911914,-0.70162 -0.290059,0 -0.462367,-0.0566 -0.504177,-0.16551 -0.03605,-0.094 -0.07843,-0.14535 -0.126832,-0.15472 z m -35.91889,0.0346 c 0.502526,0.0398 1.086462,0.40229 1.750902,1.08752 0.40367,0.41629 0.861939,0.8238 1.018698,0.90535 0.49702,0.25868 0.790702,0.67496 0.946737,1.34252 0.08331,0.35648 0.187902,0.74319 0.232524,0.85904 0.07341,0.19051 0.04191,0.20404 -0.333719,0.14303 -0.228318,-0.037 -0.575349,-0.18907 -0.770882,-0.33822 -0.559021,-0.42639 -1.142107,-0.62246 -1.850747,-0.62246 -0.737471,0 -1.305643,0.23378 -1.305643,0.53745 0,0.11046 -0.09091,0.28316 -0.201941,0.38364 -0.197215,0.17846 -0.399982,0.20471 -0.84689,0.1102 -0.121428,-0.0257 -0.331347,-0.0701 -0.466848,-0.099 -0.135502,-0.0289 -0.322159,-0.1989 -0.414676,-0.37779 -0.232467,-0.44955 -0.976936,-0.84629 -1.746403,-0.9301 -0.405675,-0.0442 -0.725609,-0.14863 -0.871178,-0.28425 -0.226814,-0.21132 -0.227156,-0.21873 -0.02249,-0.52262 0.114186,-0.16956 0.259246,-0.40748 0.322475,-0.52891 0.164026,-0.31501 0.560908,-0.47481 1.538617,-0.62021 0.687507,-0.10227 0.950731,-0.2004 1.341623,-0.49878 0.2675,-0.20418 0.578083,-0.37105 0.689926,-0.37105 0.111843,0 0.359978,-0.0547 0.551401,-0.12144 0.07389,-0.0258 0.149788,-0.0427 0.228027,-0.0513 0.06846,-0.008 0.138696,-0.008 0.210485,-0.003 z m -5.856727,1.61013 c 0.0883,0 0.268022,0.28668 0.258161,0.41153 -0.0011,0.0137 0.06993,0.16258 0.157415,0.33101 0.122745,0.23634 0.12792,0.31642 0.02249,0.35036 -0.265271,0.0855 -0.703911,0.51755 -0.659793,0.64991 0.02553,0.0766 -0.05394,0.13402 -0.1853,0.13402 -0.126485,0 -0.229825,-0.0495 -0.229825,-0.11018 0,-0.0607 0.05554,-0.11065 0.123683,-0.11065 0.006,-0.0803 -0.131491,-0.29141 -0.01349,-0.49652 0.07558,-0.091 0.193843,-0.16597 0.262658,-0.16597 0.263806,-0.2261 0.426676,-0.48042 0.286495,-0.83115 -0.07884,-0.095 -0.08813,-0.16236 -0.02249,-0.16236 z m 134.731702,1.8494 c -0.86813,0.004 -1.7001,0.13444 -2.40664,0.37779 -0.18214,0.0627 -0.62924,0.19976 -0.99351,0.30449 -1.41283,0.40616 -2.37337,1.08455 -2.37337,1.67579 0,0.18057 -0.12958,0.46334 -0.30853,0.67374 -0.5169,0.60776 -0.66577,0.90923 -0.60537,1.22514 0.0313,0.16373 0.007,0.35936 -0.054,0.43491 -0.0611,0.0755 -0.14625,0.46035 -0.1889,0.85499 -0.0426,0.39464 -0.12087,0.92022 -0.17405,1.16801 -0.0532,0.24779 -0.0601,0.69488 -0.0153,0.99352 0.0447,0.29863 0.0534,0.7791 0.0189,1.06771 -0.0503,0.44793 0.11992,0.86833 -0.1075,1.34658 0,0.18538 -0.0994,0.6845 -0.22083,1.1091 -0.13808,0.48307 -0.22082,1.10318 -0.22082,1.65645 0,0.48629 -0.0521,1.05756 -0.11559,1.26966 -0.11532,0.38511 -0.14954,0.6357 -0.27121,1.98567 -0.0355,0.39428 -0.11195,0.76455 -0.17,0.8226 -0.0651,-0.0326 -0.10886,-0.17218 -0.22533,-0.0207 -0.0625,0.10673 -0.0854,0.23801 -0.0522,0.29189 0.0333,0.0539 -0.0163,0.12741 -0.10974,0.16326 -0.2888,0.11082 -0.49113,0.78934 -0.49113,1.64701 0,0.44719 -0.0333,0.84646 -0.0742,0.88736 -0.0406,0.0409 -0.0625,0.36983 -0.0477,0.73087 0.0168,0.41057 -0.0367,0.79248 -0.14257,1.02004 -0.25794,0.55362 -0.39602,1.29041 -0.25861,1.37535 0.0726,0.0448 0.0826,0.0174 0.0265,-0.0733 -0.0667,-0.10783 -0.029,-0.12914 0.14842,-0.0827 0.13098,0.0342 0.21034,0.0172 0.17631,-0.0378 -0.034,-0.0551 0.0282,-0.10055 0.13807,-0.10119 0.10982,-7.8e-4 0.74622,-0.22123 1.41403,-0.48979 0.66785,-0.26851 1.12202,-0.42043 1.00971,-0.33731 -0.11233,0.0832 -0.17342,0.201 -0.13583,0.26175 0.0375,0.0608 0.0175,0.33755 -0.0445,0.61482 -0.0782,0.35114 -0.0765,0.64663 0.007,0.97327 0.0657,0.25793 0.16007,0.72173 0.20959,1.03084 0.0495,0.30911 0.16554,0.70862 0.25815,0.88782 0.23697,0.45824 1.39405,1.62604 1.7707,1.78734 0.51883,0.23156 0.48183,0.85973 1.52782,0.79202 0.65059,0 2.10644,0.32701 2.3239,0.52216 0.1271,0.11407 0.55176,0.20302 1.25256,0.2622 1.07442,0.0907 1.31066,0.18003 1.42439,0.53837 0.0579,0.18246 0.58019,0.42239 1.43516,0.65979 0.18214,0.0505 0.59729,0.0973 0.92246,0.10344 l 0.59097,0.0113 0.70118,-0.74525 c 0.38559,-0.40982 0.70305,-0.79759 0.70566,-0.86173 0.003,-0.0642 0.21601,-0.20879 0.47404,-0.32113 0.25804,-0.11234 0.50625,-0.26656 0.55186,-0.34271 0.0456,-0.0762 0.28159,-0.17174 0.52441,-0.21273 0.29443,-0.0524 0.41278,-0.25326 0.67014,-0.44437 0.16322,-0.1192 0.13357,-0.25618 0.27525,-0.42637 0.23197,-0.089 0.19374,-0.5006 -0.0661,-0.71241 -0.20787,-0.16946 -0.2167,-0.24076 -0.11648,-0.94449 0.12115,-0.8507 0.19996,-0.97732 0.60762,-0.97732 0.24965,0 0.27442,-0.0338 0.21184,-0.28964 -0.039,-0.15938 -0.1129,-0.30624 -0.16416,-0.32652 -0.13261,-0.0523 -0.11317,-0.33893 0.0567,-0.82666 l 0.14707,-0.42187 0.81721,-0.0342 c 0.44958,-0.0188 1.21483,-0.11328 1.70053,-0.21048 0.48571,-0.0972 1.30545,-0.17813 1.82151,-0.179 1.20157,-0.003 3.33719,-0.2042 3.45908,-0.32608 0.0967,-0.0967 -0.19521,-1.60425 -0.36341,-1.87639 -0.0751,-0.12153 -0.15954,-0.12773 -0.40837,-0.0301 -0.60071,0.2357 -1.65039,0.34919 -3.53104,0.38139 l -1.89303,0.0324 -0.1754,-0.33327 c -0.30748,-0.58371 -0.51983,-1.30618 -0.41467,-1.41134 0.15341,-0.1534 1.53743,-0.28281 3.603,-0.33642 2.17475,-0.0564 2.48355,-0.13546 2.48355,-0.6364 0,-0.26039 -0.20026,-0.87643 -0.37825,-1.16397 -0.0136,-0.0219 -1.28437,0.15675 -2.05044,0.28829 -1.08951,0.18707 -2.37834,0.68092 -3.30885,1.26832 l -0.43897,0.27704 -0.16821,-0.32517 c -0.0925,-0.17896 -0.1682,-0.42134 -0.1682,-0.53836 0,-0.117 -0.0744,-0.391 -0.16551,-0.60896 -0.091,-0.21796 -0.16551,-0.59954 -0.16551,-0.84779 0,-0.24827 -0.0455,-0.65934 -0.1012,-0.91391 -0.0557,-0.25456 -0.16215,-0.761 -0.23612,-1.12529 -0.47882,-2.35774 -0.70012,-2.88921 -1.53952,-3.6979 -0.8768,-0.84479 -1.02745,-1.21792 -0.93234,-2.30814 0.0754,-0.86425 -0.0482,-1.36316 -0.67284,-2.71473 -0.0842,-0.18215 -0.2283,-0.60431 -0.32022,-0.93819 -0.0919,-0.33393 -0.4092,-0.97983 -0.70567,-1.43518 -0.42958,-0.6598 -0.68768,-0.92321 -1.27011,-1.2971 -0.40196,-0.25804 -0.82413,-0.46909 -0.9382,-0.46909 -0.11407,0 -0.38929,-0.12345 -0.61166,-0.27436 -0.85388,-0.57946 -1.39344,-0.75094 -2.35313,-0.74659 z m -57.986181,0.0558 c -0.198822,0.003 -0.432083,0.0264 -0.706567,0.0684 -0.491953,0.0752 -0.993513,0.1508 -1.114946,0.16821 -0.654323,0.0937 -1.048832,0.5113 -1.048832,1.11 0,0.1303 -0.05239,0.28945 -0.116487,0.35351 -0.117245,0.11723 -0.03697,0.15937 0.861733,0.45335 0.204326,0.0668 0.358457,0.0735 0.358457,0.0162 0,-0.0555 0.296301,-0.10074 0.658443,-0.10074 0.545465,0 0.678853,0.0379 0.776729,0.22083 0.139539,0.26073 0.318233,0.2755 0.817207,0.067 0.687834,-0.28738 0.909234,-0.96538 0.576134,-1.7626 -0.17695,-0.42355 -0.465407,-0.60217 -1.061871,-0.59413 z m -35.687714,0.10749 c -0.209639,0.004 -0.454708,0.25405 -0.357107,0.41197 0.11617,0.18797 0.546465,0.0901 0.58918,-0.13402 0.02029,-0.10642 -0.04501,-0.22509 -0.145271,-0.26356 -0.02739,-0.0105 -0.05685,-0.0149 -0.0868,-0.0144 z m 39.429685,0.51407 c -0.41826,-0.0199 -0.78629,0.055 -1.00791,0.22938 -0.35733,0.28106 -0.48797,1.06629 -0.22577,1.35601 0.097,0.10722 0.23117,0.3049 0.29819,0.43941 0.0721,0.14462 0.30165,0.29554 0.56174,0.36926 0.41758,0.11705 0.82636,-0.32689 1.52693,-0.12864 l 1.01015,0.0742 0.027,-0.62067 c 0.0147,-0.3414 -0.0252,-0.71759 -0.0886,-0.83609 -0.0634,-0.1185 -0.41974,-0.36275 -0.79157,-0.54286 -0.42335,-0.20508 -0.89188,-0.32008 -1.31014,-0.34002 z m 79.17916,0.9202 c -0.1053,-0.003 -0.2038,-0.002 -0.29685,0.003 -0.55827,0.0288 -0.91225,0.20059 -1.26336,0.57434 l -0.24243,0.25771 0.24063,0.48124 c 0.27658,0.55326 0.53561,0.79664 1.15587,1.08661 0.44694,0.20885 1.26722,0.27285 1.63666,0.12728 0.18131,-0.0714 0.17297,-0.0952 -0.0827,-0.23207 -0.15645,-0.0837 -0.28469,-0.18777 -0.28469,-0.23163 0,-0.17304 0.5453,-0.20445 0.84418,-0.0486 0.17314,0.0903 0.40549,0.16427 0.51588,0.16461 0.18772,6.3e-4 0.186,-0.02 -0.0274,-0.31978 -0.29161,-0.40954 -0.28712,-0.452 0.0477,-0.452 0.37337,0 0.36616,-0.34512 -0.0126,-0.61931 -0.15853,-0.11476 -0.34629,-0.25813 -0.41783,-0.31888 -0.3322,-0.28203 -0.66976,-0.38563 -1.4761,-0.45291 -0.11951,-0.01 -0.23158,-0.0165 -0.33686,-0.0193 z m -51.54479,0.12414 c -0.1855,-0.003 -0.33928,0.005 -0.42906,0.0292 -0.2438,0.0644 -0.59434,0.7833 -0.58738,1.20534 0.006,0.36064 0.30918,0.65745 0.69127,0.67599 0.74642,0.0363 1.79616,0.18123 1.95464,0.26986 0.21992,0.12316 0.22083,0.1228 0.22083,-0.058 0,-0.0864 -0.12998,-0.31145 -0.28874,-0.50014 -0.2097,-0.24923 -0.34825,-0.32411 -0.50643,-0.27389 -0.14518,0.0461 -0.29164,-0.0105 -0.43985,-0.16957 -0.2815,-0.30212 -0.2241,-0.35357 0.46774,-0.42006 0.45806,-0.044 0.6224,-0.01 0.88557,0.18485 0.21785,0.1611 0.32337,0.19175 0.32337,0.0944 0,-0.23168 -0.32055,-0.62381 -0.6418,-0.78573 -0.25229,-0.12717 -1.09364,-0.24266 -1.65016,-0.25231 z m -3.75006,0.0265 c -0.14655,0.004 -0.31982,0.0243 -0.53746,0.0562 -1.25395,0.18378 -1.55698,0.37898 -1.73966,1.1208 -0.0911,0.36992 -0.0741,0.372 0.31438,0.0382 0.30556,-0.26255 0.72205,-0.39713 1.22964,-0.39713 0.45331,0 0.2873,0.2089 -0.43762,0.5514 -0.6042,0.28549 -0.95618,0.63311 -0.95618,0.94404 0,0.09 0.31684,0.0526 0.3769,-0.0445 0.0542,-0.0877 0.46742,-0.15031 2.05178,-0.31078 1.08606,-0.11 1.39604,-0.68765 0.7448,-1.38704 -0.41089,-0.44131 -0.60694,-0.58226 -1.04658,-0.5712 z m 51.10087,0.0517 c -0.10189,0.002 -0.22312,0.01 -0.3724,0.0229 -1.59268,0.13886 -2.45792,0.71913 -2.45792,1.64791 0,0.26081 0.0641,0.47095 0.16236,0.53161 0.13775,0.0851 0.1291,0.1261 -0.0576,0.26716 -0.12178,0.0915 -0.1764,0.16826 -0.12278,0.17 0.20004,0.007 0.95123,-0.25535 0.95123,-0.33237 0,-0.0441 0.12392,-0.1036 0.2757,-0.13267 0.15179,-0.0291 0.27616,-0.01 0.27616,0.0423 0,0.0524 0.14888,0.0949 0.33101,0.0949 0.18214,0 0.33147,0.05 0.33147,0.11065 0,0.0607 -0.19879,0.11018 -0.44165,0.11018 -0.24285,0 -0.44167,0.05 -0.44167,0.11064 0,0.0607 0.23674,0.11019 0.52622,0.11019 0.3795,0 0.63994,-0.0772 0.93279,-0.27615 0.22337,-0.15179 0.45352,-0.2757 0.51183,-0.2757 0.11544,0 0.81166,-0.92997 0.92964,-1.24177 0.0961,-0.25383 -0.0135,-0.52442 -0.21229,-0.52442 -0.087,0 -0.3022,-0.10653 -0.47809,-0.23658 -0.20553,-0.152 -0.33838,-0.2042 -0.64404,-0.19879 z M 23.587585,99.47195 c 0.08553,0.002 0.176359,0.0328 0.305834,0.0949 0.17381,0.0833 0.31573,0.22551 0.31573,0.31572 0,0.26706 0.667444,0.27083 1.038936,0.006 0.175969,-0.12531 0.359051,-0.22803 0.40658,-0.22803 0.146454,0 -0.544504,0.67287 -0.860384,0.83789 v -8.9e-4 c -0.749363,0.39148 -2.289345,0.0427 -2.667055,-0.60403 l -0.216782,-0.37105 0.23882,0.12773 c 0.131372,0.0704 0.240417,0.0891 0.242419,0.0414 0.002,-0.0477 0.09997,0.0288 0.217682,0.17 0.213122,0.25574 0.440761,0.24341 0.440761,-0.0238 0,-0.0772 0.11862,-0.204 0.263557,-0.28155 0.107967,-0.0578 0.188378,-0.0861 0.273902,-0.0846 z M 155.58477,99.9244 c 0.20117,0.008 0.49418,0.0523 0.8397,0.12819 0.57286,0.12582 1.39421,0.79809 1.69153,1.3848 0.14884,0.29374 0.2703,0.59875 0.2703,0.67778 0,0.079 0.18654,0.36984 0.41422,0.64585 0.22767,0.276 0.48533,0.68474 0.57255,0.90851 0.0872,0.22378 0.19883,0.40702 0.24826,0.40702 0.0495,0 0.09,0.0495 0.09,0.1102 0,0.062 -0.30576,0.11019 -0.69622,0.11019 -0.76582,0 -2.03266,0.3603 -2.25687,0.6418 -0.0759,0.0953 -0.13808,0.26679 -0.13808,0.38094 0,0.11417 -0.074,0.28184 -0.16506,0.37285 -0.24018,0.24017 -0.32195,0.67665 -0.20914,1.11629 0.0724,0.28228 0.21182,0.44669 0.52577,0.61977 0.31456,0.1735 0.44031,0.1992 0.47809,0.0976 0.0309,-0.0832 0.234,-0.1333 0.51137,-0.12547 0.25302,0.007 0.37295,0.0357 0.2667,0.0634 -0.37799,0.0988 -0.19324,0.35702 0.37645,0.52621 0.41976,0.12469 0.81156,0.15019 1.49005,0.098 l 0.92064,-0.0706 v 0.62201 c 0,0.49766 -0.0659,0.72915 -0.33102,1.15993 -0.18213,0.29601 -0.33102,0.57731 -0.33102,0.62561 0,0.0483 -0.12933,0.25736 -0.28739,0.46459 -0.2192,0.28785 -0.26949,0.44673 -0.21048,0.67284 0.14621,0.56087 0.1213,1.06179 -0.0544,1.09695 -0.13514,0.0271 -0.15893,-0.0852 -0.12907,-0.61482 0.0344,-0.61132 0.0172,-0.66462 -0.31169,-0.94133 -0.19171,-0.16131 -0.43801,-0.29324 -0.54735,-0.29324 -0.25294,0 -0.50492,-0.2824 -0.34181,-0.3832 0.15185,-0.0939 0.14787,-0.56245 -0.008,-0.86622 -0.16001,-0.31252 -0.88349,-1.06907 -1.02229,-1.06907 -0.059,0 0.001,0.11494 0.13312,0.25546 0.29957,0.31887 0.30329,0.52442 0.0144,0.77178 -0.20427,0.1749 -0.24844,0.1774 -0.4664,0.0247 -0.13235,-0.0927 -0.32632,-0.16867 -0.43131,-0.16867 -0.25586,0 -0.88805,0.93239 -0.84375,1.24448 0.03,0.21117 0.0933,0.24121 0.45066,0.21318 0.29475,-0.0231 0.4344,0.0171 0.48079,0.13808 0.036,0.0938 0.15671,0.17046 0.26805,0.17046 0.11134,0 0.22819,0.0422 0.25996,0.0935 0.0318,0.0514 -0.28015,0.15368 -0.69352,0.22757 -0.41338,0.0739 -0.88863,0.20549 -1.05603,0.29234 -0.1674,0.0868 -0.5944,0.17767 -0.94898,0.20195 -0.52439,0.0359 -0.67944,0.006 -0.83025,-0.16101 -0.10192,-0.11269 -0.15595,-0.28089 -0.12009,-0.3742 0.10707,-0.279 -0.20836,-0.19507 -0.36475,0.0971 -0.14749,0.27559 -0.0883,0.91636 0.12099,1.30744 0.10129,0.18924 0.12142,0.18799 0.42142,-0.0256 0.17319,-0.12333 0.36501,-0.22398 0.42637,-0.22398 0.0614,0 0.12813,-0.0476 0.14841,-0.10569 0.0202,-0.0581 0.22161,-0.11771 0.44751,-0.13268 0.22589,-0.015 0.43566,-0.0917 0.46595,-0.17046 0.0851,-0.22181 1.71762,-0.20045 1.71762,0.0225 0,0.0911 0.0372,0.15943 0.0828,0.15247 0.33408,-0.0528 0.80002,0.0355 0.79741,0.15112 -0.002,0.0759 -0.14021,0.30316 -0.30808,0.50552 -0.23563,0.28404 -0.45518,0.40318 -0.96293,0.52262 -0.36174,0.0851 -0.79417,0.15564 -0.96113,0.15651 -0.29297,0.002 -0.44626,0.21427 -0.16596,0.23028 1.97441,0.11241 2.64696,0.26125 2.60049,0.57568 -0.0185,0.1251 -0.2575,0.38284 -0.53071,0.57255 -0.82919,0.57579 -2.20339,0.8291 -2.99043,0.5514 -0.6773,-0.23897 -0.42616,0.0699 0.40208,0.49473 0.39334,0.20175 0.93301,0.5588 1.1995,0.79337 0.26649,0.23458 0.53362,0.42682 0.59368,0.42682 0.17756,0.11983 0.25869,0.33219 0.54375,0.33282 0.44005,0.008 0.46722,0.25565 0.59908,0.66069 0.0583,0 0.26473,0.14875 0.45875,0.33057 0.19403,0.18186 0.43921,0.33069 0.54466,0.33102 0.22762,6.1e-4 0.56403,0.72553 0.48213,1.03894 -0.10354,0.39598 0.12612,0.63135 0.57434,0.58783 0.22407,-0.0217 0.52232,-0.1015 0.6625,-0.17765 0.14763,-0.0802 0.39118,-0.10881 0.57928,-0.0675 0.26343,0.0554 0.39369,-0.13011 0.68363,-0.22353 0.53256,-0.12525 0.54451,-0.12574 1.00611,-0.0274 0.23465,0.05 0.5189,0.0619 0.63146,0.0261 0.43441,-0.17626 0.2703,-1.43281 0.54375,-1.36275 0.1458,0.2496 -0.16123,1.23746 -0.56894,1.83005 -0.31456,0.45721 -1.63126,1.66805 -2.06843,1.90203 -0.11907,0.0637 -0.73685,0.28631 -1.37311,0.49473 -1.0494,0.34373 -1.27028,0.37776 -2.37876,0.36879 -1.43973,-0.0116 -2.27589,-0.2348 -3.5868,-0.95843 -1.16431,-0.64272 -1.44321,-0.9037 -1.84985,-1.72976 -0.33887,-0.68835 -0.34699,-0.73545 -0.21858,-1.30924 0.15674,-0.70035 0.26821,-0.81345 0.90985,-0.92245 0.61859,-0.10507 0.63323,-0.20481 0.30809,-2.10036 l -0.25232,-1.4716 -0.68003,-0.68094 c -0.50077,-0.50115 -0.74639,-0.85528 -0.93054,-1.34297 -0.79834,-2.11413 -0.86099,-6.40088 -0.12099,-8.27237 0.16954,-0.4288 0.3441,-0.94593 0.38814,-1.14957 0.22231,-1.02856 1.1067,-2.18763 1.92496,-2.52314 0.66881,-0.27424 1.82723,-0.84822 1.89077,-0.93684 0.0153,-0.0213 0.0549,-0.0355 0.11514,-0.0423 0.0452,-0.005 0.10205,-0.006 0.16911,-0.004 z m 31.70692,0.0774 c -0.0519,10e-4 -0.12032,0.0549 -0.20689,0.15921 -0.10715,0.12911 -0.11075,0.23314 -0.0157,0.44165 h -4.5e-4 c 0.18602,0.40826 0.34991,0.32894 0.34991,-0.1691 0,-0.2917 -0.0403,-0.434 -0.12683,-0.43176 z m -155.765905,0.49565 c -0.04625,0.004 -0.155147,0.0621 -0.281098,0.15517 -0.167935,0.12416 -0.627287,0.29294 -1.020947,0.3751 -0.532448,0.11106 -0.645154,0.16346 -0.439862,0.20419 0.151784,0.0302 0.310134,0.0619 0.351709,0.0697 0.240583,0.0478 1.412468,-0.6055 1.414034,-0.78842 1.04e-4,-0.0118 -0.0084,-0.0169 -0.02384,-0.0157 z m 30.422417,0.59863 c -0.507494,0 -0.593229,0.0299 -0.593229,0.20779 0,0.18321 0.338162,0.39102 0.579736,0.35621 0.04554,-0.007 0.08275,0.0622 0.08275,0.15336 0.08015,0.13342 0.208157,0.1507 0.331021,0.27166 0,0.0582 0.148387,0.0954 0.329671,0.0828 0.247238,-0.0174 0.315559,-0.0674 0.273452,-0.20059 -0.03088,-0.0977 0.01955,-0.24031 0.111989,-0.31708 0.427286,-0.35461 0.0257,-0.5541 -1.115395,-0.5541 z m 68.476298,0.0117 c -0.0211,-0.004 -0.0363,-0.004 -0.0459,4.6e-4 -0.0191,0.009 -0.0149,0.0347 0.0117,0.0778 0.0433,0.0701 0.2379,0.17316 0.43222,0.22938 0.19433,0.0563 0.3658,0.10589 0.38094,0.11199 0.0152,0.005 0.0274,-0.034 0.0274,-0.0881 0,-0.0541 -0.11967,-0.12834 -0.2658,-0.16507 -0.14615,-0.0367 -0.35297,-0.10031 -0.45965,-0.14122 -0.0328,-0.0126 -0.0598,-0.0211 -0.081,-0.0252 z m 42.43901,0.11605 c -0.0642,0.0129 -0.0622,0.13804 -0.0337,0.4367 l 0.0432,0.45426 0.17136,-0.35351 c 0.14684,-0.30317 0.14899,-0.36751 0.0148,-0.45246 -0.0948,-0.06 -0.15713,-0.0927 -0.19564,-0.085 z m -74.082964,0.006 c -0.191164,-0.018 -0.471083,0.12626 -1.06997,0.48034 -0.468554,0.27702 -0.991939,0.53168 -1.16262,0.56579 -0.376644,0.0753 -0.394515,0.30791 -0.05622,0.72096 0.293211,0.35806 0.648493,0.31899 0.835647,-0.0917 0.06758,-0.14835 0.201489,-0.29997 0.297739,-0.33687 0.09624,-0.0369 0.219824,-0.1844 0.274351,-0.32787 0.111451,-0.29316 0.735439,-0.72078 0.985416,-0.67508 0.12083,0.0221 0.173257,0.22372 0.200142,0.77357 l 0.03598,0.74436 h -0.769983 c -0.791588,0 -1.119893,0.0655 -1.119893,0.22442 0,0.19157 0.359968,0.43812 0.642702,0.43986 0.266266,0.002 0.769734,0.123 2.503343,0.60358 0.42311,0.0478 0.94194,0.0628 1.36096,0.0625 -0.0812,-0.0157 -0.0692,-0.0618 -0.0207,-0.12549 -0.21702,-0.025 -0.32893,-0.0459 -0.7475,-0.0783 -0.57331,-0.046 -1.303128,-0.31918 -1.917304,-0.46459 -0.08766,-0.14178 0.333011,-0.1417 0.827102,0 0.211172,0.0606 0.698342,0.13401 1.082562,0.16326 0.79461,0.0606 0.98355,0.1341 0.80461,0.31303 -0.0286,0.0285 -0.0326,0.0444 -0.0495,0.0666 0.33666,0.0388 0.65006,0.0767 0.62336,0.0976 0.0994,-0.01 0.17421,-0.0157 0.30134,-0.0301 0.79485,-0.0906 1.06286,-0.16912 1.33038,-0.38949 0.4836,-0.39839 0.36776,-0.80831 -0.45606,-1.61643 -0.79303,-0.77789 -0.94127,-0.8683 -1.03353,-0.62786 -0.0441,0.11495 0.0333,0.29094 0.20913,0.47449 0.15367,0.1604 0.27931,0.35756 0.27931,0.43807 0,0.0806 0.10504,0.3167 0.23342,0.52442 l 0.23342,0.37734 -0.6472,-0.0333 c -0.64667,-0.0335 -0.6475,-0.0337 -0.70747,-0.41962 -0.0331,-0.21251 -0.0119,-0.49951 0.0468,-0.63776 0.19634,-0.46242 -0.1315,-0.57328 -1.2031,-0.40658 -0.36363,0.0566 -0.48161,0.0274 -0.65215,-0.16101 -0.13792,-0.15241 -0.34259,-0.22983 -0.607617,-0.22983 -0.263308,0 -0.464717,-0.0755 -0.589181,-0.22083 -0.100477,-0.11736 -0.183038,-0.18663 -0.297739,-0.19744 z m 27.358224,0.10029 c -0.08,-4.5e-4 -0.16431,0.006 -0.23297,0.0189 v 4.4e-4 c -0.13733,0.0264 -0.0508,0.0495 0.19205,0.0504 0.2427,10e-4 0.35514,-0.0204 0.24961,-0.0481 -0.0528,-0.014 -0.12865,-0.0211 -0.20869,-0.0216 z m 60.43421,0.007 c -0.0181,-0.003 -0.0399,-7.9e-4 -0.0652,0.008 -0.0759,0.0253 -0.15393,0.12881 -0.1736,0.22982 -0.0248,0.12798 0.017,0.16341 0.13808,0.11694 0.17854,-0.0685 0.22732,-0.3343 0.10074,-0.35441 z m -168.256539,0.0904 c -0.09593,0 -0.229098,0.36423 -0.232075,0.63461 -8.29e-4,0.0759 0.07309,0.13807 0.164162,0.13807 0.115643,0 0.16551,-0.11649 0.16551,-0.38634 0,-0.21248 -0.04397,-0.38634 -0.0976,-0.38634 z m 74.761645,0.48889 c -0.02075,0.0146 -0.01087,0.10145 0.03058,0.25996 0.03485,0.13316 0.106195,0.2156 0.158763,0.18305 0.05255,-0.0325 0.03637,-0.15355 -0.03598,-0.2694 -0.08144,-0.13043 -0.132621,-0.1882 -0.153367,-0.17361 z m 29.478824,0.19609 c 0.0842,0.004 0.17356,0.17962 0.17226,0.39803 h 4.5e-4 c -0.003,0.51852 -0.18621,0.64633 -0.24556,0.17136 -0.0295,-0.23441 -0.0319,-0.46445 -0.006,-0.51092 0.0234,-0.0417 0.0506,-0.0597 0.0787,-0.0585 z m -96.41426,0.19789 c -0.565398,0 -0.86549,0.55529 -0.498329,0.92245 0.09107,0.0911 0.16551,0.26178 0.16551,0.37959 0,0.24707 -0.409454,0.34406 -1.213892,0.28741 -0.273212,-0.0192 -0.633604,0.0186 -0.800567,0.0841 -0.256924,0.10094 -0.303585,0.18362 -0.303585,0.53836 0,0.2305 -0.03016,0.49811 -0.06701,0.59412 -0.08498,0.22179 -0.581601,0.22888 -0.66564,0.01 -0.07673,-0.19998 -0.260858,-0.10987 -0.260858,0.12773 0,0.15589 0.169659,0.40094 0.776729,1.12259 0.119257,0.14176 0.216783,0.34722 0.216783,0.45606 0,0.10883 0.07382,0.25922 0.164161,0.33416 0.14374,0.11931 0.135267,0.17718 -0.06971,0.46505 -0.236231,0.32824 -0.27533,0.003 -0.588731,0.24107 -0.138703,0.18157 -0.138723,0.2379 0.0018,0.43851 0.08868,0.12661 0.161462,0.31832 0.161462,0.42592 0.268203,0.42922 3.141721,1.84247 3.652471,2.07338 0.11179,0 0.256524,0.0991 0.321577,0.22038 0.06497,0.12122 0.156631,0.22038 0.203739,0.22038 0.109452,0 0.568942,-0.61705 0.568942,-0.76414 0,-0.0611 0.301169,-0.32376 0.669237,-0.58333 0.787781,-0.55556 1.358093,-1.37771 1.251222,-1.80353 -0.03779,-0.15059 -0.01108,-0.3433 0.05937,-0.42816 0.09362,-0.11281 0.095,-0.17458 0.0049,-0.23028 -0.07031,-0.0434 -0.146796,0.0153 -0.178554,0.13673 -0.112478,0.43011 -0.678707,0.63593 -1.806221,0.65664 -0.57678,0.0107 -1.126798,0.0496 -1.221988,0.0868 -0.219278,0.0856 -0.765036,-0.33473 -0.765036,-0.58918 0,-0.1291 -0.178719,-0.25531 -0.551851,-0.38949 -0.452481,-0.16521 -1.111065,-0.43693 -0.931445,-0.92515 0.07907,-0.22548 0.116933,-0.52184 0.0841,-0.65845 -0.05629,-0.23418 -0.02589,-0.24826 0.534761,-0.24826 0.353669,0 0.691589,-0.0683 0.834298,-0.16821 0.31917,-0.22353 3.15487,-0.27541 3.54363,-0.0648 0.373452,0.20236 0.616629,0.0833 0.453354,-0.22174 -0.121743,-0.22745 -0.181026,-0.2345 -1.504885,-0.1835 -0.580381,0.0213 -1.413031,0.0744 -2.186266,-0.25276 l 0.568942,0.0418 c 0.636021,0.0468 0.921551,-0.0611 0.921551,-0.34856 0,-0.27311 -0.218614,-0.45831 -0.541057,-0.45831 -0.214646,0 -0.246501,-0.0296 -0.143472,-0.13267 0.07286,-0.0729 0.132679,-0.24254 0.132679,-0.37735 0,-0.18132 0.08405,-0.26361 0.323374,-0.31617 0.35708,-0.0784 0.614649,-0.32031 0.514072,-0.48305 -0.03588,-0.058 -0.353342,-0.0789 -0.711965,-0.0463 -0.420316,0.0381 -0.674194,0.0151 -0.724108,-0.0657 -0.04227,-0.0684 -0.219314,-0.12414 -0.393537,-0.12414 z m 68.561305,0.0499 c -0.09463,0.0155 -0.18506,0.17404 -0.205089,0.44751 -0.01778,0.24285 -0.108575,0.49888 -0.20194,0.56895 -0.09337,0.0701 -0.123827,0.15588 -0.06746,0.19069 0.05638,0.0348 0.135689,0.27538 0.175855,0.53476 0.04018,0.25938 0.252138,0.83677 0.470894,1.28271 0.218755,0.44592 0.422615,1.03381 0.453355,1.30654 0.0555,0.49238 0.05097,0.50048 -0.649448,1.13293 -0.407934,0.36835 -0.885627,0.94537 -1.132936,1.36862 -0.48038,0.8221 -1.4971,1.73544 -2.219098,1.99376 -0.244409,0.0875 -1.065291,0.42844 -1.824212,0.75784 -0.758918,0.32941 -1.826941,0.78583 -2.373364,1.0142 -1.899687,0.79398 -2.478071,1.151 -2.877091,1.77474 -0.889352,1.39029 -1.829953,4.24699 -2.3068,7.00585 -0.283543,1.64047 -0.334988,1.75705 -0.752892,1.70413 -0.195851,-0.0248 -0.435856,-0.15492 -0.542407,-0.29459 -0.226117,-0.29636 -0.378191,-0.88935 -0.240619,-0.93774 0.386664,-0.13607 0.398375,-0.2091 0.172706,-1.09246 -0.122204,-0.47836 -0.276937,-1.23046 -0.343613,-1.67129 -0.107011,-0.68649 -0.554653,-1.88056 -0.881073,-2.61084 l -0.247815,-0.42592 c -0.01393,-0.0744 0.01308,-0.52103 0.06027,-0.99216 0.09607,-0.95923 0.0045,-1.77272 -0.192046,-1.70458 -0.152813,0.30045 0.04795,0.60527 -0.334169,0.78168 -0.376121,0.0788 -0.857948,0.004 -1.246725,0.33597 -0.31877,0.097 -0.611303,-0.30377 -0.512273,-0.70162 0.06619,-0.26591 0.0573,-0.27327 -0.141223,-0.11783 -0.408665,0.31994 -0.485513,0.49823 -0.467297,1.07941 0.02369,1.2122 -0.906805,0.59624 -1.299346,-0.16641 -0.41152,-0.41153 -1.027895,-1.3244 -1.101003,-1.63036 -0.04352,-0.18214 -0.147974,-0.46811 -0.232074,-0.63507 -0.185766,-0.36871 -0.417551,-0.41063 -0.303136,-0.0549 0.04393,0.13659 0.09486,0.34765 0.113338,0.46909 0.111471,0.73281 0.558973,2.17501 0.8298,2.67561 0.174237,0.32204 0.316629,0.63763 0.316629,0.70116 0,0.0636 0.150379,0.33419 0.334169,0.60133 0.289955,0.4214 0.315726,0.51572 0.194295,0.71016 -0.187645,0.30048 -0.271505,0.28275 -0.468196,-0.0976 -0.09142,-0.17679 -0.291827,-0.41991 -0.445259,-0.54061 -0.166879,-0.13126 -0.25345,-0.28599 -0.215433,-0.38499 0.03495,-0.091 0.01722,-0.19422 -0.03958,-0.22938 -0.526785,0.83546 -0.0026,1.90267 0.550951,2.74397 -1.555095,-0.0973 -6.491951,-0.19879 -7.36386,3.22115 -0.422963,2.12573 0.57039,6.8936 1.789581,8.4815 0.40891,0 0.691586,0.21423 0.51542,0.3904 -0.06279,0.0628 -0.321578,0.12944 -0.575238,0.14841 -0.545267,0.0406 -0.612015,0.0902 -0.519019,0.38319 0.08854,0.27897 1.456868,1.81456 1.70008,1.90787 0.09998,0.0384 0.278461,0.17711 0.396684,0.30854 0.11511,0.12797 0.367589,0.3059 0.569391,0.40477 h 3.259834 c 0.0233,-0.36805 0.0605,-0.76252 0.103895,-0.99171 0.136972,-0.72341 0.128373,-1.76836 -0.01169,-1.41988 -0.05491,0.1366 -0.148002,0.24827 -0.206888,0.24827 -0.05888,0 -0.241031,0.2455 -0.404331,0.54555 -0.354144,0.65069 -0.525103,0.74055 -0.788873,0.41513 -0.10848,-0.13386 -0.383258,-0.36723 -0.610769,-0.51902 -0.234964,-0.15675 -0.509493,-0.47809 -0.635056,-0.7439 -0.121589,-0.25737 -0.22083,-0.48217 -0.22083,-0.49923 0,-0.017 0.377397,-0.0115 0.838795,0.0117 0.731978,0.037 0.880942,0.0113 1.169367,-0.20194 0.221019,-0.16338 0.437237,-0.22895 0.651697,-0.19744 0.313531,0.046 0.320676,0.0361 0.320676,-0.44931 0,-0.27315 -0.07065,-0.89796 -0.156965,-1.3884 -0.375055,-2.13107 -0.289511,-3.18612 0.232973,-2.86719 0.148948,0.0909 0.220898,0.32909 0.282447,0.93819 0.152686,1.51064 0.434487,3.01886 0.709716,3.79685 0.265655,0.75088 0.271184,0.82942 0.199242,2.78713 l -0.01979,0.53521 h 72.357701 c -1.85184,-1.40064 -3.82127,-3.89236 -3.84947,-5.44475 0.24134,-0.75545 0.26037,-0.88199 0.24287,-1.60383 -0.0112,-0.46423 -0.0353,-0.51309 -0.20599,-0.42187 -0.66164,0.34338 -1.29496,0.15065 -2.07652,-0.14842 -0.52689,-0.21664 -0.65037,-0.31459 -0.62922,-0.49788 0.0145,-0.12543 -0.0206,-0.22802 -0.0783,-0.22802 -0.19532,0 -0.66564,0.60379 -0.66564,0.85453 0,0.27292 -0.011,0.28071 -0.2667,0.18261 -0.80984,-0.8571 -0.36947,-1.58494 0.11693,-2.93017 0.20384,-0.41243 0.3706,-0.79278 0.3706,-0.84509 0,-0.1913 0.84427,-0.99641 1.43517,-1.36861 0.61888,-0.38982 2.23924,-1.11762 2.78669,-1.25167 0.16654,-0.0408 0.27643,-0.11653 0.24422,-0.16866 -0.0322,-0.0521 -0.22576,-0.65554 -0.42997,-1.34072 -0.2042,-0.68518 -0.44619,-1.41967 -0.53791,-1.63217 -0.29555,-0.68443 -2.53278,-3.02855 -3.25668,-3.4123 -0.14052,-0.0745 -0.88583,-0.23197 -1.65601,-0.34991 -1.85258,-0.28368 -3.98995,-0.80673 -5.13711,-1.25707 l -0.92875,-0.3643 0.15202,0.29099 c 0.0836,0.16004 0.15247,0.54949 0.15247,0.86578 8.2e-4,0.70393 -0.25346,0.99253 -1.32408,1.50218 -0.66203,0.31518 -0.8267,0.3447 -2.12825,0.385 -0.77584,0.0241 -1.52069,0.0157 -1.65556,-0.0189 -0.40598,-0.1041 -1.13525,-1.49556 -0.86982,-1.6596 0.18024,-0.11139 0.90997,0.16991 1.27685,0.49203 0.30676,0.26935 0.46749,0.32518 0.9355,0.32518 0.63601,0 0.74557,-0.17189 0.23342,-0.36521 -0.36348,-0.13717 -0.41781,-0.3605 -0.16865,-0.68992 0.44904,-0.76077 0.46631,-2.63584 1.16487,-2.6945 0.0897,0.0567 0.19561,0.10417 0.23521,0.1048 0.12874,0.003 0.29151,-0.61782 0.23703,-0.90311 -0.0394,-0.20596 0.0212,-0.33622 0.23297,-0.50283 0.18735,-0.14994 0.28555,-0.37329 0.39758,-0.61167 0.35195,-0.41913 0.64656,-0.99168 0.71332,-1.3866 0.0419,-0.24795 0.17453,-0.57599 0.29459,-0.7286 0.12005,-0.15263 0.24683,-0.46446 0.28199,-0.69308 0.0351,-0.22861 0.11196,-0.50829 0.17001,-0.62156 0.0799,-0.15572 0.0691,-0.19376 -0.0432,-0.15651 -0.0818,0.0271 -0.23088,0.35295 -0.33148,0.72411 -0.0927,0.33656 -0.36622,1.4075 -0.97641,0.9076 -0.15178,-0.11872 -0.43729,-0.21726 -0.63461,-0.21813 -0.63072,0.0541 -0.58154,1.95408 -1.53727,2.3158 -0.76091,0.32677 -2.159,0.61584 -3.29221,0.18124 -0.12706,-0.10308 -0.31942,-0.14619 -0.38634,-0.30808 0,-0.0696 -0.17853,-0.39543 -0.39669,-0.7241 -0.41332,-0.62861 -0.27665,-1.31171 -0.91031,-2.05224 l -0.31347,-0.39444 c -0.36145,0.21981 -0.92228,0.30847 -0.97867,0.70612 0.0169,0.15327 -0.01,0.30362 -0.0594,0.33417 -0.0934,0.0577 -0.0637,1.13994 0.0427,1.5593 0.0336,0.13224 0.16183,0.43045 0.2847,0.66249 0.74215,1.55872 1.14191,5.67819 3.0282,5.89721 0.0572,0.21863 0.0314,0.22769 -0.4466,0.15606 -0.61442,-0.0921 -2.14845,-0.64615 -2.65447,-0.95888 -0.47898,-0.29604 -0.72608,-0.68424 -0.65889,-1.03579 l 0.054,-0.28199 -0.23883,0.22443 c -0.13144,0.12345 -0.41078,0.28267 -0.62066,0.35395 -0.20989,0.0712 -0.50576,0.21517 -0.65754,0.31978 -0.43989,0.30319 -2.17273,1.14905 -3.48426,1.70053 -1.51273,0.63604 -1.73985,0.76098 -2.42149,1.33218 -1.02322,0.85749 -1.1374,0.85436 -1.37536,-0.0355 -0.22429,-0.83877 -0.80761,-1.6053 -1.64431,-2.16153 -0.41992,-0.27917 -0.79661,-0.50733 -0.837,-0.50733 -0.0404,0 -0.79276,-0.40164 -1.67219,-0.89231 -0.87942,-0.49067 -2.10668,-1.13156 -2.72687,-1.42393 -1.61147,-0.75971 -2.35308,-1.37153 -2.85595,-2.35672 -0.44175,-0.86548 -1.15541,-1.76835 -1.31824,-1.66771 -0.0567,0.035 -0.0778,0.10385 -0.0472,0.15337 0.0306,0.0495 0.0123,0.43417 -0.0405,0.85499 -0.10276,0.81834 -0.52523,1.84612 -0.88467,2.15253 -0.20666,0.17617 -0.2228,0.17617 -0.27345,0 -0.0297,-0.10302 -0.0447,-0.5847 -0.0333,-1.07042 0.0169,-0.72378 0.0667,-0.94736 0.2748,-1.23907 0.13961,-0.19577 0.2454,-0.41908 0.23522,-0.49654 -0.0494,-0.37455 0.0309,-0.63065 0.2838,-0.90356 0.47408,-0.45718 1.19495,-1.14903 1.23099,-1.73515 -0.23898,0.1959 -0.50741,-0.47701 -0.96878,-0.0288 -0.18212,0.16482 -0.1838,0.19741 -0.0193,0.44841 0.1714,0.26158 0.16424,0.28332 -0.21408,0.65079 -0.65425,0.63547 -1.19844,0.81291 -2.33379,0.75964 -0.53901,-0.0253 -1.03556,-0.0916 -1.103705,-0.14752 -0.06815,-0.0558 -0.422344,-0.13766 -0.786624,-0.1817 -0.738316,-0.0893 -1.315671,-0.34157 -1.672643,-0.73085 -0.390707,-0.42608 -0.700721,-1.07046 -0.700721,-1.45632 0,-0.2585 -0.09475,-0.45323 -0.331021,-0.67958 -0.182137,-0.1745 -0.33102,-0.38169 -0.33102,-0.46054 0,-0.13353 -0.620831,-0.46266 -0.990813,-0.52532 -0.08965,-0.0152 -0.191243,-0.14749 -0.225778,-0.29369 -0.03896,-0.16503 -0.101586,-0.25166 -0.16641,-0.2694 -0.0135,-0.004 -0.02696,-0.004 -0.04048,-0.002 z m 86.082005,0.99037 c -0.17336,-7.3e-4 -0.40026,0.003 -0.69622,0.009 -0.69151,0.0145 -1.31203,0.0604 -1.3794,0.10209 -0.18915,0.11689 -0.14576,0.37637 0.098,0.58513 0.26743,0.22897 0.27661,0.39346 0.0423,0.75109 -0.0981,0.14977 -0.15362,0.36741 -0.12324,0.48349 0.0725,0.27711 -0.20243,0.36163 -1.1887,0.3625 -1.2849,0.002 -1.3659,-0.14003 -0.5793,-1.01465 0.22768,-0.25314 0.41379,-0.481 0.41379,-0.50642 0,-0.0255 -0.17384,-0.0463 -0.38634,-0.0463 -0.2125,0 -0.38634,-0.0534 -0.38634,-0.11828 0,-0.21624 -0.49518,-0.0513 -0.60628,0.20194 -0.12034,0.27434 -0.19385,0.30534 -0.98002,0.41243 -0.39698,0.0541 -0.50507,0.1057 -0.41378,0.19699 0.068,0.068 0.12369,0.20781 0.12369,0.31033 0,0.29945 0.77504,2.64641 1.06188,3.21531 0.14438,0.28637 0.26265,0.57383 0.26265,0.6391 0,0.0653 0.0969,0.22271 0.21544,0.34992 0.11851,0.12721 0.37005,0.53512 0.55904,0.90626 0.45323,0.88999 1.02612,1.70731 1.45856,2.08101 0.34727,0.30009 0.34973,0.31092 0.35756,1.37986 0.004,0.59257 0.0383,1.12714 0.0756,1.1878 0.1423,0.232 0.21285,0.80942 0.10703,0.87478 -0.10924,0.0675 -0.76544,-0.0551 -1.15767,-0.21634 -0.18824,-0.0758 -0.16159,0.63843 -0.7313,0.71197 -0.36853,0.18729 -0.73803,0.34092 -0.8208,0.34092 -0.0828,0 -0.17873,0.0744 -0.21363,0.16551 -0.54153,0.4314 -0.86289,-0.44691 -0.51228,-0.93145 0,-0.193 0.32507,-0.40978 0.70567,-0.47045 0.11492,-0.0183 0.26419,-0.12362 0.33147,-0.23432 0.10403,-0.17129 0.0398,-0.27369 -0.42997,-0.68767 -0.54653,-0.48163 -0.85831,-0.5994 -0.99666,-0.37555 -0.0482,0.0779 -0.12685,0.0701 -0.24107,-0.0247 -0.15056,-0.12502 -0.16085,-0.0609 -0.0918,0.57434 0.11975,1.10208 0.48884,3.1556 0.7277,4.0469 l 0.3,0.14482 h 0.49608 c 0.3063,0 0.54885,0.0633 0.63371,0.16551 0.19848,0.23914 0.41143,0.20414 0.61121,-0.10075 0.096,-0.14656 0.35786,-0.35155 0.58198,-0.4556 0.22413,-0.10405 0.49979,-0.26984 0.61258,-0.36835 0.19239,-0.16805 0.22473,-0.15545 0.52216,0.2006 0.17436,0.20869 0.33594,0.35756 0.35935,0.33102 0.0234,-0.0266 0.1008,-0.16024 0.17182,-0.29685 0.16,-0.30753 0.49229,-0.31907 0.78392,-0.0274 0.15623,0.15272 0.3888,0.17692 0.55185,0.30899 0,0.0485 0.1861,0.09 0.41377,0.0908 1.09674,0.007 4.38132,0.29501 5.21583,0.4574 2.70758,0.48682 6.38085,0.84761 9.85416,1.19231 v -2.05269 c -2.49033,-0.37374 -4.83775,-1.0691 -7.71962,-0.95483 -0.47588,-0.10231 -1.18804,-0.19483 -1.58269,-0.20554 -0.39463,-0.0107 -1.23321,-0.13011 -1.86379,-0.26581 -0.93657,-0.20153 -1.19274,-0.22217 -1.39694,-0.11289 -0.0905,0.0467 -0.64064,0.12509 -0.35441,0.006 0.32006,-0.0144 0.21713,-0.22919 -0.11019,-0.22982 -0.3362,-6.9e-4 -0.89001,-0.1297 -1.7662,-0.41108 -0.68191,-0.21901 -0.74011,-0.42172 -0.22892,-0.79966 0.31902,-0.23583 0.39637,-0.24858 0.85544,-0.13988 0.27762,0.0657 0.75335,0.17612 1.05692,0.24557 0.88272,0.20186 0.8751,0.19754 0.70207,0.40612 -0.31032,0.37411 0.51997,-0.15583 0.87163,-0.55634 0.18541,-0.21115 0.4982,-0.51323 0.70612,-0.48259 2.95449,0.38433 7.22725,-0.0437 10.83058,0.75604 v -0.8316 c -0.53271,-0.13868 -1.06356,-0.28318 -1.51972,-0.44796 -1.79325,-0.6454 -5.11683,-0.92392 -7.76415,-0.87388 -0.34403,0.006 -0.8984,0.0715 -1.23233,0.14572 -0.75451,0.16789 -1.06843,0.17338 -1.36726,0.0247 -0.1285,-0.0639 -0.42174,-0.19128 -0.6517,-0.2829 -0.40472,-0.16131 -0.42538,-0.15771 -0.6544,0.10569 -0.26728,0.30172 -0.53981,0.52764 -0.94223,0.4601 -0.15973,-0.005 -0.18973,-0.64192 -0.0378,-0.80102 0.0551,-0.0577 0.23116,-0.4275 0.39129,-0.82215 0.38468,-0.948 0.49335,-1.20188 0.69172,-1.61868 0.0914,-0.19215 0.13331,-0.40264 0.0931,-0.46774 -0.0735,-0.11895 0.0465,-0.31018 0.41018,-0.65304 0.57764,-0.54452 1.57286,-3.22161 1.1977,-3.22161 -0.053,0 -0.1287,0.20241 -0.16821,0.44976 -0.0677,0.42361 -0.0898,0.446 -0.37959,0.38229 -0.22775,-0.05 -0.36023,-0.009 -0.51093,0.15741 -0.11197,0.12373 -0.29325,0.22488 -0.40253,0.22488 -0.14244,0 -0.22023,0.11696 -0.2748,0.41378 -0.19934,1.08391 -1.31675,1.63988 -3.12355,1.55345 -0.82232,-0.0393 -1.06468,-0.0934 -1.34163,-0.29818 -0.18595,-0.13748 -0.51597,-0.27868 -0.73311,-0.31393 -0.2474,-0.0402 -0.41348,-0.13631 -0.44525,-0.25771 -0.0279,-0.10657 -0.14548,-0.2188 -0.26131,-0.24917 -0.36986,-0.0967 -0.2805,-0.77523 0.16641,-1.26291 l 0.37734,-0.41153 2.01986,-0.0247 c 1.5911,-0.0193 2.0893,0.01 2.34458,0.13718 0.17826,0.0889 0.38881,0.16191 0.46775,0.16191 0.19876,0 0.31204,-0.69711 0.15966,-0.98182 -0.14763,-0.27589 -0.72035,-0.32282 -0.81856,-0.067 -0.0848,0.22097 -0.29144,0.21166 -0.29144,-0.013 0,-0.0982 -0.19078,-0.36363 -0.42412,-0.59009 -0.52824,-0.51263 -0.61299,-0.80147 -0.33776,-1.15137 0.11559,-0.14686 0.21003,-0.36458 0.21003,-0.48349 0,-0.15268 -0.0412,-0.19706 -0.5613,-0.19924 z m -51.10356,0.0634 c -0.10649,0.003 -0.21029,0.035 -0.2784,0.0985 -0.058,0.0541 -0.3762,0.0593 -0.71196,0.0121 -0.33392,-0.047 -0.74916,-0.0591 -0.9229,-0.0265 -0.29457,0.0552 -0.31218,0.0875 -0.25996,0.47674 0.0622,0.46403 0.33009,0.80573 0.72815,0.9283 0.47874,0.14738 0.0126,0.27395 -1.01509,0.2757 -0.53525,9.2e-4 -1.06948,0.0532 -1.18691,0.11604 -0.17654,0.0944 -0.21364,0.0778 -0.21364,-0.0967 0,-0.11612 0.0748,-0.27301 0.16596,-0.34855 0.091,-0.0756 0.16552,-0.20817 0.16552,-0.29459 0,-0.27449 -0.5322,0.20211 -0.61122,0.54735 -0.0896,0.3913 0.19413,0.84893 0.53071,0.85589 0.1352,0.003 0.39489,0.0735 0.57704,0.15696 0.62504,0.28622 1.10414,0.19219 1.10414,-0.21678 0,-0.1434 0.0774,-0.22511 0.22083,-0.23207 0.12144,-0.006 0.25762,-0.0249 0.30314,-0.0414 0.17455,-0.0635 0.36324,-0.07 0.4664,-0.0157 0.059,0.0311 0.43169,0.0599 0.828,0.0625 0.71622,0.006 0.72045,0.008 0.69983,0.30943 -0.0244,0.3567 0.16515,0.39494 0.58737,0.11829 0.22645,-0.14839 0.32431,-0.15951 0.49114,-0.0553 0.29118,0.18185 0.29938,0.17724 0.48619,-0.26985 0.26801,-0.64146 0.21169,-0.95665 -0.2748,-1.54536 -0.24287,-0.29391 -0.44122,-0.57259 -0.44122,-0.61932 0,-0.0467 -0.0436,-0.0846 -0.0967,-0.0846 -0.12892,0 0.29226,0.85843 0.61346,1.25033 0.14065,0.17162 0.25591,0.35772 0.25591,0.41377 0,0.14388 -1.14605,0.11364 -1.92585,-0.0508 -0.66698,-0.14064 -0.63536,-0.28874 0.0616,-0.28874 0.4131,0 0.51753,-0.25239 0.29145,-0.70432 -0.0947,-0.18939 -0.20048,-0.43121 -0.23477,-0.53746 -0.0329,-0.10195 -0.15773,-0.16848 -0.2973,-0.188 -0.0349,-0.005 -0.0706,-0.007 -0.10614,-0.006 z m -71.77256,0.11064 c -0.05468,0 -0.223314,0.28597 -0.374648,0.63506 -0.411806,0.94995 -0.694846,1.6433 -0.926947,1.73291 -1.76829,0.68273 -3.535481,1.3653 -5.267996,2.13635 -1.195184,0.59491 -1.594472,0.86497 -0.768634,0.51991 0.52559,-0.21959 0.618739,-0.21092 0.550052,0.0517 -0.04307,0.16468 0.02083,0.2495 0.258611,0.34271 0.314908,0.12346 0.314008,0.12448 -0.289644,0.28245 -0.333079,0.0871 -0.900124,0.30556 -1.259767,0.48529 -0.726589,0.36309 -0.934834,0.40896 -0.729055,0.16101 0.265252,-0.21063 0.643146,-0.40009 0.966076,-0.62381 l 0.524417,-0.24782 -0.361155,-0.0405 c -0.207608,-0.0232 -0.331155,-0.0877 -0.291442,-0.15201 0.03797,-0.0614 -0.281212,0.0784 -0.708816,0.31077 -0.42761,0.23233 -0.730603,0.43893 -0.673735,0.45921 0.170593,0.37375 0.512408,0.41375 0.05217,0.83339 -0.259879,0.17028 -0.283848,0.16491 -0.551851,-0.12413 -0.15412,-0.16622 -0.280198,-0.34135 -0.280198,-0.38904 0,-0.1104 -0.49463,0.14927 -0.990364,0.51992 -1.000471,0.74704 -1.462509,2.15417 -1.940249,3.35248 -0.364712,1.19747 -0.667812,2.85733 -1.548061,3.76671 -0.08658,-0.0718 -0.157415,-0.27325 -0.157415,-0.44795 -0.87142,-2.45809 -8.593286,-3.58003 -11.380185,-4.79441 -0.05532,-0.0342 -0.100273,-0.0222 -0.100295,0.027 -2.3e-5,0.0491 0.26052,0.3211 0.579286,0.60448 0.492839,0.43812 0.561601,0.54534 0.459202,0.71737 -0.303817,0.51034 -2.299642,1.2114 -4.400866,1.54536 -1.506203,0.23938 -3.6799,0.15657 -4.751226,-0.1808 -1.071366,-0.33739 -2.115302,-0.93565 -2.318494,-1.32858 -0.09138,-0.1767 -0.290151,-0.44533 -0.441661,-0.59683 -0.223725,-0.22372 -0.2757,-0.38401 -0.2757,-0.85454 v -0.57928 l -0.424121,0.41422 c -0.485987,0.47453 -1.064029,0.67965 -2.373364,0.84149 -0.495125,0.0612 -1.256751,0.19425 -1.691983,0.29594 -0.929909,0.21627 -1.722467,0.0712 -2.521784,0.0252 v 21.27347 h 34.939773 v -0.0598 c 0,-1.66089 0.102736,-2.32511 0.47764,-3.08847 0.313304,-0.63792 0.486107,-0.68419 0.568492,-0.15292 0.03591,0.23156 0.173335,0.81814 0.305835,1.30384 0.152397,0.55865 0.232608,1.20468 0.265356,1.99737 h 11.249305 c -0.160854,-3.72349 -0.24751,-7.47029 0.0904,-11.69006 -0.04653,-0.26974 -0.01956,-0.51893 0.07556,-0.69667 0.118456,-0.22135 0.120898,-0.32015 0.01214,-0.49429 -0.14395,-0.2305 -0.175664,-4.46193 -0.03508,-4.68106 0.03895,-0.0607 0.12925,-0.62548 0.200591,-1.25527 0.07134,-0.6298 0.17426,-1.18982 0.228926,-1.24448 0.05893,-0.0589 0.179171,-0.0115 0.295041,0.11649 0.660057,0.65955 0.304842,1.04717 0.907158,2.1161 0.08276,0.0959 0.150668,0.25426 0.150668,0.35216 0,0.0979 0.05732,0.21302 0.127282,0.25636 0.0932,0.0576 0.104508,-0.0509 0.04318,-0.40703 -0.04604,-0.26733 -0.09946,-0.65167 -0.118736,-0.85408 -0.01929,-0.2024 -0.169158,-0.64279 -0.333269,-0.97823 l -0.298639,-0.60987 0.44301,-0.443 c 0.400096,-0.40003 0.473634,-0.43248 0.759189,-0.33597 0.505584,0.17094 0.862952,-0.0246 1.269212,-0.69487 0.222312,-0.36682 0.439563,-0.59953 0.560397,-0.59953 0.240583,0 0.241484,0.0316 0.02339,0.88287 -0.203413,0.79402 -0.111307,1.28887 0.123234,0.66249 0.07957,-0.2125 0.148304,-0.5235 0.152917,-0.69128 0.0142,-0.5157 0.557921,-1.29529 0.90311,-1.29529 0.106507,0 0.273884,0.08 0.371949,0.1781 0.09806,0.0981 0.355303,0.21825 0.57209,0.26716 0.337812,0.0762 0.402245,0.0585 0.449756,-0.12323 0.0607,-0.23204 0.10919,-0.24334 1.078516,-0.25726 l 0.662041,-0.0103 v -0.57659 -0.57658 l -0.496531,-0.0612 c -0.563112,-0.0693 -1.431889,-0.46909 -1.558405,-0.71736 -0.04641,-0.0911 -0.208733,-0.45163 -0.361155,-0.80147 -0.152424,-0.34982 -0.350239,-0.66427 -0.439412,-0.69847 -0.103095,-0.0396 -0.43665,0.21548 -0.916154,0.70072 -1.068811,1.08161 -2.014599,1.47729 -3.900286,1.63172 -0.497844,0.0408 -1.025823,0.0173 -1.324533,-0.0594 -0.273207,-0.0701 -0.596389,-0.1254 -0.71826,-0.12279 -0.121873,0.003 -0.439536,-0.1672 -0.705668,-0.37779 -0.266131,-0.2106 -0.583788,-0.38275 -0.706118,-0.38275 -0.110705,-0.012 -1.123752,-0.69623 -1.077616,-0.85993 0.266898,-0.50108 0.357478,-0.93484 0.275701,-1.32048 -0.06502,-0.30652 -0.207727,-0.31409 -0.515421,-0.0274 -0.130338,0.12148 -0.277253,0.22083 -0.326523,0.22083 -0.250139,0 0.06856,-0.95801 0.422322,-1.26922 0.06919,-0.0609 0.177813,-0.28447 0.241069,-0.49698 0.139206,-0.46768 0.136215,-2.64952 -0.0036,-2.64952 z m 46.74767,0.31259 c -0.13914,0.0306 -0.39844,0.52074 -0.2658,0.73984 0.10612,0.10612 0.34586,-0.30296 0.34586,-0.59007 -6.9e-4,-0.11898 -0.0337,-0.15997 -0.0801,-0.14977 z m -72.242557,0.7367 c -0.03367,9.7e-4 -0.11192,0.0838 -0.202391,0.22038 -0.120626,0.18215 -0.219489,0.44434 -0.219931,0.58243 -7e-4,0.24188 0.01319,0.23799 0.385441,-0.10075 0.417181,-0.37958 0.481901,-0.537 0.220831,-0.537 -0.09107,0 -0.165968,-0.0618 -0.16641,-0.13763 -1e-4,-0.019 -0.0063,-0.0278 -0.01754,-0.0274 z m 120.716397,0.1763 c -0.16394,0.006 -0.36249,0.0501 -0.68363,0.13403 -0.72285,0.18888 -1.49905,0.73309 -1.31194,0.9202 0.0434,0.0434 0.1377,0.0202 0.20959,-0.0517 0.0804,-0.0804 0.49767,-0.13042 1.08526,-0.13042 0.81411,0 0.98363,0.0325 1.15407,0.22082 0.24024,0.266 0.3228,0.28196 0.23208,0.0454 -0.0476,-0.12399 0.0298,-0.21147 0.26446,-0.29999 0.18224,-0.0688 0.33146,-0.15627 0.33146,-0.1943 0,-0.13785 -0.39586,-0.41062 -0.80596,-0.55545 -0.18217,-0.0643 -0.31146,-0.095 -0.47539,-0.0886 z m -29.86607,0.65125 c -0.15652,0 -0.0354,0.61997 0.18755,0.96022 0.0916,0.13979 0.22719,0.25226 0.30178,0.25052 0.0909,-0.002 0.0808,-0.0478 -0.031,-0.13808 -0.0915,-0.0739 -0.15037,-0.24341 -0.13088,-0.37689 0.0412,-0.28272 -0.15319,-0.69577 -0.32742,-0.69577 z m 35.34095,0.0333 c 0.0243,-4.3e-4 0.0447,0.002 0.0612,0.009 0.0883,0.0339 0.16056,0.10298 0.16056,0.15337 0,0.11345 -0.65307,0.35666 -0.95753,0.35666 -0.12343,0 -0.35568,0.12186 -0.51632,0.27075 -0.16065,0.14888 -0.29234,0.23202 -0.29234,0.18485 0,-0.24299 1.18018,-0.96771 1.54446,-0.97417 z m -131.564517,0.57119 c -0.0706,-0.006 -0.149658,0.0105 -0.232524,0.0549 -0.251732,0.13472 -0.254358,0.12472 0.159665,0.63191 0.170382,0.20872 0.265495,0.16959 0.343613,-0.14168 0.07569,-0.30162 -0.05896,-0.52636 -0.270754,-0.5451 z m 131.445787,0.18171 c 0.0383,0.002 0.0716,0.0118 0.0899,0.0301 0.0367,0.0366 -0.0285,0.0632 -0.14483,0.058 -0.12854,-0.005 -0.15504,-0.0318 -0.067,-0.067 0.0398,-0.0158 0.0835,-0.0227 0.12189,-0.0211 z m -4.71031,0.0661 c -0.1614,-0.008 -0.35318,0.01 -0.58018,0.0513 -0.66794,0.12139 -1.09659,0.3136 -1.33127,0.59683 -0.11174,0.13484 0.002,0.10452 0.39308,-0.10345 0.54023,-0.28744 1.24139,-0.4032 1.10505,-0.1826 -0.0375,0.0607 -0.17022,0.11019 -0.29504,0.11019 -0.30588,0 -1.30564,0.55308 -1.30564,0.72231 0,0.0743 0.0871,0.16399 0.19339,0.19924 0.10624,0.0353 0.38533,0.1367 0.62022,0.22533 0.23489,0.0885 0.50772,0.13587 0.60672,0.10524 0.13593,-0.0421 0.12729,-0.0129 -0.0342,0.11874 -0.19289,0.15711 -0.1952,0.17451 -0.022,0.17451 0.29666,0 0.85911,-0.32653 0.78078,-0.45336 -0.0385,-0.0622 0.0342,-0.14044 0.16101,-0.1736 0.1268,-0.0332 0.20128,-0.10764 0.16551,-0.16551 -0.0358,-0.0579 0.0271,-0.0894 0.13942,-0.0702 0.16718,0.0287 0.19692,-0.0246 0.16506,-0.29639 -0.0673,-0.57397 -0.27767,-0.83402 -0.76189,-0.85858 z m 4.33341,0.0342 c 0.0607,0 0.0358,0.0481 -0.0553,0.10705 -0.0911,0.0589 -0.21504,0.10704 -0.2757,0.10704 -0.0607,0 -0.0362,-0.0481 0.0549,-0.10704 0.0911,-0.0589 0.21549,-0.10705 0.27615,-0.10705 z m -0.2856,0.54871 c 0.0367,0 0.12875,0.0994 0.20464,0.22083 0.12847,0.20572 0.11053,0.22038 -0.26625,0.22038 -0.3974,0 -0.40098,-0.003 -0.20464,-0.22038 0.10991,-0.12137 0.22952,-0.22083 0.26625,-0.22083 z m -5.08854,0.26176 c 0.0352,0.0102 0.0613,0.0558 0.0913,0.13988 0.0405,0.11309 0.0933,0.24277 0.11784,0.28828 0.0246,0.0456 -0.0821,0.0828 -0.23748,0.0828 -0.31562,0 -0.37644,-0.22651 -0.11828,-0.44076 0.0671,-0.0557 0.11146,-0.0804 0.14662,-0.0702 z m 27.16708,0.12233 c -0.50544,-0.0115 -1.00946,0.004 -1.09516,0.0571 -0.25605,0.15825 0.0344,0.60172 0.56985,0.86983 v -4.5e-4 c 0.50121,0.25099 1.12352,0.24074 1.55076,-0.0261 0.21591,-0.13486 0.26988,-0.67505 0.0792,-0.79293 -0.0923,-0.0571 -0.59916,-0.0959 -1.10461,-0.10749 z m -50.9394,0.0792 c -0.17375,0.008 -0.38962,0.0286 -0.65844,0.0594 -0.68519,0.0784 -0.76885,0.1132 -0.7376,0.30718 0.0194,0.12031 0.11603,0.28076 0.21453,0.35666 0.10509,0.081 0.50637,0.13807 0.97192,0.13807 0.87019,0 1.04948,-0.10537 0.93684,-0.55185 -0.0628,-0.24915 -0.20599,-0.3343 -0.72725,-0.30943 z m -58.061289,0.58963 c -0.08349,0.0286 -0.138704,0.26864 -0.147071,0.68588 -0.0076,0.38107 0.05512,0.57828 0.262208,0.8244 0.149744,0.17797 0.272103,0.36659 0.272103,0.41872 0,0.0521 0.04968,0.22529 0.11019,0.38455 0.113207,0.29717 0.33147,0.28615 0.33147,-0.0171 0,-0.0935 -0.08134,-0.34095 -0.180352,-0.54961 -0.219525,-0.46258 -0.140111,-0.57246 0.235223,-0.32652 0.15539,0.10223 0.337083,0.15153 0.403881,0.11019 0.0806,-0.0498 0.06082,-0.1091 -0.05847,-0.17585 -0.26203,-0.14664 -0.234705,-0.45285 0.03283,-0.36791 0.267075,0.0848 0.490952,-0.24799 0.29729,-0.44166 -0.167304,-0.1673 -0.620214,-0.40909 -0.620214,-0.33102 0,0.0333 0.06043,0.15698 0.134027,0.27481 0.07346,0.11782 0.104418,0.24325 0.06881,0.27885 -0.10021,0.10021 -0.856526,-0.38409 -0.990363,-0.63416 -0.0412,-0.077 -0.07948,-0.12034 -0.114238,-0.13268 -0.01303,-0.005 -0.0254,-0.005 -0.03733,-9e-4 z m 23.948624,0.63731 c 0.08069,-0.006 0.01041,0.23853 -0.228926,0.81136 -0.186429,0.44607 -0.293042,0.48206 -0.192046,0.0648 0.12154,-0.50225 0.241187,-0.77442 0.377346,-0.85859 0.01764,-0.0109 0.0321,-0.0166 0.04363,-0.0175 z m -45.375916,0.63235 c 0.04161,0.007 0.06791,0.0356 0.06791,0.0881 0,0.051 -0.126457,0.15034 -0.281098,0.22084 -0.452445,0.2027 -0.557862,0.0987 -0.07151,-0.16551 0.08312,-0.0831 0.170938,-0.13203 0.23837,-0.14258 0.01686,-0.003 0.03245,-0.003 0.04632,-9e-4 z m 23.861372,0.22308 c -0.08718,-3.5e-4 -0.159728,0.003 -0.217682,0.009 -0.115907,0.0131 -0.173606,0.0402 -0.173606,0.0814 0,0.0677 0.113146,0.12323 0.251414,0.12323 0.138275,0 0.364597,0.0791 0.502828,0.17586 0.144292,0.10108 0.35731,0.14965 0.500129,0.11379 0.157879,-0.0396 0.508463,0.0652 0.95978,0.28694 0.391115,0.1922 0.885358,0.4093 1.097855,0.48215 v -4.6e-4 c 0.212495,0.0729 0.398597,0.13828 0.413776,0.14437 0.01518,0.006 0.02743,-0.0326 0.02743,-0.0868 0,-0.0541 -0.115174,-0.1274 -0.256361,-0.16282 -0.141193,-0.0354 -0.672271,-0.30008 -1.180161,-0.58783 -0.771631,-0.43718 -1.038061,-0.5306 -1.620022,-0.56759 -0.116408,-0.007 -0.218209,-0.0113 -0.305385,-0.0117 z m 81.374409,0.44076 c -0.21047,0.004 -0.3472,0.14988 -0.25681,0.38544 v 4.6e-4 c 0.0688,0.17925 0.51002,0.22203 0.51002,0.0495 0,-0.0607 0.0867,-0.11205 0.19295,-0.11379 0.17474,-0.003 0.17276,-0.0189 -0.0211,-0.16551 -0.14603,-0.11045 -0.29875,-0.15867 -0.42503,-0.15607 z m 30.76918,0.13808 c -0.007,0.0118 -0.16737,0.35701 -0.35621,0.76683 l -0.34316,0.7448 c 0.45832,0 0.73018,-0.0371 1.10055,0.28829 0.39181,0.42171 0.66634,0.49906 0.92965,0.26221 0.12143,-0.10923 0.47679,-0.27358 0.78932,-0.3652 0.47576,-0.1395 0.6022,-0.14268 0.77763,-0.0198 0.11526,0.0807 0.35632,0.1635 0.53566,0.18395 0.25436,0.0289 0.32407,0.0903 0.31798,0.27975 -0.008,0.25042 0.0778,0.23993 0.41783,-0.0517 0.13247,-0.11361 0.30712,-0.13965 0.58648,-0.0872 0.37447,0.0703 0.39099,0.0611 0.27839,-0.14933 -0.4114,-0.68295 -4.04104,-1.5106 -5.03412,-1.85254 z m -91.30143,0.43806 c 0.04066,0.007 0.09199,0.0709 0.188447,0.1988 0.109922,0.14574 0.231728,0.43522 0.270754,0.64314 0.039,0.20793 0.186604,0.61837 0.328322,0.91211 0.266649,0.55274 0.227456,0.61115 -0.274351,0.40883 -0.15179,-0.0612 -0.462247,-0.094 -0.689927,-0.0729 -0.345312,0.032 -0.413776,0.004 -0.413776,-0.16956 0,-0.27873 0.321477,-1.50552 0.464599,-1.77294 0.05521,-0.10317 0.08527,-0.15414 0.125932,-0.14752 z m 81.72972,0.0144 c -0.0117,-0.002 -0.0238,-0.002 -0.036,9e-4 -0.17067,0.0363 -0.38285,0.52406 -0.53791,1.26112 -0.21504,1.02278 -0.21464,1.56038 0.002,1.87009 0.32401,0.46284 0.39663,0.28735 0.31978,-0.77584 -0.0675,-0.93436 -0.0542,-1.04572 0.15877,-1.31418 0.23921,-0.3016 0.31487,-0.91265 0.12728,-1.02859 -0.0112,-0.007 -0.0225,-0.0114 -0.0342,-0.0135 z m -71.8904,0.83115 c 0.009,5.1e-4 0.0173,0.003 0.0247,0.009 0.0197,0.0138 0.0324,0.0447 0.0324,0.0963 0,0.0536 0.0988,0.12365 0.21948,0.15516 v 4.5e-4 c 2.65869,0.84238 -3.7335,4.28734 -0.48079,0.003 0.0401,-0.15963 0.14023,-0.26667 0.20419,-0.26311 z m 69.71897,0.79292 c -0.1251,4e-4 -0.28662,0.0738 -0.52306,0.21994 -0.36138,0.22336 -0.36952,0.24336 -0.20599,0.49293 0.0937,0.14305 0.17001,0.3363 0.17001,0.42951 v 4.6e-4 c 0.0103,0.33413 0.64027,-0.2528 0.83205,-0.42863 0.14655,-0.22369 0.1519,-0.30415 0.0315,-0.49697 -0.0906,-0.14512 -0.17938,-0.21764 -0.30449,-0.21724 z m -120.509503,0.55051 c 1.164052,0.0515 2.386169,0.85946 1.946095,2.36121 -0.106668,0.12853 -0.114097,0.23726 -0.02833,0.41828 0.06374,0.13452 0.178242,0.41059 0.254561,0.61301 0.124797,0.33101 0.597747,0.66564 0.739849,0.52353 0.0291,-0.0291 0.07872,-0.60411 0.110641,-1.27776 0.04305,-0.90826 0.01976,-1.2968 -0.0904,-1.50264 -0.117212,-0.21903 -0.120429,-0.32259 -0.01574,-0.49023 0.07297,-0.11685 0.132679,-0.28452 0.132679,-0.37285 0.01263,-0.41673 4.031182,2.05598 5.189737,0.92964 0.340497,-0.18223 0.392675,-0.0592 0.121435,0.2856 -0.128349,0.16317 -0.233424,0.41726 -0.233424,0.56444 0,0.14715 -0.03721,0.24445 -0.08275,0.21634 -0.04554,-0.0282 -0.08717,0.10578 -0.09265,0.29728 -0.0055,0.19154 -0.101245,0.76448 -0.212285,1.27372 -0.303417,1.40925 0.167036,3.4598 -0.08275,5.14071 0.03367,1.04905 0.0088,1.31285 -0.146171,1.54941 -0.288409,0.44013 -0.416737,0.278 -0.44256,-0.55815 -0.10258,-3.32174 -0.140892,-4.10834 -0.210936,-4.32576 -0.05648,-0.17532 -0.03589,-0.24826 0.07061,-0.24871 0.109008,-4.2e-4 0.160661,-0.20722 0.186649,-0.74525 0.04187,-0.86696 -0.06637,-1.90336 -0.198792,-1.90336 -0.113504,0 -0.222622,0.86698 -0.25996,2.06528 -0.03042,0.97619 -0.08828,1.13189 -0.342264,0.9211 -0.03043,-0.28415 -0.259571,-0.0405 -0.540607,0.0765 -0.303218,0.15018 0.141693,0.27801 0.213634,3.36733 v 4.4e-4 c 0.04315,1.85335 0.02555,2.62163 -0.05937,2.62163 -0.481552,-1.0716 -1.126842,-1.91241 -2.27037,-2.49795 -2.04584,-1.53443 -0.494794,-0.87421 -1.150027,-2.42778 -0.219862,-0.27907 -0.266951,-0.28917 -1.386149,-0.2883 l -1.158572,9.1e-4 0.0094,-0.51228 c 0.0051,-0.28175 -0.0023,-0.71882 -0.01664,-0.97147 l 0.114238,-2.3203 -0.05532,-0.71915 -0.557698,-0.0184 c -0.614098,-0.0199 -1.246352,-0.40402 -1.257518,-0.76414 0.02586,-0.90445 0.896347,-1.32189 1.801724,-1.2818 z m 10.361036,3.04349 c -0.0087,2.97972 0.07507,5.96853 -0.09715,8.94341 l -0.08275,-2.10666 -0.08995,-2.11385 c -0.0058,-0.13734 -1.065639,-0.16003 -1.268313,-0.0823 -0.09722,0.0373 -0.113021,0.10122 -0.04587,0.1826 0.06538,0.0792 0.04666,0.28719 -0.05082,0.5667 -0.205579,0.5894 -0.196556,0.79525 0.04722,1.05692 0.12844,0.13787 0.185572,0.32122 0.152917,0.49203 -0.01007,0.0611 2.762364,0.53529 -0.357556,0.76324 v 0.58918 c 0,0.35313 0.04273,0.5623 0.107042,0.52262 0.172048,-0.10633 0.588144,0.22862 0.88647,0.71376 0.232115,0.37744 0.319734,0.43906 0.551851,0.38815 l 0.27615,-0.0607 -0.01709,2.18313 c 0.0055,2.13331 0.446118,4.51119 -0.06386,6.82954 h 3.810785 c -0.131285,-0.31482 -0.275364,-0.628 -0.4601,-0.94898 -0.07404,-0.12864 -0.330645,-0.50733 -0.464599,-1.29395 -0.169028,-0.99259 -0.933308,-4.03502 -1.084812,-4.31811 -0.77087,-2.45165 -0.812719,-5.8285 -0.60987,-8.683 -0.01498,-0.78928 0.01919,-1.52752 0.07601,-1.64026 0.131504,-0.27635 -0.950006,-1.57992 -1.215691,-1.98343 z m 5.032323,0.84465 c -0.07838,0.0101 -0.09085,0.1451 -0.09085,0.5496 v 0.60942 c 1.085173,0.17922 2.403663,0.47823 3.631782,0.25411 0.391876,-0.13878 0.652089,-0.41354 0.653047,-1.09156 l -0.785275,-0.0773 c -0.836509,-0.0627 -2.168253,0.14196 -3.306609,-0.21814 -0.04275,-0.019 -0.07597,-0.0295 -0.102095,-0.0261 z m 108.120524,0.52171 c 0.0528,0 0.0675,0.0349 0.0243,0.1048 -0.0375,0.0607 -0.15235,0.10902 -0.25502,0.10839 -0.16084,-0.001 -0.16339,-0.0162 -0.0207,-0.10839 0.10809,-0.0699 0.19866,-0.1048 0.25142,-0.1048 z m 2.14219,2.65042 c -0.0124,9.3e-4 -0.0526,0.0515 -0.13043,0.15202 -0.0912,0.11786 -0.16596,0.31902 -0.16596,0.44706 0,0.12804 -0.0568,0.28972 -0.12639,0.35935 -0.0696,0.0696 -0.15064,0.49447 -0.17945,0.94404 -0.0616,0.95993 -0.0659,0.95627 1.27371,0.95888 0.44117,8.3e-4 1.4098,0.098 2.15253,0.21588 0.74275,0.11783 2.34378,0.31973 3.55802,0.44841 3.07347,0.32798 7.16242,1.04022 10.818,1.42663 0.0678,0.012 0.24529,0.0228 0.41602,0.0337 v -1.80981 c -3.58298,-0.45094 -6.65361,-1.35082 -10.51665,-1.63442 -0.39464,-0.0567 -1.5371,-0.18249 -2.53887,-0.2793 -1.00178,-0.0968 -2.18959,-0.24366 -2.64008,-0.32652 -0.73128,-0.13313 -1.77856,0.50464 -1.95778,-0.79112 0.034,-0.0973 0.0497,-0.14575 0.0373,-0.14482 z m -0.99037,1.00206 c -0.15924,0.003 -0.50745,0.034 -0.89861,0.0819 -1.33496,0.15958 -1.39042,-0.44105 -1.08841,1.44822 0.0373,0.2125 0.057,0.45219 0.0432,0.53295 -0.0198,0.11471 0.11536,0.1314 0.61661,0.0769 0.9659,-0.10509 1.11823,-0.15124 1.18376,-0.36161 0.092,-0.29522 0.28106,-1.72485 0.23432,-1.77159 -0.006,-0.006 -0.0378,-0.008 -0.0908,-0.007 z m -3.05924,0.29234 -1.02095,0.0791 c -0.95205,0.0739 -1.18148,0.11652 -1.06727,0.1979 0.0253,0.018 0.44347,0.21236 0.9292,0.43176 0.4857,0.21939 0.94506,0.40229 1.02095,0.40839 0.0937,0.007 0.13807,-0.17105 0.13807,-0.55366 z m -95.666767,0.0818 c 0.0305,0.007 0.05175,0.0484 0.07736,0.11874 0.02555,0.20743 -0.08273,0.37449 -0.06477,0.59143 0.03944,0.0638 0.09398,0.49162 0.120985,0.95034 0.05784,0.98129 -0.03375,1.12871 -0.746595,1.20399 l 4.5e-4,-4.5e-4 c -1.663544,0.17574 -1.808471,0.17118 -1.808471,-0.0567 0.0036,-0.27208 0.463636,-0.0506 0.454254,-0.51318 0.08893,-0.089 0.10633,-0.27873 0.05262,-0.57254 -0.04486,-0.25622 0.01357,-0.52961 0.04363,-0.80147 -0.08713,-0.14097 0.175143,-0.22865 0.739849,-0.24736 0.481911,-0.0161 0.584102,-0.0637 0.840145,-0.39084 0.130617,-0.1669 0.205615,-0.25452 0.256361,-0.27705 0.01269,-0.006 0.02401,-0.007 0.03418,-0.005 z m 100.656367,3.71229 c -0.3222,-0.0122 -0.69331,0.009 -1.4851,0.0513 -1.09206,0.0577 -1.18645,0.0802 -1.18645,0.28334 0,0.1214 0.0728,0.35247 0.16191,0.51362 0.45981,0.83104 0.92496,2.33476 0.93549,3.02506 0.004,0.22769 0.0537,0.41423 0.11154,0.41423 l 0.22668,1.52512 c -0.0601,0.67279 -0.17669,0.77325 -0.73446,0.63326 l -0.27434,-0.0688 0.0607,-1.12754 c 0.0333,-0.62015 0.0776,-1.36356 0.099,-1.65196 0.0214,-0.28836 -0.003,-0.52441 -0.0531,-0.52441 -0.0506,0 -0.0917,0.27324 -0.0917,0.60717 0,0.53359 -0.0268,0.60717 -0.22083,0.60717 -0.38054,-0.007 -0.27137,-0.90547 -0.51498,-1.06233 -0.16519,-0.0433 -0.19633,-0.14055 -0.16595,-0.52262 0.0385,-0.52764 -3.47519,0.71447 -4.13372,-2.2101 -0.43527,-0.048 -1.68825,2.973 -2.37516,4.12607 -0.61625,2.22964 -2.01889,3.40187 -4.82769,5.14386 h 19.1205 c -0.62053,-0.0506 -1.03466,-0.0899 -1.6659,-0.13717 -1.94139,-0.14537 -2.56676,-0.22728 -2.56676,-0.33642 0,-0.0793 -0.0495,-0.14437 -0.11019,-0.14437 -0.0608,0 -0.11064,-0.13828 -0.11064,-0.30718 0,-0.16893 -0.072,-0.57878 -0.15967,-0.91076 -0.1344,-0.50741 -0.13583,-0.62171 -0.01,-0.71871 0.18008,-0.13874 3.14805,0.0562 5.93723,0.39038 3.17345,0.33633 7.00557,0.0904 10.7096,0.23028 v -1.87594 c -0.32836,-0.0153 -0.60525,-0.0326 -0.74749,-0.0535 -0.24286,-0.0358 -0.71447,-0.0681 -1.04839,-0.0724 -1.12735,-0.0201 -2.25199,-0.30606 -3.39206,-0.22398 -1.37804,0.0118 -3.18434,-0.31196 -4.83218,-0.27166 -2.71943,-0.30435 -4.66231,-0.4818 -6.09869,-0.55769 l -1.44012,-0.076 -0.43852,-1.13968 c -0.24095,-0.62668 -0.41161,-1.16568 -0.37914,-1.19815 0.23089,-0.2309 6.31459,0.3536 11.00598,1.05739 0.36428,0.0546 1.50678,0.14357 2.53888,0.19788 1.03212,0.0543 2.19387,0.15664 2.5816,0.22758 0.38772,0.0709 1.15753,0.14532 1.71087,0.16551 0.09,0.003 0.36774,0.008 0.53926,0.0122 v -2.10802 c -4.60186,-0.21365 -9.16559,-1.20973 -14.10436,-1.54131 -0.18214,-0.0283 -0.80307,-0.12626 -1.37985,-0.21768 -0.59635,-0.0945 -0.86966,-0.14069 -1.19185,-0.15292 z m -117.641415,1.24851 c -0.244085,0.0317 -0.385891,0.47727 -0.385891,1.23909 0,0.5978 0.02828,0.69577 0.200142,0.69577 0.250098,0 0.68318,0.39315 0.68318,0.62021 0,0.1306 -0.07534,0.15352 -0.323825,0.099 -0.739008,-0.15613 -0.285031,1.1464 -0.261759,1.67129 0.0388,0.0356 0.106276,0.14313 0.29684,0.10345 0.128233,-0.0344 0.373472,-0.0632 0.544654,-0.0639 0.257781,-0.001 0.30491,-0.0436 0.275701,-0.24556 -0.07057,-0.41537 -0.947913,-0.34417 0.07511,-0.4736 l 0.03688,-1.35197 c 0.03684,-1.3608 -0.02544,-1.57521 -0.326972,-1.12799 -0.121406,0.18006 -0.222431,0.21042 -0.510024,0.15202 -0.515128,-0.1046 -0.487117,-0.44114 0.04902,-0.58918 0.224263,-0.0613 0.428881,-0.0915 0.454704,-0.0657 0.08205,0.0821 0.35171,-0.25074 0.35171,-0.43401 0,-0.13272 -0.101921,-0.17222 -0.413777,-0.16056 -0.227672,0.008 -0.513628,-0.0168 -0.635055,-0.0562 -0.03892,-0.0127 -0.07577,-0.0167 -0.11064,-0.0121 z m -0.101196,7.28291 c -0.26649,0.009 -0.392288,0.15179 -0.388589,0.43131 0.0017,0.26653 -0.01881,0.53283 -0.03598,0.79922 h 1.62362 c 0.0024,-0.0501 0.0046,-0.13903 0.0067,-0.1763 0.03621,-0.62688 -0.0367,-0.74557 -0.57164,-0.92785 -0.263555,-0.0898 -0.47426,-0.13196 -0.634157,-0.12638 z" />
  </g>
</svg>
